RobotoFlex-opsz144-wght700.ufo
<glyph name="quotedbl" format="2">
	<unicode hex="0022"/>
	<advance width="911"/>
	<outline>
		<contour>
			<point x="91.5" y="954" type="line"/>
			<point x="80" y="1296.5" type="line"/>
			<point x="80" y="1456" type="line"/>
			<point x="393.5" y="1456" type="line"/>
			<point x="393.5" y="1296.5" type="line"/>
			<point x="381" y="954" type="line"/>
		</contour>
		<contour>
			<point x="530" y="954" type="line"/>
			<point x="518.5" y="1296.5" type="line"/>
			<point x="518.5" y="1456" type="line"/>
			<point x="831" y="1456" type="line"/>
			<point x="831" y="1296.5" type="line"/>
			<point x="819" y="954" type="line"/>
		</contour>
	</outline>
</glyph>
<glyph name="numbersign" format="2">
	<unicode hex="0023"/>
	<advance width="1514"/>
	<outline>
		<contour>
			<point x="160" y="-20" type="line"/>
			<point x="584.5" y="1476" type="line"/>
			<point x="865" y="1476" type="line"/>
			<point x="441" y="-20" type="line"/>
		</contour>
		<contour>
			<point x="648" y="-20" type="line"/>
			<point x="1072.5" y="1476" type="line"/>
			<point x="1353" y="1476" type="line"/>
			<point x="929.5" y="-20" type="line"/>
		</contour>
		<contour>
			<point x="45.5" y="372.5" type="line"/>
			<point x="45.5" y="582.5" type="line"/>
			<point x="1398.5" y="582.5" type="line"/>
			<point x="1398.5" y="372.5" type="line"/>
		</contour>
		<contour>
			<point x="115" y="872.5" type="line"/>
			<point x="115" y="1082.5" type="line"/>
			<point x="1467.5" y="1082.5" type="line"/>
			<point x="1467.5" y="872.5" type="line"/>
		</contour>
	</outline>
</glyph>
<glyph name="dollar" format="2">
	<unicode hex="0024"/>
	<advance width="1088"/>
	<outline>
		<contour>
			<point x="27.5" y="402" type="qcurve" smooth="yes"/>
			<point x="27.5" y="456.5" type="line"/>
			<point x="347.5" y="456.5" type="line"/>
			<point x="347.5" y="433" type="line" smooth="yes"/>
			<point x="347" y="325.5"/>
			<point x="451.5" y="221.5"/>
			<point x="545" y="221.5" type="qcurve" smooth="yes"/>
			<point x="633.5" y="221.5"/>
			<point x="730.5" y="312.5"/>
			<point x="730.5" y="390.5" type="qcurve" smooth="yes"/>
			<point x="730.5" y="461.5"/>
			<point x="655" y="552.5"/>
			<point x="472.5" y="609.5" type="qcurve" smooth="yes"/>
			<point x="252" y="678"/>
			<point x="44.5" y="873"/>
			<point x="44.5" y="1050" type="qcurve" smooth="yes"/>
			<point x="44.5" y="1246.5"/>
			<point x="312.5" y="1465"/>
			<point x="531.5" y="1465" type="qcurve" smooth="yes"/>
			<point x="754" y="1465"/>
			<point x="1027" y="1250.5"/>
			<point x="1027" y="1065" type="qcurve" smooth="yes"/>
			<point x="1027" y="1019" type="line"/>
			<point x="711.5" y="1019" type="line"/>
			<point x="711.5" y="1036.5" type="line" smooth="yes"/>
			<point x="711.5" y="1124.5"/>
			<point x="623" y="1226.5"/>
			<point x="538.5" y="1226.5" type="qcurve" smooth="yes"/>
			<point x="453" y="1226.5"/>
			<point x="374.5" y="1146.5"/>
			<point x="374.5" y="1073.5" type="qcurve" smooth="yes"/>
			<point x="374.5" y="1008.5"/>
			<point x="457.5" y="928.5"/>
			<point x="658" y="871" type="qcurve" smooth="yes"/>
			<point x="862" y="812.5"/>
			<point x="1059" y="607.5"/>
			<point x="1059" y="424" type="qcurve" smooth="yes"/>
			<point x="1059" y="217.5"/>
			<point x="777.5" y="-10"/>
			<point x="550" y="-10" type="qcurve" smooth="yes"/>
			<point x="321.5" y="-10"/>
			<point x="27.5" y="199"/>
		</contour>
		<contour>
			<point x="404.5" y="-150.5" type="line"/>
			<point x="404.5" y="98" type="line"/>
			<point x="681" y="98" type="line"/>
			<point x="681" y="74.5" type="line"/>
			<point x="688" y="64.5" type="line"/>
			<point x="688" y="-150.5" type="line"/>
		</contour>
		<contour>
			<point x="410" y="1358" type="line"/>
			<point x="410" y="1376" type="line"/>
			<point x="402.5" y="1386" type="line"/>
			<point x="402.5" y="1606" type="line"/>
			<point x="686" y="1606" type="line"/>
			<point x="686" y="1358" type="line"/>
		</contour>
	</outline>
</glyph>
<glyph name="ampersand" format="2">
	<unicode hex="0026"/>
	<advance width="1344"/>
	<outline>
		<contour>
			<point x="45" y="380" type="qcurve" smooth="yes"/>
			<point x="45" y="533"/>
			<point x="219.2134084727" y="734.5889565001"/>
			<point x="382.5" y="831.5" type="qcurve" smooth="yes"/>
			<point x="538.5" y="924" type="line" smooth="yes"/>
			<point x="626.9493376423" y="975.8946994437"/>
			<point x="702.5" y="1095.337164751"/>
			<point x="702.5" y="1163.5" type="qcurve" smooth="yes"/>
			<point x="702.5" y="1227.632780083"/>
			<point x="653.5" y="1309.5"/>
			<point x="602" y="1309.5" type="qcurve" smooth="yes"/>
			<point x="552" y="1309.5"/>
			<point x="496" y="1223.0903846154"/>
			<point x="496" y="1155.5" type="qcurve" smooth="yes"/>
			<point x="496" y="1082"/>
			<point x="586.9223253994" y="948.8458181745"/>
			<point x="684" y="824.5" type="qcurve" smooth="yes"/>
			<point x="1329.5" y="0" type="line"/>
			<point x="960" y="0" type="line"/>
			<point x="380" y="735.5" type="line" smooth="yes"/>
			<point x="268.2146972835" y="876.9711948501"/>
			<point x="180.5" y="1045.2890625"/>
			<point x="180.5" y="1144.5" type="qcurve" smooth="yes"/>
			<point x="180.5" y="1303"/>
			<point x="397" y="1486"/>
			<point x="607.5" y="1486" type="qcurve" smooth="yes"/>
			<point x="814.5" y="1486"/>
			<point x="1015" y="1314.5"/>
			<point x="1015" y="1156" type="qcurve" smooth="yes"/>
			<point x="1015" y="1031.6822429907"/>
			<point x="867.8934486997" y="852.9739397588"/>
			<point x="741" y="779" type="qcurve" smooth="yes"/>
			<point x="606.5" y="696.5" type="line" smooth="yes"/>
			<point x="449.7657024434" y="603.2571347635"/>
			<point x="362.5" y="486"/>
			<point x="362.5" y="409.5" type="qcurve" smooth="yes"/>
			<point x="362.5" y="314.5"/>
			<point x="470" y="206.5"/>
			<point x="553.5" y="206.5" type="qcurve" smooth="yes"/>
			<point x="691" y="206.5"/>
			<point x="971" y="465.7592592593"/>
			<point x="990.5" y="718" type="qcurve"/>
			<point x="1300.5" y="718" type="line"/>
			<point x="1300.5" y="424"/>
			<point x="843.5" y="-20"/>
			<point x="549.5" y="-20" type="qcurve" smooth="yes"/>
			<point x="296" y="-20"/>
			<point x="45" y="199"/>
		</contour>
	</outline>
</glyph>
<glyph name="quotesingle" format="2">
  <advance width="480"/>
  <unicode hex="0027"/>
  <outline>
    <contour>
      <point x="95.0" y="954.0" type="line"/>
      <point x="80.0" y="1296.5" type="line"/>
      <point x="80.0" y="1456.0" type="line"/>
      <point x="399.5" y="1456.0" type="line"/>
      <point x="399.5" y="1296.5" type="line"/>
      <point x="384.5" y="954.0" type="line"/>
    </contour>
  </outline>
</glyph>
<glyph name="parenleft" format="2">
  <advance width="690"/>
  <unicode hex="0028"/>
  <outline>
    <contour>
      <point x="649.5" y="-436.0" type="line"/>
      <point x="399.0" y="-371.5"/>
      <point x="79.0" y="101.0"/>
      <point x="79.0" y="514.5" type="qcurve" smooth="yes"/>
      <point x="79.0" y="525.0" type="line" smooth="yes"/>
      <point x="79.0" y="938.5"/>
      <point x="399.0" y="1411.5"/>
      <point x="649.5" y="1476.0" type="qcurve"/>
      <point x="649.5" y="1263.5" type="line"/>
      <point x="535.0" y="1209.0"/>
      <point x="431.0" y="891.8481012658"/>
      <point x="431.0" y="532.0" type="qcurve" smooth="yes"/>
      <point x="431.0" y="508.0" type="line" smooth="yes"/>
      <point x="431.0" y="148.15189873420002"/>
      <point x="535.0" y="-169.0"/>
      <point x="649.5" y="-223.5" type="qcurve"/>
    </contour>
  </outline>
</glyph>
<glyph name="parenright" format="2">
  <advance width="690"/>
  <unicode hex="0029"/>
  <outline>
    <contour>
      <point x="40.00000000000001" y="-436.0" type="qcurve"/>
      <point x="40.00000000000001" y="-223.5" type="line"/>
      <point x="155.0" y="-169.0"/>
      <point x="259.0" y="148.15189873420002"/>
      <point x="259.0" y="508.0" type="qcurve" smooth="yes"/>
      <point x="259.0" y="532.0" type="line" smooth="yes"/>
      <point x="259.0" y="891.8481012658"/>
      <point x="155.0" y="1209.0"/>
      <point x="40.00000000000001" y="1263.5" type="qcurve"/>
      <point x="40.00000000000001" y="1476.0" type="line"/>
      <point x="291.5" y="1411.5"/>
      <point x="611.0" y="939.0"/>
      <point x="611.0" y="525.5" type="qcurve" smooth="yes"/>
      <point x="611.0" y="515.0" type="line" smooth="yes"/>
      <point x="611.0" y="101.5"/>
      <point x="291.5" y="-371.5"/>
    </contour>
  </outline>
</glyph>
<glyph name="asterisk" format="2">
	<unicode hex="002A"/>
	<advance width="1042"/>
	<outline>
		<contour>
			<point x="23" y="1020.5" type="line"/>
			<point x="103.5" y="1270" type="line"/>
			<point x="410.5" y="1144" type="line"/>
			<point x="389.5" y="1476" type="line"/>
			<point x="652" y="1476" type="line"/>
			<point x="632" y="1144" type="line"/>
			<point x="938.5" y="1270.5" type="line"/>
			<point x="1018" y="1021" type="line"/>
			<point x="701.5" y="942.5" type="line"/>
			<point x="910.5" y="684" type="line"/>
			<point x="698.5" y="537" type="line"/>
			<point x="521.5" y="818" type="line"/>
			<point x="344.5" y="537" type="line"/>
			<point x="132.5" y="684" type="line"/>
			<point x="340.5" y="942.5" type="line"/>
		</contour>
	</outline>
</glyph>
<glyph name="plus" format="2">
  <advance width="1153"/>
  <unicode hex="002B"/>
  <outline>
    <contour>
      <point x="105.0" y="527.5" type="line"/>
      <point x="105.0" y="820.5" type="line"/>
      <point x="1047.5" y="820.5" type="line"/>
      <point x="1047.5" y="527.5" type="line"/>
    </contour>
    <contour>
      <point x="424.0" y="188.0" type="line"/>
      <point x="424.0" y="1160.0" type="line"/>
      <point x="729.0" y="1160.0" type="line"/>
      <point x="729.0" y="188.0" type="line"/>
    </contour>
  </outline>
</glyph>
<glyph name="comma" format="2">
  <advance width="599"/>
  <unicode hex="002C"/>
  <outline>
    <contour>
      <point x="90.0" y="-145.0" type="line"/>
      <point x="123.5" y="-94.50000000000001"/>
      <point x="159.0" y="14.0"/>
      <point x="159.0" y="75.0" type="qcurve" smooth="yes"/>
      <point x="159.0" y="326.0" type="line"/>
      <point x="466.0" y="326.0" type="line"/>
      <point x="466.0" y="77.0" type="line" smooth="yes"/>
      <point x="466.0" y="2.0"/>
      <point x="412.0" y="-138.0"/>
      <point x="365.0" y="-183.0" type="qcurve"/>
    </contour>
  </outline>
</glyph>
<glyph name="hyphen" format="2">
  <advance width="721"/>
  <unicode hex="002D"/>
  <outline>
    <contour>
      <point x="47.0" y="496.5" type="line"/>
      <point x="47.0" y="768.5" type="line"/>
      <point x="674.0" y="768.5" type="line"/>
      <point x="674.0" y="496.5" type="line"/>
    </contour>
  </outline>
</glyph>
<glyph name="period" format="2">
  <advance width="585"/>
  <unicode hex="002E"/>
  <outline>
    <contour>
      <point x="100.5" y="163.0" type="qcurve" smooth="yes"/>
      <point x="100.5" y="239.5"/>
      <point x="200.0" y="343.5"/>
      <point x="292.5" y="343.5" type="qcurve" smooth="yes"/>
      <point x="385.0" y="343.5"/>
      <point x="484.5" y="239.5"/>
      <point x="484.5" y="163.0" type="qcurve" smooth="yes"/>
      <point x="484.5" y="85.0"/>
      <point x="385.0" y="-19.0"/>
      <point x="292.5" y="-19.0" type="qcurve" smooth="yes"/>
      <point x="200.0" y="-19.0"/>
      <point x="100.5" y="87.0"/>
    </contour>
  </outline>
</glyph>
<glyph name="slash" format="2">
  <advance width="704"/>
  <unicode hex="002F"/>
  <outline>
    <contour>
      <point x="-102.5" y="-125.0" type="line"/>
      <point x="476.5" y="1456.0" type="line"/>
      <point x="778.5" y="1456.0" type="line"/>
      <point x="198.5" y="-125.0" type="line"/>
    </contour>
  </outline>
</glyph>
<glyph name="zero" format="2">
	<unicode hex="0030"/>
	<advance width="1117"/>
	<outline>
		<contour>
			<point x="52" y="503.5" type="qcurve" smooth="yes"/>
			<point x="52" y="952.5" type="line" smooth="yes"/>
			<point x="52" y="1204"/>
			<point x="322" y="1476"/>
			<point x="557.5" y="1476" type="qcurve" smooth="yes"/>
			<point x="793" y="1476"/>
			<point x="1064.5" y="1209"/>
			<point x="1064.5" y="952.5" type="qcurve" smooth="yes"/>
			<point x="1064.5" y="503.5" type="line" smooth="yes"/>
			<point x="1064.5" y="242"/>
			<point x="779.5" y="-21"/>
			<point x="557.5" y="-20" type="qcurve" smooth="yes"/>
			<point x="320" y="-19"/>
			<point x="52" y="243.5"/>
		</contour>
		<contour>
			<point x="402.5" y="429.5" type="line" smooth="yes"/>
			<point x="402.5" y="326.5"/>
			<point x="480.5" y="218.5"/>
			<point x="557.5" y="218.5" type="qcurve" smooth="yes"/>
			<point x="635" y="218.5"/>
			<point x="713.5" y="326.5"/>
			<point x="713.5" y="429.5" type="qcurve" smooth="yes"/>
			<point x="713.5" y="1019" type="line" smooth="yes"/>
			<point x="713.5" y="1124"/>
			<point x="635" y="1232.5"/>
			<point x="557.5" y="1232.5" type="qcurve" smooth="yes"/>
			<point x="480.5" y="1232.5"/>
			<point x="402.5" y="1124"/>
			<point x="402.5" y="1019" type="qcurve" smooth="yes"/>
		</contour>
	</outline>
</glyph>
<glyph name="two" format="2">
	<unicode hex="0032"/>
	<advance width="1117"/>
	<outline>
		<contour>
			<point x="33.5" y="0" type="line"/>
			<point x="33.5" y="219" type="line"/>
			<point x="562.5" y="764" type="line" smooth="yes"/>
			<point x="620.5" y="832"/>
			<point x="706" y="977.5"/>
			<point x="706" y="1056" type="qcurve" smooth="yes"/>
			<point x="706" y="1152.5"/>
			<point x="620" y="1233"/>
			<point x="551.5" y="1233" type="qcurve" smooth="yes"/>
			<point x="480" y="1233"/>
			<point x="390.5" y="1140"/>
			<point x="390.5" y="1000.5" type="qcurve" smooth="yes"/>
			<point x="390.5" y="958" type="line"/>
			<point x="35" y="958" type="line"/>
			<point x="35" y="1048.5" type="line" smooth="yes"/>
			<point x="35" y="1234"/>
			<point x="323.5" y="1476"/>
			<point x="558" y="1476" type="qcurve" smooth="yes"/>
			<point x="803" y="1476"/>
			<point x="1057.5" y="1259.5"/>
			<point x="1058.5" y="1073.5" type="qcurve" smooth="yes"/>
			<point x="1059" y="936"/>
			<point x="943.5" y="717.5"/>
			<point x="835.5" y="604.5" type="qcurve" smooth="yes"/>
			<point x="563.5" y="282" type="line"/>
			<point x="1092.5" y="282" type="line"/>
			<point x="1092.5" y="0" type="line"/>
		</contour>
	</outline>
</glyph>
<glyph name="five" format="2">
  <advance width="1117"/>
  <unicode hex="0035"/>
  <outline>
    <contour>
      <point x="22.0" y="414.5" type="qcurve" smooth="yes"/>
      <point x="22.0" y="477.5" type="line"/>
      <point x="371.0" y="476.0" type="line"/>
      <point x="371.0" y="424.5" type="line" smooth="yes"/>
      <point x="371.0" y="318.5"/>
      <point x="463.0" y="218.5"/>
      <point x="549.0" y="218.5" type="qcurve" smooth="yes"/>
      <point x="633.5" y="218.5"/>
      <point x="730.0" y="333.5"/>
      <point x="730.0" y="484.5" type="qcurve" smooth="yes"/>
      <point x="730.0" y="631.5"/>
      <point x="637.0" y="730.0"/>
      <point x="562.5" y="730.0" type="qcurve" smooth="yes"/>
      <point x="502.0" y="730.0"/>
      <point x="409.0" y="677.0"/>
      <point x="388.5" y="635.0" type="qcurve"/>
      <point x="55.0" y="683.5" type="line"/>
      <point x="131.5" y="1456.0" type="line"/>
      <point x="1013.5" y="1456.0" type="line"/>
      <point x="1013.5" y="1178.0" type="line"/>
      <point x="390.5" y="1185.5" type="line"/>
      <point x="362.5" y="870.5" type="line"/>
      <point x="417.95557387225" y="908.4037237648499"/>
      <point x="575.0" y="956.5"/>
      <point x="657.5" y="956.5" type="qcurve" smooth="yes"/>
      <point x="831.5" y="956.5"/>
      <point x="1083.0" y="737.0"/>
      <point x="1083.0" y="498.5" type="qcurve" smooth="yes"/>
      <point x="1083.0" y="253.0"/>
      <point x="804.5" y="-20.0"/>
      <point x="554.5" y="-20.0" type="qcurve" smooth="yes"/>
      <point x="319.0" y="-20.0"/>
      <point x="22.0" y="204.0"/>
    </contour>
  </outline>
</glyph>
<glyph name="six" format="2">
  <advance width="1117"/>
  <unicode hex="0036"/>
  <outline>
    <contour>
      <point x="40.5" y="597.5" type="qcurve" smooth="yes"/>
      <point x="40.5" y="675.0" type="line" smooth="yes"/>
      <point x="40.5" y="1049.0"/>
      <point x="461.0" y="1476.0"/>
      <point x="837.5" y="1476.0" type="qcurve" smooth="yes"/>
      <point x="926.0" y="1476.0" type="line"/>
      <point x="926.0" y="1194.0" type="line"/>
      <point x="850.5" y="1194.0" type="line" smooth="yes"/>
      <point x="627.0" y="1194.0"/>
      <point x="390.5" y="932.0"/>
      <point x="390.5" y="591.0" type="qcurve" smooth="yes"/>
      <point x="390.5" y="571.0" type="line" smooth="yes"/>
      <point x="390.5" y="358.0"/>
      <point x="488.5" y="218.0"/>
      <point x="568.0" y="218.0" type="qcurve" smooth="yes"/>
      <point x="641.5" y="218.0"/>
      <point x="732.5" y="327.0"/>
      <point x="732.5" y="496.5" type="qcurve" smooth="yes"/>
      <point x="732.5" y="617.5"/>
      <point x="649.5" y="734.5"/>
      <point x="569.5" y="734.5" type="qcurve" smooth="yes"/>
      <point x="495.5" y="734.5"/>
      <point x="391.0" y="621.5"/>
      <point x="391.0" y="524.0" type="qcurve"/>
      <point x="335.0" y="524.5" type="line"/>
      <point x="335.0" y="718.0"/>
      <point x="557.5" y="930.5"/>
      <point x="707.0" y="930.5" type="qcurve" smooth="yes"/>
      <point x="879.0" y="930.5"/>
      <point x="1085.0" y="702.5"/>
      <point x="1085.0" y="486.0" type="qcurve" smooth="yes"/>
      <point x="1085.0" y="248.0"/>
      <point x="787.0" y="-20.0"/>
      <point x="564.0" y="-20.0" type="qcurve" smooth="yes"/>
      <point x="319.5" y="-20.0"/>
      <point x="40.5" y="278.5"/>
    </contour>
  </outline>
</glyph>
<glyph name="seven" format="2">
  <advance width="1117"/>
  <unicode hex="0037"/>
  <outline>
    <contour>
      <point x="221.5" y="0.0" type="line"/>
      <point x="683.0" y="1177.5" type="line"/>
      <point x="26.5" y="1177.5" type="line"/>
      <point x="26.5" y="1456.0" type="line"/>
      <point x="1047.5" y="1456.0" type="line"/>
      <point x="1047.5" y="1203.0" type="line"/>
      <point x="594.5" y="0.0" type="line"/>
    </contour>
  </outline>
</glyph>
<glyph name="eight" format="2">
  <advance width="1117"/>
  <unicode hex="0038"/>
  <outline>
    <contour>
      <point x="26.5" y="397.0" type="qcurve" smooth="yes"/>
      <point x="26.5" y="539.5"/>
      <point x="179.0" y="730.0"/>
      <point x="264.5" y="755.0" type="qcurve"/>
      <point x="264.5" y="759.0" type="line"/>
      <point x="176.0" y="799.5"/>
      <point x="67.5" y="961.5"/>
      <point x="67.5" y="1085.0" type="qcurve" smooth="yes"/>
      <point x="67.5" y="1264.5"/>
      <point x="324.0" y="1476.0"/>
      <point x="555.0" y="1476.0" type="qcurve" smooth="yes"/>
      <point x="786.0" y="1476.0"/>
      <point x="1041.0" y="1259.5"/>
      <point x="1041.0" y="1085.0" type="qcurve" smooth="yes"/>
      <point x="1041.0" y="957.5"/>
      <point x="926.5" y="792.5"/>
      <point x="840.0" y="760.0" type="qcurve"/>
      <point x="840.0" y="756.0" type="line"/>
      <point x="929.0" y="731.5"/>
      <point x="1082.0" y="541.0"/>
      <point x="1082.0" y="397.0" type="qcurve" smooth="yes"/>
      <point x="1082.0" y="204.5"/>
      <point x="790.0" y="-20.0"/>
      <point x="555.0" y="-20.0" type="qcurve" smooth="yes"/>
      <point x="320.0" y="-20.0"/>
      <point x="26.5" y="204.5"/>
    </contour>
    <contour>
      <point x="381.5" y="436.0" type="qcurve" smooth="yes"/>
      <point x="381.5" y="317.5"/>
      <point x="473.0" y="213.5"/>
      <point x="554.0" y="213.5" type="qcurve" smooth="yes"/>
      <point x="635.0" y="213.5"/>
      <point x="725.5" y="318.0"/>
      <point x="725.5" y="435.5" type="qcurve" smooth="yes"/>
      <point x="725.5" y="558.0"/>
      <point x="629.0" y="655.0"/>
      <point x="554.5" y="655.0" type="qcurve" smooth="yes"/>
      <point x="480.0" y="655.0"/>
      <point x="381.5" y="558.0"/>
    </contour>
    <contour>
      <point x="403.0" y="1038.5" type="qcurve" smooth="yes"/>
      <point x="403.0" y="937.0"/>
      <point x="489.5" y="832.0"/>
      <point x="554.0" y="832.0" type="qcurve" smooth="yes"/>
      <point x="618.5" y="832.0"/>
      <point x="705.0" y="937.0"/>
      <point x="705.0" y="1038.5" type="qcurve" smooth="yes"/>
      <point x="705.0" y="1141.0"/>
      <point x="629.0" y="1237.5"/>
      <point x="554.0" y="1237.5" type="qcurve" smooth="yes"/>
      <point x="479.0" y="1237.5"/>
      <point x="403.0" y="1145.0"/>
    </contour>
  </outline>
</glyph>
<glyph name="colon" format="2">
  <advance width="572"/>
  <unicode hex="003A"/>
  <outline>
    <contour>
      <point x="108.49999999999999" y="150.0" type="qcurve" smooth="yes"/>
      <point x="108.49999999999999" y="220.5"/>
      <point x="200.0" y="317.5"/>
      <point x="285.0" y="317.5" type="qcurve" smooth="yes"/>
      <point x="371.0" y="317.5"/>
      <point x="463.0" y="220.5"/>
      <point x="463.0" y="150.0" type="qcurve" smooth="yes"/>
      <point x="463.0" y="78.0"/>
      <point x="371.5" y="-19.0"/>
      <point x="285.5" y="-19.0" type="qcurve" smooth="yes"/>
      <point x="200.0" y="-19.0"/>
      <point x="108.49999999999999" y="79.0"/>
    </contour>
    <contour>
      <point x="108.49999999999999" y="831.0" type="qcurve" smooth="yes"/>
      <point x="108.49999999999999" y="902.0"/>
      <point x="200.0" y="998.5"/>
      <point x="285.0" y="998.5" type="qcurve" smooth="yes"/>
      <point x="371.0" y="998.5"/>
      <point x="463.0" y="902.0"/>
      <point x="463.0" y="831.5" type="qcurve" smooth="yes"/>
      <point x="463.0" y="759.5"/>
      <point x="371.5" y="662.5"/>
      <point x="285.5" y="662.5" type="qcurve" smooth="yes"/>
      <point x="200.0" y="662.5"/>
      <point x="108.49999999999999" y="760.5"/>
    </contour>
  </outline>
</glyph>
<glyph name="semicolon" format="2">
	<unicode hex="003B"/>
	<advance width="572"/>
	<outline>
		<contour>
			<point x="89" y="-146" type="line"/>
			<point x="121.5" y="-96.5"/>
			<point x="157" y="10"/>
			<point x="157" y="69" type="qcurve" smooth="yes"/>
			<point x="157" y="310" type="line"/>
			<point x="451.5" y="310" type="line"/>
			<point x="451.5" y="71" type="line" smooth="yes"/>
			<point x="451.5" y="-2.5"/>
			<point x="400" y="-139"/>
			<point x="354" y="-183" type="qcurve"/>
		</contour>
		<contour>
			<point x="108.5" y="831" type="qcurve" smooth="yes"/>
			<point x="108.5" y="902"/>
			<point x="200" y="998.5"/>
			<point x="285" y="998.5" type="qcurve" smooth="yes"/>
			<point x="371" y="998.5"/>
			<point x="463" y="902"/>
			<point x="463" y="831.5" type="qcurve" smooth="yes"/>
			<point x="463" y="759.5"/>
			<point x="371.5" y="662.5"/>
			<point x="285.5" y="662.5" type="qcurve" smooth="yes"/>
			<point x="200" y="662.5"/>
			<point x="108.5" y="760.5"/>
		</contour>
	</outline>
</glyph>
<glyph name="less" format="2">
  <advance width="1032"/>
  <unicode hex="003C"/>
  <outline>
    <contour>
      <point x="924.5" y="137.5" type="line"/>
      <point x="98.5" y="535.5" type="line"/>
      <point x="98.5" y="812.5" type="line"/>
      <point x="924.5" y="1215.5" type="line"/>
      <point x="924.5" y="912.0" type="line"/>
      <point x="389.5" y="674.0" type="line"/>
      <point x="924.5" y="441.0" type="line"/>
    </contour>
  </outline>
</glyph>
<glyph name="equal" format="2">
	<unicode hex="003D"/>
	<advance width="1136"/>
	<outline>
		<contour>
			<point x="126" y="290" type="line"/>
			<point x="126" y="576.5" type="line"/>
			<point x="1009.5" y="576.5" type="line"/>
			<point x="1009.5" y="290" type="line"/>
		</contour>
		<contour>
			<point x="126" y="775.5" type="line"/>
			<point x="126" y="1062" type="line"/>
			<point x="1009.5" y="1062" type="line"/>
			<point x="1009.5" y="775.5" type="line"/>
		</contour>
	</outline>
</glyph>
<glyph name="greater" format="2">
  <advance width="1032"/>
  <unicode hex="003E"/>
  <outline>
    <contour>
      <point x="107.5" y="137.5" type="line"/>
      <point x="107.5" y="441.0" type="line"/>
      <point x="642.5" y="679.0" type="line"/>
      <point x="107.5" y="912.0" type="line"/>
      <point x="107.5" y="1215.5" type="line"/>
      <point x="933.5" y="817.5" type="line"/>
      <point x="933.5" y="540.5" type="line"/>
    </contour>
  </outline>
</glyph>
<glyph name="question" format="2">
  <advance width="1050"/>
  <unicode hex="003F"/>
  <outline>
    <contour>
      <point x="281.5" y="156.5" type="qcurve" smooth="yes"/>
      <point x="281.5" y="229.5"/>
      <point x="382.5" y="335.0"/>
      <point x="478.5" y="335.0" type="qcurve" smooth="yes"/>
      <point x="574.5" y="335.0"/>
      <point x="675.5" y="229.5"/>
      <point x="675.5" y="156.5" type="qcurve" smooth="yes"/>
      <point x="675.5" y="83.5"/>
      <point x="574.5" y="-22.0"/>
      <point x="478.5" y="-22.0" type="qcurve" smooth="yes"/>
      <point x="385.0" y="-22.0"/>
      <point x="281.5" y="83.5"/>
    </contour>
    <contour>
      <point x="49.99999999999999" y="1026.0" type="line"/>
      <point x="49.99999999999999" y="1093.0" type="line" smooth="yes"/>
      <point x="49.99999999999999" y="1264.0"/>
      <point x="286.0" y="1476.0"/>
      <point x="504.50000000000006" y="1476.0" type="qcurve" smooth="yes"/>
      <point x="739.0" y="1476.0"/>
      <point x="983.5" y="1290.5"/>
      <point x="983.5" y="1138.5" type="qcurve" smooth="yes"/>
      <point x="983.5" y="991.4130982367999"/>
      <point x="885.04220334705" y="839.62712676285"/>
      <point x="797.0" y="753.0" type="qcurve" smooth="yes"/>
      <point x="711.1557716755501" y="670.2426811747"/>
      <point x="645.0" y="563.9069400631"/>
      <point x="645.0" y="503.0" type="qcurve" smooth="yes"/>
      <point x="645.0" y="477.0" type="line"/>
      <point x="310.0" y="477.0" type="line"/>
      <point x="310.0" y="514.5" type="line" smooth="yes"/>
      <point x="310.0" y="617.02892561985"/>
      <point x="393.8807545355" y="765.30334885245"/>
      <point x="496.0" y="857.0" type="qcurve" smooth="yes"/>
      <point x="577.8817150172999" y="932.3024477118"/>
      <point x="623.5" y="1017.6524216524"/>
      <point x="623.5" y="1087.0" type="qcurve" smooth="yes"/>
      <point x="623.5" y="1156.5681818182"/>
      <point x="559.5" y="1234.0"/>
      <point x="489.5" y="1234.0" type="qcurve" smooth="yes"/>
      <point x="419.0" y="1234.0"/>
      <point x="349.5" y="1142.2203389830502"/>
      <point x="349.5" y="1048.0" type="qcurve" smooth="yes"/>
      <point x="349.5" y="1026.0" type="line"/>
    </contour>
  </outline>
</glyph>
<glyph name="at" format="2">
  <advance width="2055"/>
  <unicode hex="0040"/>
  <outline>
    <contour>
      <point x="600.5" y="400.0" type="qcurve" smooth="yes"/>
      <point x="600.5" y="692.5"/>
      <point x="893.0" y="1052.0"/>
      <point x="1092.0" y="1052.0" type="qcurve" smooth="yes"/>
      <point x="1166.0" y="1052.0"/>
      <point x="1295.5" y="991.0"/>
      <point x="1331.5" y="946.0" type="qcurve"/>
      <point x="1511.5" y="946.0" type="line"/>
      <point x="1401.0" y="350.0" type="line" smooth="yes"/>
      <point x="1382.9232054165" y="254.10543472605002"/>
      <point x="1447.5" y="181.5"/>
      <point x="1512.5" y="181.0" type="qcurve" smooth="yes"/>
      <point x="1610.0" y="180.5"/>
      <point x="1734.5" y="416.4768439108"/>
      <point x="1734.5" y="624.5" type="qcurve" smooth="yes"/>
      <point x="1734.5" y="892.5313315927"/>
      <point x="1391.5" y="1262.0"/>
      <point x="1080.5" y="1262.0" type="qcurve" smooth="yes"/>
      <point x="774.0" y="1262.0"/>
      <point x="363.0" y="790.8682008368"/>
      <point x="363.0" y="434.5" type="qcurve" smooth="yes"/>
      <point x="363.0" y="120.7966507177"/>
      <point x="684.0" y="-213.0"/>
      <point x="949.4999999999999" y="-213.0" type="qcurve" smooth="yes"/>
      <point x="1077.5" y="-213.0"/>
      <point x="1256.5" y="-163.5"/>
      <point x="1317.0" y="-128.0" type="qcurve"/>
      <point x="1317.0" y="-361.0" type="line"/>
      <point x="1253.0" y="-404.0"/>
      <point x="1077.5" y="-446.0"/>
      <point x="949.4999999999999" y="-446.0" type="qcurve" smooth="yes"/>
      <point x="586.5" y="-446.0"/>
      <point x="67.0" y="40.0"/>
      <point x="67.0" y="460.0" type="qcurve" smooth="yes"/>
      <point x="67.0" y="880.0"/>
      <point x="665.0" y="1486.0"/>
      <point x="1080.5" y="1486.0" type="qcurve" smooth="yes"/>
      <point x="1487.0" y="1486.0"/>
      <point x="1987.9999999999998" y="1000.0"/>
      <point x="1987.9999999999998" y="650.0" type="qcurve" smooth="yes"/>
      <point x="1987.9999999999998" y="360.0"/>
      <point x="1703.5" y="0.0"/>
      <point x="1478.5" y="0.0" type="qcurve" smooth="yes"/>
      <point x="1345.5" y="0.0"/>
      <point x="1182.0" y="98.5"/>
      <point x="1148.0" y="184.5" type="qcurve"/>
      <point x="1110.0" y="100.0"/>
      <point x="978.5" y="0.0"/>
      <point x="902.0" y="0.0" type="qcurve" smooth="yes"/>
      <point x="764.0" y="0.0"/>
      <point x="600.5" y="220.0"/>
    </contour>
    <contour>
      <point x="899.0" y="413.5" type="qcurve" smooth="yes"/>
      <point x="899.0" y="306.4096385542"/>
      <point x="949.5" y="208.5"/>
      <point x="997.4999999999999" y="208.5" type="qcurve" smooth="yes"/>
      <point x="1045.0" y="208.5"/>
      <point x="1113.9912799853998" y="296.28858820790003"/>
      <point x="1134.5" y="405.5" type="qcurve" smooth="yes"/>
      <point x="1209.5" y="823.0" type="line"/>
      <point x="1190.1900969846997" y="840.3239842734"/>
      <point x="1139.4473684210502" y="861.5"/>
      <point x="1113.0" y="861.5" type="qcurve" smooth="yes"/>
      <point x="1023.0" y="861.5"/>
      <point x="899.0" y="598.6946826758"/>
    </contour>
  </outline>
</glyph>
<glyph name="A" format="2">
	<unicode hex="0041"/>
	<advance width="1265"/>
	<outline>
		<contour>
			<point x="-15" y="0" type="line"/>
			<point x="439" y="1456" type="line"/>
			<point x="837" y="1456" type="line"/>
			<point x="1280" y="0" type="line"/>
			<point x="933" y="0" type="line"/>
			<point x="657.5" y="982.5" type="line" smooth="yes"/>
			<point x="646" y="1023.5"/>
			<point x="631" y="1084.5"/>
			<point x="625" y="1105.5" type="qcurve"/>
			<point x="622.5" y="1105.5" type="line"/>
			<point x="616.5" y="1084.5"/>
			<point x="600.5" y="1024"/>
			<point x="590" y="983" type="qcurve" smooth="yes"/>
			<point x="328" y="0" type="line"/>
		</contour>
		<contour>
			<point x="303" y="288" type="line"/>
			<point x="330" y="520" type="line"/>
			<point x="928" y="520" type="line"/>
			<point x="956" y="288" type="line"/>
		</contour>
	</outline>
</glyph>
<glyph name="B" format="2">
  <advance width="1180"/>
  <unicode hex="0042"/>
  <anchor x="589.75" y="0" name="bottom"/>
  <anchor x="589.75" y="1456.0" name="top"/>
  <outline>
    <contour>
      <point x="85.0" y="0.0" type="line"/>
      <point x="85.0" y="1456.0" type="line"/>
      <point x="678.5" y="1456.0" type="line" smooth="yes"/>
      <point x="894.0" y="1456.0"/>
      <point x="1094.5" y="1262.5"/>
      <point x="1094.5" y="1088.5" type="qcurve" smooth="yes"/>
      <point x="1094.5" y="963.0"/>
      <point x="990.0000000000001" y="797.5"/>
      <point x="903.5" y="767.0" type="qcurve"/>
      <point x="903.5" y="763.0" type="line"/>
      <point x="1010.0" y="736.5"/>
      <point x="1149.5" y="561.0"/>
      <point x="1149.5" y="404.5" type="qcurve" smooth="yes"/>
      <point x="1149.5" y="214.5"/>
      <point x="911.0" y="0.0"/>
      <point x="700.5" y="0.0" type="qcurve" smooth="yes"/>
    </contour>
    <contour>
      <point x="430.0" y="234.0" type="line"/>
      <point x="607.0" y="234.0" type="line" smooth="yes"/>
      <point x="700.0" y="234.0"/>
      <point x="790.5" y="344.34202453989997"/>
      <point x="790.5" y="438.0" type="qcurve" smooth="yes"/>
      <point x="790.5" y="532.4953846154001"/>
      <point x="700.0" y="646.5"/>
      <point x="607.0" y="646.5" type="qcurve" smooth="yes"/>
      <point x="430.0" y="646.5" type="line"/>
    </contour>
    <contour>
      <point x="430.0" y="829.5" type="line"/>
      <point x="589.0" y="829.5" type="line" smooth="yes"/>
      <point x="678.5" y="829.5"/>
      <point x="759.0" y="931.47038327525"/>
      <point x="759.0" y="1023.5000000000001" type="qcurve" smooth="yes"/>
      <point x="759.0" y="1115.5"/>
      <point x="678.5" y="1210.5"/>
      <point x="589.0" y="1211.0" type="qcurve" smooth="yes"/>
      <point x="430.0" y="1211.0" type="line"/>
    </contour>
  </outline>
</glyph>
<glyph name="C" format="2">
	<unicode hex="0043"/>
	<advance width="1220"/>
	<outline>
		<contour>
			<point x="55.5" y="689" type="qcurve" smooth="yes"/>
			<point x="55.5" y="767" type="line" smooth="yes"/>
			<point x="55.5" y="1146"/>
			<point x="385.5" y="1475.5"/>
			<point x="650" y="1475.5" type="qcurve" smooth="yes"/>
			<point x="904.5" y="1475.5"/>
			<point x="1186.5" y="1234"/>
			<point x="1186.5" y="986" type="qcurve" smooth="yes"/>
			<point x="1186.5" y="894" type="line"/>
			<point x="851.5" y="894" type="line"/>
			<point x="851.5" y="1019" type="line" smooth="yes"/>
			<point x="851.5" y="1122"/>
			<point x="753.5" y="1229.5"/>
			<point x="657" y="1229.5" type="qcurve" smooth="yes"/>
			<point x="550" y="1229.5"/>
			<point x="433.5" y="1057.5"/>
			<point x="433.5" y="871" type="qcurve" smooth="yes"/>
			<point x="433.5" y="584.5" type="line" smooth="yes"/>
			<point x="433.5" y="396"/>
			<point x="554" y="221"/>
			<point x="660" y="221" type="qcurve" smooth="yes"/>
			<point x="755" y="221"/>
			<point x="851.5" y="334.5"/>
			<point x="851.5" y="461" type="qcurve" smooth="yes"/>
			<point x="851.5" y="557" type="line"/>
			<point x="1186.5" y="557" type="line"/>
			<point x="1186.5" y="446" type="line" smooth="yes"/>
			<point x="1187" y="226"/>
			<point x="906" y="-19"/>
			<point x="649" y="-19" type="qcurve" smooth="yes"/>
			<point x="372" y="-19"/>
			<point x="55.5" y="317"/>
		</contour>
	</outline>
</glyph>
<glyph name="F" format="2">
  <advance width="955"/>
  <unicode hex="0046"/>
  <anchor x="517.75" y="0" name="bottom"/>
  <anchor x="517.75" y="1456.0" name="top"/>
  <outline>
    <contour>
      <point x="85.0" y="0.0" type="line"/>
      <point x="85.0" y="1456.0" type="line"/>
      <point x="943.0000000000001" y="1456.0" type="line"/>
      <point x="943.0000000000001" y="1174.0" type="line"/>
      <point x="440.0" y="1174.0" type="line"/>
      <point x="440.0" y="845.0" type="line"/>
      <point x="878.0" y="845.0" type="line"/>
      <point x="878.0" y="588.0" type="line"/>
      <point x="440.0" y="588.0" type="line"/>
      <point x="440.0" y="0.0" type="line"/>
    </contour>
  </outline>
</glyph>
<glyph name="G" format="2">
	<unicode hex="0047"/>
	<advance width="1241"/>
	<outline>
		<contour>
			<point x="55" y="689" type="qcurve" smooth="yes"/>
			<point x="55" y="767" type="line" smooth="yes"/>
			<point x="55" y="1115.5"/>
			<point x="380.5" y="1476"/>
			<point x="661.5" y="1476" type="qcurve" smooth="yes"/>
			<point x="914.5" y="1476"/>
			<point x="1179.5" y="1227.5"/>
			<point x="1179.5" y="1024.5" type="qcurve" smooth="yes"/>
			<point x="1179.5" y="976" type="line"/>
			<point x="846.5" y="976" type="line"/>
			<point x="846.5" y="1004.5" type="line" smooth="yes"/>
			<point x="846.5" y="1110"/>
			<point x="747.5" y="1218.5"/>
			<point x="649" y="1218.5" type="qcurve" smooth="yes"/>
			<point x="541.5" y="1218.5"/>
			<point x="423.5" y="1044"/>
			<point x="423.5" y="859" type="qcurve" smooth="yes"/>
			<point x="423.5" y="591" type="line" smooth="yes"/>
			<point x="423.5" y="413.8992"/>
			<point x="552" y="226"/>
			<point x="668.5" y="226" type="qcurve" smooth="yes"/>
			<point x="727" y="226"/>
			<point x="813.5" y="259"/>
			<point x="850" y="292" type="qcurve"/>
			<point x="850" y="536.5" type="line"/>
			<point x="649.5" y="536.5" type="line"/>
			<point x="649.5" y="772.5" type="line"/>
			<point x="1184" y="773.5" type="line"/>
			<point x="1184" y="178.5" type="line"/>
			<point x="1133.5" y="116"/>
			<point x="875" y="-20"/>
			<point x="665" y="-20" type="qcurve" smooth="yes"/>
			<point x="385.5" y="-20"/>
			<point x="55" y="340.5"/>
		</contour>
	</outline>
</glyph>
<glyph name="H" format="2">
  <advance width="1270"/>
  <unicode hex="0048"/>
  <outline>
    <contour>
      <point x="85.0" y="0.0" type="line"/>
      <point x="85.0" y="1456.0" type="line"/>
      <point x="440.0" y="1456.0" type="line"/>
      <point x="440.0" y="902.0" type="line"/>
      <point x="830.0" y="902.0" type="line"/>
      <point x="830.0" y="1456.0" type="line"/>
      <point x="1185.0" y="1456.0" type="line"/>
      <point x="1185.0" y="0.0" type="line"/>
      <point x="830.0" y="0.0" type="line"/>
      <point x="830.0" y="603.5" type="line"/>
      <point x="440.0" y="603.5" type="line"/>
      <point x="440.0" y="0.0" type="line"/>
    </contour>
  </outline>
</glyph>
<glyph name="I" format="2">
  <advance width="544"/>
  <unicode hex="0049"/>
  <outline>
    <contour>
      <point x="91.99999999999999" y="0.0" type="line"/>
      <point x="91.99999999999999" y="1456.0" type="line"/>
      <point x="452.0" y="1456.0" type="line"/>
      <point x="452.0" y="0.0" type="line"/>
    </contour>
  </outline>
</glyph>
<glyph name="J" format="2">
  <advance width="1063"/>
  <unicode hex="004A"/>
  <anchor x="507.5" y="0" name="bottom"/>
  <anchor x="814.5" y="1456.0" name="top"/>
  <outline>
    <contour>
      <point x="25.0" y="465.0" type="qcurve" smooth="yes"/>
      <point x="25.0" y="540.0" type="line"/>
      <point x="339.0" y="540.0" type="line"/>
      <point x="339.0" y="426.5" type="line" smooth="yes"/>
      <point x="339.0" y="322.0"/>
      <point x="409.0" y="220.5"/>
      <point x="485.5" y="220.5" type="qcurve" smooth="yes"/>
      <point x="555.5" y="220.5"/>
      <point x="632.0" y="326.0"/>
      <point x="632.0" y="449.5" type="qcurve" smooth="yes"/>
      <point x="632.0" y="1456.0" type="line"/>
      <point x="987.5" y="1456.0" type="line"/>
      <point x="987.5" y="494.0" type="line" smooth="yes"/>
      <point x="987.5" y="248.0"/>
      <point x="751.5" y="-20.0"/>
      <point x="507.0" y="-20.0" type="qcurve" smooth="yes"/>
      <point x="268.5" y="-20.0"/>
      <point x="25.0" y="214.0"/>
    </contour>
  </outline>
</glyph>
<glyph name="K" format="2">
	<unicode hex="004B"/>
	<advance width="1184"/>
	<outline>
		<contour>
			<point x="85" y="0" type="line"/>
			<point x="85" y="1456" type="line"/>
			<point x="440" y="1456" type="line"/>
			<point x="440" y="910" type="line"/>
			<point x="844" y="1456" type="line"/>
			<point x="1205" y="1456" type="line"/>
			<point x="440" y="471" type="line"/>
			<point x="440" y="0" type="line"/>
		</contour>
		<contour>
			<point x="868" y="0" type="line"/>
			<point x="451" y="676.5" type="line"/>
			<point x="656.5" y="958.5" type="line"/>
			<point x="1265.5" y="0" type="line"/>
		</contour>
	</outline>
</glyph>
<glyph name="L" format="2">
	<unicode hex="004C"/>
	<advance width="999"/>
	<outline>
		<contour>
			<point x="85" y="0" type="line"/>
			<point x="85" y="1456" type="line"/>
			<point x="440" y="1456" type="line"/>
			<point x="440" y="282.5" type="line"/>
			<point x="979" y="282.5" type="line"/>
			<point x="979" y="0" type="line"/>
		</contour>
	</outline>
</glyph>
<glyph name="M" format="2">
  <advance width="1783"/>
  <unicode hex="004D"/>
  <anchor x="891.25" y="0" name="bottom"/>
  <anchor x="891.25" y="1456.0" name="top"/>
  <outline>
    <contour>
      <point x="85.0" y="0.0" type="line"/>
      <point x="85.0" y="1456.0" type="line"/>
      <point x="584.0" y="1456.0" type="line"/>
      <point x="854.5" y="624.0" type="line" smooth="yes"/>
      <point x="864.5" y="589.5"/>
      <point x="882.5" y="523.0"/>
      <point x="889.5" y="486.0" type="qcurve"/>
      <point x="893.5" y="486.0" type="line"/>
      <point x="900.5" y="523.0"/>
      <point x="918.5" y="589.5"/>
      <point x="928.5" y="624.0" type="qcurve" smooth="yes"/>
      <point x="1198.0" y="1456.0" type="line"/>
      <point x="1697.5" y="1456.0" type="line"/>
      <point x="1697.5" y="0.0" type="line"/>
      <point x="1348.5" y="0.0" type="line"/>
      <point x="1348.5" y="851.0" type="line" smooth="yes"/>
      <point x="1348.5" y="885.0"/>
      <point x="1349.0" y="969.0"/>
      <point x="1352.0" y="1003.0" type="qcurve"/>
      <point x="1346.5" y="1003.0" type="line"/>
      <point x="1340.0" y="967.0"/>
      <point x="1320.0" y="886.0"/>
      <point x="1310.5" y="851.0" type="qcurve" smooth="yes"/>
      <point x="1047.5" y="0.0" type="line"/>
      <point x="724.5" y="0.0" type="line"/>
      <point x="459.0" y="851.0" type="line" smooth="yes"/>
      <point x="449.5" y="885.4999999999999"/>
      <point x="427.0" y="980.0"/>
      <point x="424.5" y="1003.0" type="qcurve"/>
      <point x="419.0" y="1003.0" type="line"/>
      <point x="420.0" y="980.5"/>
      <point x="423.5" y="885.0"/>
      <point x="423.5" y="851.0" type="qcurve" smooth="yes"/>
      <point x="423.5" y="0.0" type="line"/>
    </contour>
  </outline>
</glyph>
<glyph name="N" format="2">
  <advance width="1252"/>
  <unicode hex="004E"/>
  <anchor x="626.0" y="0" name="bottom"/>
  <anchor x="626.0" y="1456.0" name="top"/>
  <outline>
    <contour>
      <point x="85.0" y="0.0" type="line"/>
      <point x="85.0" y="1456.0" type="line"/>
      <point x="441.0" y="1456.0" type="line"/>
      <point x="804.0" y="664.0" type="line" smooth="yes"/>
      <point x="817.0" y="631.5"/>
      <point x="841.5" y="556.0"/>
      <point x="849.5" y="524.0" type="qcurve"/>
      <point x="855.0" y="524.0" type="line"/>
      <point x="853.0" y="558.0"/>
      <point x="853.5" y="632.0"/>
      <point x="853.5" y="666.0" type="qcurve" smooth="yes"/>
      <point x="853.5" y="1456.0" type="line"/>
      <point x="1154.5" y="1456.0" type="line"/>
      <point x="1154.5" y="0.0" type="line"/>
      <point x="810.0" y="0.0" type="line"/>
      <point x="434.0" y="801.5" type="line" smooth="yes"/>
      <point x="421.0" y="832.0"/>
      <point x="396.5" y="901.5"/>
      <point x="388.5" y="933.5" type="qcurve"/>
      <point x="383.0" y="933.5" type="line"/>
      <point x="385.5" y="899.5"/>
      <point x="386.0" y="836.5"/>
      <point x="386.0" y="801.5" type="qcurve" smooth="yes"/>
      <point x="386.0" y="0.0" type="line"/>
    </contour>
  </outline>
</glyph>
<glyph name="O" format="2">
  <advance width="1304"/>
  <unicode hex="004F"/>
  <outline>
    <contour>
      <point x="55.0" y="689.0" type="qcurve" smooth="yes"/>
      <point x="55.0" y="767.0" type="line" smooth="yes"/>
      <point x="55.0" y="1141.0"/>
      <point x="389.5" y="1476.0"/>
      <point x="651.5" y="1476.0" type="qcurve" smooth="yes"/>
      <point x="914.5" y="1476.0"/>
      <point x="1248.5" y="1141.0"/>
      <point x="1248.5" y="767.0" type="qcurve" smooth="yes"/>
      <point x="1248.5" y="689.0" type="line" smooth="yes"/>
      <point x="1248.5" y="315.0"/>
      <point x="914.5" y="-20.0"/>
      <point x="651.5" y="-20.0" type="qcurve" smooth="yes"/>
      <point x="389.5" y="-20.0"/>
      <point x="55.0" y="315.0"/>
    </contour>
    <contour>
      <point x="425.0" y="584.0" type="line" smooth="yes"/>
      <point x="425.0" y="386.0"/>
      <point x="545.0" y="221.0"/>
      <point x="651.5" y="221.0" type="qcurve" smooth="yes"/>
      <point x="758.0" y="221.0"/>
      <point x="878.0" y="386.0"/>
      <point x="878.0" y="584.0" type="qcurve" smooth="yes"/>
      <point x="878.0" y="870.0" type="line" smooth="yes"/>
      <point x="878.0" y="1066.5"/>
      <point x="758.0" y="1230.0"/>
      <point x="651.5" y="1230.0" type="qcurve" smooth="yes"/>
      <point x="545.0" y="1230.0"/>
      <point x="425.0" y="1066.5"/>
      <point x="425.0" y="870.0" type="qcurve" smooth="yes"/>
    </contour>
  </outline>
</glyph>
<glyph name="P" format="2">
  <advance width="1181"/>
  <unicode hex="0050"/>
  <anchor x="590.25" y="0" name="bottom"/>
  <anchor x="590.25" y="1456.0" name="top"/>
  <outline>
    <contour>
      <point x="85.0" y="0.0" type="line"/>
      <point x="85.0" y="1456.0" type="line"/>
      <point x="700.0" y="1456.0" type="line" smooth="yes"/>
      <point x="921.0" y="1456.0"/>
      <point x="1152.0" y="1177.5"/>
      <point x="1152.0" y="954.5" type="qcurve" smooth="yes"/>
      <point x="1152.0" y="731.5"/>
      <point x="926.0" y="455.5"/>
      <point x="693.5" y="455.5" type="qcurve" smooth="yes"/>
      <point x="440.0" y="455.5" type="line"/>
      <point x="440.0" y="0.0" type="line"/>
    </contour>
    <contour>
      <point x="440.0" y="695.5" type="line"/>
      <point x="608.5" y="695.5" type="line" smooth="yes"/>
      <point x="713.5" y="695.5"/>
      <point x="797.5" y="842.05278592375"/>
      <point x="797.5" y="946.5" type="qcurve" smooth="yes"/>
      <point x="797.5" y="1053.43255131965"/>
      <point x="713.5" y="1198.5"/>
      <point x="608.5" y="1199.0" type="qcurve" smooth="yes"/>
      <point x="440.0" y="1199.0" type="line"/>
    </contour>
  </outline>
</glyph>
<glyph name="Q" format="2">
  <advance width="1304"/>
  <unicode hex="0051"/>
  <anchor x="651.75" y="0" name="bottom"/>
  <anchor x="651.75" y="1456.0" name="top"/>
  <outline>
    <contour>
      <point x="55.00000000000001" y="689.0" type="qcurve" smooth="yes"/>
      <point x="55.00000000000001" y="767.0" type="line" smooth="yes"/>
      <point x="55.0" y="1136.0"/>
      <point x="389.5" y="1476.0"/>
      <point x="651.5" y="1476.0" type="qcurve" smooth="yes"/>
      <point x="914.5" y="1476.0"/>
      <point x="1248.5" y="1136.0"/>
      <point x="1248.5" y="767.0" type="qcurve" smooth="yes"/>
      <point x="1248.5" y="689.0" type="line" smooth="yes"/>
      <point x="1248.5" y="325.0"/>
      <point x="914.5" y="-20.0"/>
      <point x="651.5" y="-20.0" type="qcurve" smooth="yes"/>
      <point x="389.5" y="-20.0"/>
      <point x="55.0" y="325.0"/>
    </contour>
    <contour>
      <point x="425.0" y="584.0" type="line" smooth="yes"/>
      <point x="425.0" y="390.8729903537"/>
      <point x="545.0" y="220.5"/>
      <point x="651.5" y="220.5" type="qcurve" smooth="yes"/>
      <point x="758.0" y="220.5"/>
      <point x="878.0" y="390.8729903537"/>
      <point x="878.0" y="584.0" type="qcurve" smooth="yes"/>
      <point x="878.0" y="870.0" type="line" smooth="yes"/>
      <point x="878.0" y="1066.5546623794"/>
      <point x="758.0" y="1230.0"/>
      <point x="651.5" y="1230.0" type="qcurve" smooth="yes"/>
      <point x="545.0" y="1230.0"/>
      <point x="425.0" y="1066.5546623794"/>
      <point x="425.0" y="870.0" type="qcurve" smooth="yes"/>
    </contour>
    <contour>
      <point x="1046.5" y="-242.49999999999997" type="line"/>
      <point x="620.5" y="182.5" type="line"/>
      <point x="806.0" y="387.0" type="line"/>
      <point x="1234.5" y="-36.5" type="line"/>
    </contour>
  </outline>
</glyph>
<glyph name="R" format="2">
	<unicode hex="0052"/>
	<advance width="1213"/>
	<outline>
		<contour>
			<point x="85" y="0" type="line"/>
			<point x="85" y="1456" type="line"/>
			<point x="678" y="1456" type="line" smooth="yes"/>
			<point x="886.5" y="1456"/>
			<point x="1129.5" y="1202.5"/>
			<point x="1129.5" y="998" type="qcurve" smooth="yes"/>
			<point x="1129.5" y="787.5"/>
			<point x="871.5" y="520"/>
			<point x="673.5" y="520" type="qcurve" smooth="yes"/>
			<point x="440" y="520" type="line"/>
			<point x="440" y="0" type="line"/>
		</contour>
		<contour>
			<point x="440" y="750" type="line"/>
			<point x="592.5" y="750" type="line" smooth="yes"/>
			<point x="691.5" y="750"/>
			<point x="771" y="877.1686746988"/>
			<point x="771" y="976.5" type="qcurve" smooth="yes"/>
			<point x="771" y="1076.2828746178"/>
			<point x="691.5" y="1204"/>
			<point x="592.5" y="1204.5" type="qcurve" smooth="yes"/>
			<point x="440" y="1204.5" type="line"/>
		</contour>
		<contour>
			<point x="842.5" y="0" type="line"/>
			<point x="524.5" y="667" type="line"/>
			<point x="880.5" y="667" type="line"/>
			<point x="1228.5" y="0" type="line"/>
		</contour>
	</outline>
</glyph>
<glyph name="S" format="2">
  <advance width="1132"/>
  <unicode hex="0053"/>
  <anchor x="567.75" y="0" name="bottom"/>
  <anchor x="554.75" y="1456.0" name="top"/>
  <outline>
    <contour>
      <point x="43.0" y="387.0" type="qcurve" smooth="yes"/>
      <point x="43.0" y="470.5" type="line"/>
      <point x="364.5" y="470.5" type="line"/>
      <point x="364.5" y="418.0" type="line" smooth="yes"/>
      <point x="364.0" y="314.00773993810003"/>
      <point x="471.0" y="214.0"/>
      <point x="567.0" y="214.0" type="qcurve" smooth="yes"/>
      <point x="658.5" y="214.0"/>
      <point x="758.0" y="305.23549488055"/>
      <point x="758.0" y="383.5" type="qcurve" smooth="yes"/>
      <point x="758.0" y="458.5"/>
      <point x="668.5" y="547.0"/>
      <point x="488.0" y="608.0" type="qcurve" smooth="yes"/>
      <point x="271.5" y="680.5"/>
      <point x="60.5" y="881.5"/>
      <point x="60.50000000000001" y="1057.0" type="qcurve" smooth="yes"/>
      <point x="60.5" y="1251.0"/>
      <point x="331.0" y="1475.0"/>
      <point x="556.5" y="1475.0" type="qcurve" smooth="yes"/>
      <point x="780.0" y="1475.0"/>
      <point x="1056.5" y="1273.0"/>
      <point x="1056.5" y="1085.0" type="qcurve" smooth="yes"/>
      <point x="1056.5" y="1019.9999999999999" type="line"/>
      <point x="740.0" y="1019.9999999999999" type="line"/>
      <point x="740.0" y="1056.5" type="line" smooth="yes"/>
      <point x="740.0" y="1140.68729641695"/>
      <point x="649.0" y="1233.5"/>
      <point x="563.5" y="1233.5" type="qcurve" smooth="yes"/>
      <point x="472.0" y="1233.5"/>
      <point x="390.5" y="1152.0"/>
      <point x="390.5" y="1080.5" type="qcurve" smooth="yes"/>
      <point x="390.5" y="1013.0"/>
      <point x="478.5" y="933.5"/>
      <point x="677.5" y="871.5" type="qcurve" smooth="yes"/>
      <point x="878.0" y="809.5"/>
      <point x="1087.5" y="602.0"/>
      <point x="1087.5" y="417.0" type="qcurve" smooth="yes"/>
      <point x="1087.5" y="212.5"/>
      <point x="803.0" y="-20.0"/>
      <point x="572.0" y="-20.0" type="qcurve" smooth="yes"/>
      <point x="340.5" y="-20.0"/>
      <point x="43.0" y="186.0"/>
    </contour>
  </outline>
</glyph>
<glyph name="T" format="2">
	<unicode hex="0054"/>
	<advance width="1136"/>
	<outline>
		<contour>
			<point x="8" y="1173.5" type="line"/>
			<point x="8" y="1456" type="line"/>
			<point x="1128" y="1456" type="line"/>
			<point x="1128" y="1173.5" type="line"/>
			<point x="749" y="1173.5" type="line"/>
			<point x="749" y="0" type="line"/>
			<point x="389" y="0" type="line"/>
			<point x="389" y="1173.5" type="line"/>
		</contour>
	</outline>
</glyph>
<glyph name="U" format="2">
	<unicode hex="0055"/>
	<advance width="1226"/>
	<outline>
		<contour>
			<point x="76" y="531" type="qcurve" smooth="yes"/>
			<point x="76" y="1456" type="line"/>
			<point x="430" y="1456" type="line"/>
			<point x="430" y="480" type="line" smooth="yes"/>
			<point x="430" y="340.1666666667"/>
			<point x="522" y="222.5"/>
			<point x="608.5" y="222.5" type="qcurve" smooth="yes"/>
			<point x="695" y="222.5"/>
			<point x="786.5" y="340.1666666667"/>
			<point x="786.5" y="480" type="qcurve" smooth="yes"/>
			<point x="786.5" y="1456" type="line"/>
			<point x="1142" y="1456" type="line"/>
			<point x="1142" y="531" type="line" smooth="yes"/>
			<point x="1142" y="250"/>
			<point x="865.5" y="-20"/>
			<point x="614" y="-20" type="qcurve" smooth="yes"/>
			<point x="355" y="-20"/>
			<point x="76" y="250"/>
		</contour>
	</outline>
</glyph>
<glyph name="V" format="2">
	<unicode hex="0056"/>
	<advance width="1211"/>
	<outline>
		<contour>
			<point x="-35" y="1456" type="line"/>
			<point x="326" y="1456" type="line"/>
			<point x="589" y="530.5" type="line" smooth="yes"/>
			<point x="594.5" y="511"/>
			<point x="607" y="466"/>
			<point x="611.5" y="447.5" type="qcurve"/>
			<point x="616" y="447.5" type="line"/>
			<point x="620" y="466"/>
			<point x="633" y="514.5"/>
			<point x="637.5" y="530.5" type="qcurve" smooth="yes"/>
			<point x="898.5" y="1456" type="line"/>
			<point x="1246" y="1456" type="line"/>
			<point x="806" y="-8" type="line"/>
			<point x="405" y="-8" type="line"/>
		</contour>
	</outline>
</glyph>
<glyph name="W" format="2">
  <advance width="1875"/>
  <unicode hex="0057"/>
  <anchor x="937.5" y="0" name="bottom"/>
  <anchor x="937.5" y="1456.0" name="top"/>
  <outline>
    <contour>
      <point x="333.0" y="-3.5" type="line"/>
      <point x="-10.0" y="1456.0" type="line"/>
      <point x="332.0" y="1456.0" type="line"/>
      <point x="540.5" y="535.0" type="line" smooth="yes"/>
      <point x="544.0" y="519.5"/>
      <point x="550.0" y="479.0"/>
      <point x="553.0" y="454.0" type="qcurve"/>
      <point x="557.5" y="454.0" type="line"/>
      <point x="561.0" y="478.5"/>
      <point x="569.0" y="519.5"/>
      <point x="572.5" y="535.0" type="qcurve" smooth="yes"/>
      <point x="791.5" y="1456.0" type="line"/>
      <point x="1105.5" y="1456.0" type="line"/>
      <point x="1336.5" y="534.5" type="line" smooth="yes"/>
      <point x="1340.0" y="519.5"/>
      <point x="1346.5" y="480.0"/>
      <point x="1350.5" y="453.5" type="qcurve"/>
      <point x="1355.0" y="453.5" type="line"/>
      <point x="1358.0" y="480.5"/>
      <point x="1364.0" y="520.0"/>
      <point x="1367.0" y="534.5" type="qcurve" smooth="yes"/>
      <point x="1566.5" y="1456.0" type="line"/>
      <point x="1885.0" y="1456.0" type="line"/>
      <point x="1542.0" y="-3.5" type="line"/>
      <point x="1193.5" y="-3.5" type="line"/>
      <point x="959.5" y="919.0" type="line" smooth="yes"/>
      <point x="956.5" y="931.0"/>
      <point x="948.0" y="973.0"/>
      <point x="944.5" y="997.5" type="qcurve"/>
      <point x="940.5" y="997.5" type="line"/>
      <point x="937.0" y="973.0"/>
      <point x="928.5" y="932.0"/>
      <point x="925.5" y="919.0" type="qcurve" smooth="yes"/>
      <point x="691.5" y="-3.5" type="line"/>
    </contour>
  </outline>
</glyph>
<glyph name="X" format="2">
  <advance width="1156"/>
  <unicode hex="0058"/>
  <anchor x="578.0" y="0" name="bottom"/>
  <anchor x="578.0" y="1456.0" name="top"/>
  <outline>
    <contour>
      <point x="-25.0" y="0.0" type="line"/>
      <point x="452.0" y="874.5" type="line"/>
      <point x="526.5" y="874.5" type="line"/>
      <point x="830.0" y="1456.0" type="line"/>
      <point x="1155.5" y="1456.0" type="line"/>
      <point x="708.5" y="627.5" type="line"/>
      <point x="636.5" y="627.5" type="line"/>
      <point x="300.5" y="0.0" type="line"/>
    </contour>
    <contour>
      <point x="-1.0" y="1456.0" type="line"/>
      <point x="385.0" y="1456.0" type="line"/>
      <point x="695.0" y="873.5" type="line"/>
      <point x="695.0" y="873.5" type="line"/>
      <point x="1167.0" y="0.0" type="line"/>
      <point x="780.0" y="0.0" type="line"/>
      <point x="439.5" y="637.5" type="line"/>
      <point x="439.0" y="638.0" type="line"/>
    </contour>
  </outline>
</glyph>
<glyph name="Y" format="2">
  <advance width="1221"/>
  <unicode hex="0059"/>
  <anchor x="610.5" y="0" name="bottom"/>
  <anchor x="632.25" y="1456.0" name="top"/>
  <outline>
    <contour>
      <point x="431.0" y="0.0" type="line"/>
      <point x="431.0" y="567.0" type="line"/>
      <point x="-20.0" y="1456.0" type="line"/>
      <point x="363.5" y="1456.0" type="line"/>
      <point x="594.0" y="989.5" type="line" smooth="yes"/>
      <point x="605.0" y="967.0"/>
      <point x="622.5" y="930.0"/>
      <point x="631.0" y="908.0" type="qcurve"/>
      <point x="635.0" y="908.0" type="line"/>
      <point x="643.0" y="930.0"/>
      <point x="660.0" y="967.0"/>
      <point x="671.0" y="989.5" type="qcurve" smooth="yes"/>
      <point x="898.0" y="1456.0" type="line"/>
      <point x="1241.0" y="1456.0" type="line"/>
      <point x="791.0" y="567.0" type="line"/>
      <point x="791.0" y="0.0" type="line"/>
    </contour>
  </outline>
</glyph>
<glyph name="Z" format="2">
	<unicode hex="005A"/>
	<advance width="1146"/>
	<outline>
		<contour>
			<point x="24" y="0" type="line"/>
			<point x="24" y="189" type="line"/>
			<point x="640.5" y="1175" type="line"/>
			<point x="57" y="1175" type="line"/>
			<point x="57" y="1456" type="line"/>
			<point x="1088" y="1456" type="line"/>
			<point x="1088" y="1257" type="line"/>
			<point x="476.5" y="271" type="line"/>
			<point x="1122" y="271" type="line"/>
			<point x="1122" y="0" type="line"/>
		</contour>
	</outline>
</glyph>
<glyph name="bracketleft" format="2">
  <advance width="693"/>
  <unicode hex="005B"/>
  <outline>
    <contour>
      <point x="109.0" y="-310.0" type="line"/>
      <point x="109.0" y="1456.0" type="line"/>
      <point x="658.5" y="1456.0" type="line"/>
      <point x="658.5" y="1209.5" type="line"/>
      <point x="427.0" y="1209.5" type="line"/>
      <point x="427.0" y="-63.499999999999986" type="line"/>
      <point x="658.5" y="-63.499999999999986" type="line"/>
      <point x="658.5" y="-310.0" type="line"/>
    </contour>
  </outline>
</glyph>
<glyph name="backslash" format="2">
	<unicode hex="005C"/>
	<advance width="723"/>
	<outline>
		<contour>
			<point x="-63" y="1456" type="line"/>
			<point x="239.5" y="1456" type="line"/>
			<point x="785.5" y="-125" type="line"/>
			<point x="483.5" y="-125" type="line"/>
		</contour>
	</outline>
</glyph>
<glyph name="bracketright" format="2">
	<unicode hex="005D"/>
	<advance width="693"/>
	<outline>
		<contour>
			<point x="584" y="-310" type="line"/>
			<point x="34" y="-310" type="line"/>
			<point x="34" y="-63.5" type="line"/>
			<point x="266" y="-63.5" type="line"/>
			<point x="266" y="1209.5" type="line"/>
			<point x="34" y="1209.5" type="line"/>
			<point x="34" y="1456" type="line"/>
			<point x="584" y="1456" type="line"/>
		</contour>
	</outline>
</glyph>
<glyph name="asciicircum" format="2">
	<unicode hex="005E"/>
	<advance width="1153"/>
	<outline>
		<contour>
			<point x="15" y="720" type="line"/>
			<point x="444.5" y="1456" type="line"/>
			<point x="708.5" y="1456" type="line"/>
			<point x="1137.5" y="720" type="line"/>
			<point x="843.5" y="720" type="line"/>
			<point x="576" y="1185.5" type="line"/>
			<point x="309" y="720" type="line"/>
		</contour>
	</outline>
</glyph>
<glyph name="underscore" format="2">
	<unicode hex="005F"/>
	<advance width="944"/>
	<outline>
		<contour>
			<point x="0" y="-371.5" type="line"/>
			<point x="0" y="-124.5" type="line"/>
			<point x="944" y="-124.5" type="line"/>
			<point x="944" y="-371.5" type="line"/>
		</contour>
	</outline>
</glyph>
<glyph name="grave" format="2">
	<unicode hex="0060"/>
	<advance width="1011"/>
	<outline>
		<contour>
			<point x="432.5" y="981" type="line"/>
			<point x="170.5" y="1294" type="line"/>
			<point x="459" y="1385.5" type="line"/>
			<point x="681.5" y="1062.5" type="line"/>
		</contour>
	</outline>
</glyph>
<glyph name="a" format="2">
	<unicode hex="0061"/>
	<advance width="1092"/>
	<outline>
		<contour>
			<point x="30" y="263" type="qcurve" smooth="yes"/>
			<point x="30" y="415"/>
			<point x="239" y="578"/>
			<point x="433" y="578" type="qcurve" smooth="yes"/>
			<point x="669" y="578" type="line"/>
			<point x="669" y="622" type="line" smooth="yes"/>
			<point x="669" y="684"/>
			<point x="609" y="748"/>
			<point x="542" y="748" type="qcurve" smooth="yes"/>
			<point x="477" y="748"/>
			<point x="406" y="693"/>
			<point x="406" y="640" type="qcurve" smooth="yes"/>
			<point x="406" y="619" type="line"/>
			<point x="94" y="621" type="line"/>
			<point x="94" y="646" type="line" smooth="yes"/>
			<point x="94" y="778"/>
			<point x="347" y="938"/>
			<point x="568" y="938" type="qcurve" smooth="yes"/>
			<point x="793" y="938"/>
			<point x="1012" y="782"/>
			<point x="1012" y="607" type="qcurve" smooth="yes"/>
			<point x="1012" y="211" type="line" smooth="yes"/>
			<point x="1012" y="154"/>
			<point x="1031" y="52"/>
			<point x="1052" y="14" type="qcurve"/>
			<point x="1052" y="0" type="line"/>
			<point x="713" y="0" type="line"/>
			<point x="697" y="25"/>
			<point x="679" y="76"/>
			<point x="675" y="103" type="qcurve"/>
			<point x="628" y="42"/>
			<point x="481" y="-13"/>
			<point x="365" y="-13" type="qcurve" smooth="yes"/>
			<point x="215" y="-13"/>
			<point x="30" y="127"/>
		</contour>
		<contour>
			<point x="369" y="297" type="qcurve" smooth="yes"/>
			<point x="369" y="250"/>
			<point x="434" y="193"/>
			<point x="495" y="193" type="qcurve" smooth="yes"/>
			<point x="560" y="193"/>
			<point x="669" y="268"/>
			<point x="669" y="327" type="qcurve"/>
			<point x="669" y="394" type="line"/>
			<point x="546" y="394" type="line" smooth="yes"/>
			<point x="461" y="394"/>
			<point x="369" y="344"/>
		</contour>
	</outline>
</glyph>
<glyph name="b" format="2">
	<unicode hex="0062"/>
	<advance width="1114"/>
	<outline>
		<contour>
			<point x="68" y="0" type="line"/>
			<point x="68" y="1458" type="line"/>
			<point x="410" y="1458" type="line"/>
			<point x="410" y="800" type="line"/>
			<point x="457" y="863.5"/>
			<point x="599" y="939"/>
			<point x="699" y="939" type="qcurve" smooth="yes"/>
			<point x="871" y="939"/>
			<point x="1081" y="684"/>
			<point x="1081" y="484" type="qcurve" smooth="yes"/>
			<point x="1081" y="452" type="line" smooth="yes"/>
			<point x="1081" y="252"/>
			<point x="866" y="-20"/>
			<point x="694" y="-20" type="qcurve" smooth="yes"/>
			<point x="594" y="-20"/>
			<point x="447.5" y="44.5"/>
			<point x="406" y="103" type="qcurve"/>
			<point x="405" y="103" type="line"/>
			<point x="405" y="0" type="line"/>
		</contour>
		<contour>
			<point x="410" y="322" type="line"/>
			<point x="430.5" y="278"/>
			<point x="511.5" y="211.5"/>
			<point x="577.5" y="211.5" type="qcurve" smooth="yes"/>
			<point x="658" y="211.5"/>
			<point x="740.5" y="350.6208226221"/>
			<point x="740.5" y="454.5" type="qcurve" smooth="yes"/>
			<point x="740.5" y="474.5" type="line" smooth="yes"/>
			<point x="740.5" y="577.7595628415"/>
			<point x="658" y="702"/>
			<point x="570.5" y="702" type="qcurve" smooth="yes"/>
			<point x="511.5" y="702"/>
			<point x="429" y="636"/>
			<point x="410" y="592.5" type="qcurve"/>
		</contour>
	</outline>
</glyph>
<glyph name="c" format="2">
	<unicode hex="0063"/>
	<advance width="1007"/>
	<outline>
		<contour>
			<point x="33" y="443.5" type="qcurve" smooth="yes"/>
			<point x="33" y="476.5" type="line" smooth="yes"/>
			<point x="33" y="695.5"/>
			<point x="302.5" y="943"/>
			<point x="533.5" y="943" type="qcurve" smooth="yes"/>
			<point x="754.5" y="943"/>
			<point x="981" y="733.5"/>
			<point x="987.5" y="564" type="qcurve" smooth="yes"/>
			<point x="988.5" y="542" type="line"/>
			<point x="691.5" y="542" type="line"/>
			<point x="691.5" y="554.5" type="line" smooth="yes"/>
			<point x="691.5" y="624"/>
			<point x="617.5" y="699"/>
			<point x="546" y="699" type="qcurve" smooth="yes"/>
			<point x="465.5" y="699"/>
			<point x="377.5" y="593"/>
			<point x="377.5" y="487.5" type="qcurve" smooth="yes"/>
			<point x="377.5" y="433.5" type="line" smooth="yes"/>
			<point x="377.5" y="331"/>
			<point x="463.5" y="214"/>
			<point x="545" y="214" type="qcurve" smooth="yes"/>
			<point x="618.5" y="214"/>
			<point x="694" y="290.5"/>
			<point x="694" y="358.5" type="qcurve" smooth="yes"/>
			<point x="694" y="372.5" type="line"/>
			<point x="989.5" y="372.5" type="line"/>
			<point x="989" y="349.5" type="line" smooth="yes"/>
			<point x="985.5" y="183.5"/>
			<point x="756" y="-23.5"/>
			<point x="536" y="-23.5" type="qcurve" smooth="yes"/>
			<point x="305.5" y="-23.5"/>
			<point x="33" y="226.5"/>
		</contour>
	</outline>
</glyph>
<glyph name="d" format="2">
	<unicode hex="0064"/>
	<advance width="1115"/>
	<outline>
		<contour>
			<point x="33" y="442" type="qcurve" smooth="yes"/>
			<point x="33" y="474" type="line" smooth="yes"/>
			<point x="33" y="674"/>
			<point x="241" y="934"/>
			<point x="415" y="934" type="qcurve" smooth="yes"/>
			<point x="522.5" y="934"/>
			<point x="670.5" y="866"/>
			<point x="712" y="810" type="qcurve"/>
			<point x="712" y="1458" type="line"/>
			<point x="1046.5" y="1458" type="line"/>
			<point x="1046.5" y="0" type="line"/>
			<point x="716.5" y="0" type="line"/>
			<point x="716" y="133" type="line"/>
			<point x="715" y="133" type="line"/>
			<point x="673.5" y="70"/>
			<point x="521.5" y="-20"/>
			<point x="415" y="-20" type="qcurve" smooth="yes"/>
			<point x="236" y="-20"/>
			<point x="33" y="242"/>
		</contour>
		<contour>
			<point x="373.5" y="446.5" type="line" smooth="yes"/>
			<point x="373.5" y="343"/>
			<point x="456.5" y="211"/>
			<point x="544.5" y="211" type="qcurve" smooth="yes"/>
			<point x="603.5" y="211"/>
			<point x="686.5" y="280.5"/>
			<point x="704.5" y="325" type="qcurve"/>
			<point x="704.5" y="596" type="line"/>
			<point x="687" y="640"/>
			<point x="603.5" y="702.5"/>
			<point x="544.5" y="702.5" type="qcurve" smooth="yes"/>
			<point x="456" y="702.5"/>
			<point x="373.5" y="570.5"/>
			<point x="373.5" y="467.5" type="qcurve" smooth="yes"/>
		</contour>
	</outline>
</glyph>
<glyph name="e" format="2">
  <advance width="1063"/>
  <unicode hex="0065"/>
  <outline>
    <contour>
      <point x="38" y="445" type="qcurve" smooth="yes"/>
      <point x="38" y="477" type="line" smooth="yes"/>
      <point x="38" y="690"/>
      <point x="316" y="942"/>
      <point x="551" y="942" type="qcurve" smooth="yes"/>
      <point x="781" y="942"/>
      <point x="1029" y="699"/>
      <point x="1029" y="487" type="qcurve" smooth="yes"/>
      <point x="1029" y="371" type="line"/>
      <point x="237" y="371" type="line"/>
      <point x="237" y="555" type="line"/>
      <point x="698" y="555" type="line"/>
      <point x="698" y="570" type="line" smooth="yes"/>
      <point x="698" y="636"/>
      <point x="620" y="708"/>
      <point x="548" y="708" type="qcurve" smooth="yes"/>
      <point x="465" y="708"/>
      <point x="380" y="592"/>
      <point x="380" y="484" type="qcurve" smooth="yes"/>
      <point x="380" y="443" type="line" smooth="yes"/>
      <point x="380" y="332"/>
      <point x="473" y="212"/>
      <point x="559" y="212" type="qcurve" smooth="yes"/>
      <point x="624" y="212"/>
      <point x="708" y="264"/>
      <point x="731" y="308" type="qcurve"/>
      <point x="1023" y="239" type="line"/>
      <point x="978" y="115"/>
      <point x="758" y="-23"/>
      <point x="562" y="-23" type="qcurve" smooth="yes"/>
      <point x="312" y="-23"/>
      <point x="38" y="227"/>
    </contour>
  </outline>
</glyph>
<glyph name="f" format="2">
  <advance width="667"/>
  <unicode hex="0066"/>
  <anchor x="333.5" y="0" name="bottom"/>
  <anchor x="334.0" y="1467.0" name="top"/>
  <outline>
    <contour>
      <point x="146.5" y="0.0" type="line"/>
      <point x="146.5" y="1078.5" type="line" smooth="yes"/>
      <point x="146.5" y="1275.0"/>
      <point x="382.5" y="1478.0"/>
      <point x="588.0" y="1478.0" type="qcurve" smooth="yes"/>
      <point x="630.5" y="1478.0"/>
      <point x="703.0" y="1468.0"/>
      <point x="741.5" y="1460.0" type="qcurve"/>
      <point x="728.0" y="1211.5" type="line"/>
      <point x="710.0" y="1214.5"/>
      <point x="666.5" y="1222.0"/>
      <point x="637.5" y="1222.0" type="qcurve" smooth="yes"/>
      <point x="562.0" y="1222.0"/>
      <point x="481.0" y="1130.8431734317498"/>
      <point x="481.0" y="1026.0" type="qcurve" smooth="yes"/>
      <point x="481.0" y="861.0" type="line"/>
      <point x="486.0" y="851.0" type="line"/>
      <point x="486.0" y="0.0" type="line"/>
    </contour>
    <contour>
      <point x="0.5" y="668.0" type="line"/>
      <point x="0.5" y="914.0" type="line"/>
      <point x="207.99999999999997" y="914.0" type="line"/>
      <point x="226.0" y="914.0" type="line"/>
      <point x="667.0" y="914.0" type="line"/>
      <point x="667.0" y="668.0" type="line"/>
    </contour>
  </outline>
</glyph>
<glyph name="g" format="2">
  <advance width="1114"/>
  <unicode hex="0067"/>
  <outline>
    <contour>
      <point x="76.0" y="-347.5" type="qcurve"/>
      <point x="126.5" y="-115.5" type="line"/>
      <point x="170.5" y="-148.5"/>
      <point x="364.0" y="-215.0"/>
      <point x="456.0" y="-215.0" type="qcurve" smooth="yes"/>
      <point x="550.0" y="-215.0"/>
      <point x="709.0" y="-109.0"/>
      <point x="709.0" y="30.0" type="qcurve" smooth="yes"/>
      <point x="709.0" y="128.0" type="line"/>
      <point x="664.0" y="66.0"/>
      <point x="527.5" y="-12.0"/>
      <point x="408.0" y="-12.0" type="qcurve" smooth="yes"/>
      <point x="237.5" y="-12.0"/>
      <point x="33.0" y="242.0"/>
      <point x="33.0" y="442.0" type="qcurve" smooth="yes"/>
      <point x="33.0" y="474.0" type="line" smooth="yes"/>
      <point x="33.0" y="674.0"/>
      <point x="227.5" y="934.0"/>
      <point x="407.5" y="934.0" type="qcurve" smooth="yes"/>
      <point x="503.0" y="934.0"/>
      <point x="663.0" y="854.0"/>
      <point x="704.0" y="792.0" type="qcurve"/>
      <point x="706.5" y="792.0" type="line"/>
      <point x="707.0" y="914.0" type="line"/>
      <point x="1046.0" y="914.0" type="line"/>
      <point x="1046.0" y="95.0" type="line" smooth="yes"/>
      <point x="1046.0" y="-166.5"/>
      <point x="769.0" y="-443.5"/>
      <point x="526.5" y="-443.5" type="qcurve" smooth="yes"/>
      <point x="386.0" y="-443.5"/>
      <point x="154.0" y="-386.0"/>
    </contour>
    <contour>
      <point x="373.0" y="446.5" type="line" smooth="yes"/>
      <point x="373.0" y="343.0"/>
      <point x="456.0" y="215.0"/>
      <point x="544.5" y="215.0" type="qcurve" smooth="yes"/>
      <point x="603.5" y="215.0"/>
      <point x="687.0" y="283.0"/>
      <point x="704.5" y="327.5" type="qcurve"/>
      <point x="704.5" y="591.0" type="line"/>
      <point x="686.5" y="635.0"/>
      <point x="603.5" y="702.5"/>
      <point x="544.5" y="702.5" type="qcurve" smooth="yes"/>
      <point x="456.0" y="702.5"/>
      <point x="373.0" y="570.5"/>
      <point x="373.0" y="467.5" type="qcurve" smooth="yes"/>
    </contour>
  </outline>
</glyph>
<glyph name="h" format="2">
  <advance width="1090"/>
  <unicode hex="0068"/>
  <outline>
    <contour>
      <point x="68.0" y="0.0" type="line"/>
      <point x="68.0" y="1457.0" type="line"/>
      <point x="410.5" y="1457.0" type="line"/>
      <point x="411.0" y="791.5" type="line"/>
      <point x="444.0" y="857.0"/>
      <point x="599.5" y="938.5"/>
      <point x="714.0" y="938.5" type="qcurve" smooth="yes"/>
      <point x="855.5" y="938.5"/>
      <point x="1030.0" y="783.0"/>
      <point x="1030.0" y="606.0" type="qcurve" smooth="yes"/>
      <point x="1030.0" y="0.0" type="line"/>
      <point x="686.0" y="0.0" type="line"/>
      <point x="686.0" y="542.0" type="line" smooth="yes"/>
      <point x="686.0" y="619.3320158102999"/>
      <point x="621.0" y="685.5"/>
      <point x="562.5" y="685.5" type="qcurve" smooth="yes"/>
      <point x="511.5" y="685.5"/>
      <point x="432.5" y="623.0"/>
      <point x="411.5" y="574.5" type="qcurve"/>
      <point x="411.5" y="0.0" type="line"/>
    </contour>
  </outline>
</glyph>
<glyph name="i" format="2">
  <advance width="492"/>
  <unicode hex="0069"/>
  <outline>
    <contour>
      <point x="71.0" y="0.0" type="line"/>
      <point x="71.0" y="914.0" type="line"/>
      <point x="421.0" y="914.0" type="line"/>
      <point x="421.0" y="0.0" type="line"/>
    </contour>
    <contour>
      <point x="54.0" y="1239.0" type="qcurve" smooth="yes"/>
      <point x="54.0" y="1312.0"/>
      <point x="154.5" y="1412.5"/>
      <point x="247.5" y="1412.5" type="qcurve" smooth="yes"/>
      <point x="340.0" y="1412.5"/>
      <point x="438.0" y="1314.0"/>
      <point x="438.0" y="1239.0" type="qcurve" smooth="yes"/>
      <point x="438.0" y="1166.5"/>
      <point x="337.0" y="1063.0"/>
      <point x="244.5" y="1063.0" type="qcurve" smooth="yes"/>
      <point x="152.0" y="1063.0"/>
      <point x="54.0" y="1166.5"/>
    </contour>
  </outline>
</glyph>
<glyph name="j" format="2">
	<unicode hex="006A"/>
	<advance width="513"/>
	<outline>
		<contour>
			<point x="-170" y="-417" type="qcurve"/>
			<point x="-176.5" y="-168" type="line"/>
			<point x="-158" y="-172.5"/>
			<point x="-94" y="-186.5"/>
			<point x="-46.5" y="-186.5" type="qcurve" smooth="yes"/>
			<point x="28.5" y="-186.5"/>
			<point x="94" y="-103.7245762712"/>
			<point x="94" y="18" type="qcurve" smooth="yes"/>
			<point x="94" y="914" type="line"/>
			<point x="441.5" y="914" type="line"/>
			<point x="441.5" y="-16.5" type="line" smooth="yes"/>
			<point x="441.5" y="-236"/>
			<point x="232.5" y="-438"/>
			<point x="23.5" y="-438" type="qcurve" smooth="yes"/>
			<point x="-29" y="-438"/>
			<point x="-138.5" y="-424"/>
		</contour>
		<contour>
			<point x="76" y="1239" type="qcurve" smooth="yes"/>
			<point x="76" y="1312"/>
			<point x="176.5" y="1412.5"/>
			<point x="269.5" y="1412.5" type="qcurve" smooth="yes"/>
			<point x="362" y="1412.5"/>
			<point x="460" y="1314"/>
			<point x="460" y="1239" type="qcurve" smooth="yes"/>
			<point x="460" y="1166.5"/>
			<point x="359" y="1063"/>
			<point x="266.5" y="1063" type="qcurve" smooth="yes"/>
			<point x="174" y="1063"/>
			<point x="76" y="1166.5"/>
		</contour>
	</outline>
</glyph>
<glyph name="k" format="2">
  <advance width="1115"/>
  <unicode hex="006B"/>
  <outline>
    <contour>
      <point x="68.0" y="0.0" type="line"/>
      <point x="68.0" y="1458.0" type="line"/>
      <point x="411.5" y="1458.0" type="line"/>
      <point x="411.5" y="605.0" type="line"/>
      <point x="686.0" y="914.0" type="line"/>
      <point x="1080.0" y="914.0" type="line"/>
      <point x="411.5" y="229.5" type="line"/>
      <point x="411.5" y="0.0" type="line"/>
    </contour>
    <contour>
      <point x="728.5" y="0.0" type="line"/>
      <point x="435.5" y="434.5" type="line"/>
      <point x="646.5" y="666.5" type="line"/>
      <point x="1130.5" y="0.0" type="line"/>
    </contour>
  </outline>
</glyph>
<glyph name="l" format="2">
  <advance width="483"/>
  <unicode hex="006C"/>
  <outline>
    <contour>
      <point x="67.99999999999999" y="0.0" type="line"/>
      <point x="67.99999999999999" y="1458.0" type="line"/>
      <point x="415.0" y="1458.0" type="line"/>
      <point x="415.0" y="0.0" type="line"/>
    </contour>
  </outline>
</glyph>
<glyph name="m" format="2">
  <advance width="1687"/>
  <unicode hex="006D"/>
  <outline>
    <contour>
      <point x="68.0" y="-0.5" type="line"/>
      <point x="68.0" y="913.5" type="line"/>
      <point x="405.0" y="913.5" type="line"/>
      <point x="405.0" y="778.0" type="line"/>
      <point x="407.5" y="778.0" type="line"/>
      <point x="455.5" y="852.5"/>
      <point x="609.0" y="937.0"/>
      <point x="714.0" y="937.0" type="qcurve" smooth="yes"/>
      <point x="815.0" y="937.0"/>
      <point x="959.5" y="854.5"/>
      <point x="986.5" y="773.0" type="qcurve"/>
      <point x="988.5" y="773.0" type="line"/>
      <point x="1041.0" y="851.0"/>
      <point x="1216.5" y="938.0"/>
      <point x="1326.5" y="938.0" type="qcurve" smooth="yes"/>
      <point x="1463.0" y="938.0"/>
      <point x="1628.0" y="786.5"/>
      <point x="1628.0" y="608.5" type="qcurve" smooth="yes"/>
      <point x="1628.0" y="-0.5" type="line"/>
      <point x="1283.0" y="-0.5" type="line"/>
      <point x="1283.0" y="548.0" type="line" smooth="yes"/>
      <point x="1283.0" y="625.70356319185"/>
      <point x="1222.0" y="685.5"/>
      <point x="1165.5" y="685.5" type="qcurve" smooth="yes"/>
      <point x="1115.5" y="685.5"/>
      <point x="1042.5" y="622.0"/>
      <point x="1020.0" y="573.0" type="qcurve"/>
      <point x="1020.0" y="-0.5" type="line"/>
      <point x="675.0" y="-0.5" type="line"/>
      <point x="675.0" y="548.0" type="line" smooth="yes"/>
      <point x="675.0" y="625.2241535239"/>
      <point x="613.0" y="685.5"/>
      <point x="556.0" y="685.5" type="qcurve" smooth="yes"/>
      <point x="506.5" y="685.5"/>
      <point x="434.0" y="621.0"/>
      <point x="411.5" y="572.5" type="qcurve"/>
      <point x="411.5" y="-0.5" type="line"/>
    </contour>
  </outline>
</glyph>
<glyph name="n" format="2">
  <advance width="1090"/>
  <unicode hex="006E"/>
  <outline>
    <contour>
      <point x="68.0" y="0.0" type="line"/>
      <point x="68.0" y="914.0" type="line"/>
      <point x="408.0" y="914.0" type="line"/>
      <point x="408.0" y="787.0" type="line"/>
      <point x="410.5" y="787.0" type="line"/>
      <point x="445.5" y="856.0"/>
      <point x="599.5" y="938.5"/>
      <point x="714.0" y="938.5" type="qcurve" smooth="yes"/>
      <point x="855.5" y="938.5"/>
      <point x="1030.0" y="783.0"/>
      <point x="1030.0" y="606.0" type="qcurve" smooth="yes"/>
      <point x="1030.0" y="0.0" type="line"/>
      <point x="686.5" y="0.0" type="line"/>
      <point x="686.5" y="541.0" type="line" smooth="yes"/>
      <point x="686.5" y="618.5"/>
      <point x="621.0" y="685.5"/>
      <point x="562.5" y="685.5" type="qcurve" smooth="yes"/>
      <point x="511.5" y="685.5"/>
      <point x="433.0" y="623.5"/>
      <point x="411.5" y="573.5" type="qcurve"/>
      <point x="411.5" y="0.0" type="line"/>
    </contour>
  </outline>
</glyph>
<glyph name="o" format="2">
  <advance width="1115"/>
  <unicode hex="006F"/>
  <outline>
    <contour>
      <point x="33.0" y="443.5" type="qcurve" smooth="yes"/>
      <point x="33.0" y="476.0" type="line" smooth="yes"/>
      <point x="33.0" y="685.0"/>
      <point x="319.5" y="943.0"/>
      <point x="557.5" y="943.0" type="qcurve" smooth="yes"/>
      <point x="796.5" y="943.0"/>
      <point x="1082.0" y="685.0"/>
      <point x="1082.0" y="476.0" type="qcurve" smooth="yes"/>
      <point x="1082.0" y="443.5" type="line" smooth="yes"/>
      <point x="1082.0" y="233.0"/>
      <point x="796.5" y="-23.5"/>
      <point x="557.5" y="-23.5" type="qcurve" smooth="yes"/>
      <point x="318.5" y="-23.5"/>
      <point x="33.0" y="233.0"/>
    </contour>
    <contour>
      <point x="377.5" y="487.0" type="qcurve" smooth="yes"/>
      <point x="377.5" y="434.0" type="line" smooth="yes"/>
      <point x="377.5" y="337.0"/>
      <point x="468.0" y="214.0"/>
      <point x="555.0" y="214.0" type="qcurve" smooth="yes"/>
      <point x="643.0" y="214.0"/>
      <point x="733.5" y="337.0"/>
      <point x="733.5" y="434.5" type="qcurve" smooth="yes"/>
      <point x="733.5" y="487.0" type="line" smooth="yes"/>
      <point x="733.5" y="582.5"/>
      <point x="643.0" y="702.0"/>
      <point x="555.0" y="702.0" type="qcurve" smooth="yes"/>
      <point x="468.0" y="702.0"/>
      <point x="377.5" y="582.5"/>
    </contour>
  </outline>
</glyph>
<glyph name="p" format="2">
  <advance width="1113"/>
  <unicode hex="0070"/>
  <outline>
    <contour>
      <point x="68.0" y="-430.0" type="line"/>
      <point x="68.0" y="914.0" type="line"/>
      <point x="403.5" y="914.0" type="line"/>
      <point x="403.5" y="802.5" type="line"/>
      <point x="406.0" y="803.0" type="line"/>
      <point x="443.5" y="860.5"/>
      <point x="597.0" y="939.5"/>
      <point x="698.0" y="939.5" type="qcurve" smooth="yes"/>
      <point x="874.0" y="939.5"/>
      <point x="1080.0" y="699.0"/>
      <point x="1080.0" y="479.0" type="qcurve" smooth="yes"/>
      <point x="1080.0" y="447.0" type="line" smooth="yes"/>
      <point x="1080.0" y="233.0"/>
      <point x="868.0" y="-20.0"/>
      <point x="693.0" y="-20.0" type="qcurve" smooth="yes"/>
      <point x="591.0" y="-20.0"/>
      <point x="457.0" y="44.0"/>
      <point x="410.0" y="96.0" type="qcurve"/>
      <point x="410.0" y="-430.0" type="line"/>
    </contour>
    <contour>
      <point x="410.0" y="323.5" type="line"/>
      <point x="428.5" y="279.0"/>
      <point x="510.5" y="211.0"/>
      <point x="569.5" y="211.0" type="qcurve" smooth="yes"/>
      <point x="656.5" y="211.0"/>
      <point x="740.0" y="337.6484375"/>
      <point x="740.0" y="435.0" type="qcurve" smooth="yes"/>
      <point x="740.0" y="487.0" type="line" smooth="yes"/>
      <point x="740.0" y="586.7897574123999"/>
      <point x="656.0" y="702.5"/>
      <point x="571.5" y="702.5" type="qcurve" smooth="yes"/>
      <point x="510.5" y="702.5"/>
      <point x="427.5" y="635.5"/>
      <point x="410.0" y="591.0" type="qcurve"/>
    </contour>
  </outline>
</glyph>
<glyph name="q" format="2">
  <advance width="1115"/>
  <unicode hex="0071"/>
  <outline>
    <contour>
      <point x="33.0" y="442.0" type="qcurve" smooth="yes"/>
      <point x="33.0" y="474.00000000000006" type="line" smooth="yes"/>
      <point x="33.0" y="674.0"/>
      <point x="240.99999999999997" y="934.0"/>
      <point x="415.99999999999994" y="934.0" type="qcurve" smooth="yes"/>
      <point x="535.0" y="934.0"/>
      <point x="678.0" y="856.5"/>
      <point x="716.0" y="801.0" type="qcurve"/>
      <point x="717.0" y="801.0" type="line"/>
      <point x="717.0" y="914.0" type="line"/>
      <point x="1046.5" y="914.0" type="line"/>
      <point x="1046.5" y="-431.0" type="line"/>
      <point x="711.0" y="-431.0" type="line"/>
      <point x="711.0" y="126.5" type="line"/>
      <point x="713.0" y="126.5" type="line"/>
      <point x="667.5" y="64.0"/>
      <point x="517.0" y="-20.0"/>
      <point x="410.99999999999994" y="-20.0" type="qcurve" smooth="yes"/>
      <point x="233.5" y="-20.0"/>
      <point x="33.0" y="242.0"/>
    </contour>
    <contour>
      <point x="373.0" y="446.5" type="line" smooth="yes"/>
      <point x="373.0" y="343.16931216930004"/>
      <point x="456.0" y="211.0"/>
      <point x="544.5" y="211.0" type="qcurve" smooth="yes"/>
      <point x="603.5" y="211.0"/>
      <point x="686.5" y="279.5"/>
      <point x="704.0" y="324.0" type="qcurve"/>
      <point x="704.0" y="595.5" type="line"/>
      <point x="686.0" y="639.5"/>
      <point x="603.5" y="702.5"/>
      <point x="544.5" y="702.5" type="qcurve" smooth="yes"/>
      <point x="456.0" y="702.5"/>
      <point x="373.0" y="570.3324468085"/>
      <point x="373.0" y="467.5" type="qcurve" smooth="yes"/>
    </contour>
  </outline>
</glyph>
<glyph name="r" format="2">
	<unicode hex="0072"/>
	<advance width="754"/>
	<outline>
		<contour>
			<point x="68" y="0" type="line"/>
			<point x="68" y="914" type="line"/>
			<point x="415" y="914" type="line"/>
			<point x="415" y="786" type="line"/>
			<point x="416" y="786" type="line"/>
			<point x="456" y="850"/>
			<point x="583" y="930"/>
			<point x="664" y="930" type="qcurve" smooth="yes"/>
			<point x="695" y="930"/>
			<point x="749" y="922.5"/>
			<point x="759" y="918.5" type="qcurve"/>
			<point x="759" y="669.5" type="line"/>
			<point x="740.5" y="677"/>
			<point x="686" y="684.5"/>
			<point x="653" y="684.5" type="qcurve" smooth="yes"/>
			<point x="588" y="684.5"/>
			<point x="458" y="601.5"/>
			<point x="420" y="532" type="qcurve"/>
			<point x="420" y="0" type="line"/>
		</contour>
	</outline>
</glyph>
<glyph name="s" format="2">
	<unicode hex="0073"/>
	<advance width="1007"/>
	<outline>
		<contour>
			<point x="45" y="298" type="line"/>
			<point x="345" y="294" type="line"/>
			<point x="345" y="274" type="line" smooth="yes"/>
			<point x="345" y="209.5"/>
			<point x="427.5" y="160.5"/>
			<point x="498" y="160.5" type="qcurve" smooth="yes"/>
			<point x="571.5" y="160.5"/>
			<point x="645.5" y="206.9719101124"/>
			<point x="645.5" y="254" type="qcurve" smooth="yes"/>
			<point x="645.5" y="298.4441624365"/>
			<point x="581.3918757905" y="341.0295539506"/>
			<point x="416.5" y="374" type="qcurve" smooth="yes"/>
			<point x="222.4250851759" y="410.5201495044"/>
			<point x="65.5" y="543.5"/>
			<point x="65.5" y="663.5" type="qcurve" smooth="yes"/>
			<point x="65.5" y="786"/>
			<point x="311" y="942.5"/>
			<point x="506.5" y="942.5" type="qcurve" smooth="yes"/>
			<point x="701.5" y="942.5"/>
			<point x="941" y="779.5"/>
			<point x="941" y="647" type="qcurve" smooth="yes"/>
			<point x="941" y="625.5" type="line"/>
			<point x="642" y="625.5" type="line"/>
			<point x="642" y="646.5" type="line" smooth="yes"/>
			<point x="642" y="703.5"/>
			<point x="567" y="747"/>
			<point x="498" y="747" type="qcurve" smooth="yes"/>
			<point x="431.5" y="747"/>
			<point x="365.5" y="707"/>
			<point x="365.5" y="668" type="qcurve" smooth="yes"/>
			<point x="365.5" y="624.5"/>
			<point x="440" y="582"/>
			<point x="593.5" y="554.5" type="qcurve" smooth="yes"/>
			<point x="784" y="521.5"/>
			<point x="966.5" y="393.4104477612"/>
			<point x="966.5" y="270" type="qcurve" smooth="yes"/>
			<point x="966.5" y="141"/>
			<point x="736.5" y="-23.5"/>
			<point x="506.5" y="-23.5" type="qcurve" smooth="yes"/>
			<point x="277.5" y="-23.5"/>
			<point x="50.5" y="142.5"/>
			<point x="45.5" y="279" type="qcurve" smooth="yes"/>
		</contour>
	</outline>
</glyph>
<glyph name="t" format="2">
	<unicode hex="0074"/>
	<advance width="706"/>
	<outline>
		<contour>
			<point x="2.5" y="668" type="line"/>
			<point x="2.5" y="914" type="line"/>
			<point x="683.5" y="914" type="line"/>
			<point x="683.5" y="668" type="line"/>
		</contour>
		<contour>
			<point x="146" y="288" type="qcurve" smooth="yes"/>
			<point x="146" y="872" type="line"/>
			<point x="156" y="883" type="line"/>
			<point x="156" y="1222" type="line"/>
			<point x="482.5" y="1222" type="line"/>
			<point x="482.5" y="377" type="line" smooth="yes"/>
			<point x="482.5" y="276"/>
			<point x="533" y="220"/>
			<point x="589.5" y="220" type="qcurve" smooth="yes"/>
			<point x="616.5" y="220"/>
			<point x="663.5" y="226.5"/>
			<point x="685.5" y="235" type="qcurve"/>
			<point x="685.5" y="5.5" type="line"/>
			<point x="656.5" y="-3"/>
			<point x="539" y="-20"/>
			<point x="448" y="-20" type="qcurve" smooth="yes"/>
			<point x="300.5" y="-20"/>
			<point x="146" y="124.5"/>
		</contour>
	</outline>
</glyph>
<glyph name="u" format="2">
	<unicode hex="0075"/>
	<advance width="1090"/>
	<outline>
		<contour>
			<point x="60" y="308.5" type="qcurve" smooth="yes"/>
			<point x="60" y="914" type="line"/>
			<point x="403.5" y="914" type="line"/>
			<point x="403.5" y="362.5" type="line" smooth="yes"/>
			<point x="403.5" y="284.7983539094"/>
			<point x="468.5" y="223"/>
			<point x="527" y="223" type="qcurve" smooth="yes"/>
			<point x="578" y="223"/>
			<point x="654.5" y="286.5"/>
			<point x="678" y="336.5" type="qcurve"/>
			<point x="678" y="914" type="line"/>
			<point x="1022" y="914" type="line"/>
			<point x="1022" y="0" type="line"/>
			<point x="682.5" y="0" type="line"/>
			<point x="681" y="129" type="line"/>
			<point x="680.5" y="129" type="line"/>
			<point x="643.5" y="60.5"/>
			<point x="490" y="-24.5"/>
			<point x="376" y="-24.5" type="qcurve" smooth="yes"/>
			<point x="234" y="-24.5"/>
			<point x="60" y="131"/>
		</contour>
	</outline>
</glyph>
<glyph name="w" format="2">
  <advance width="1605"/>
  <unicode hex="0077"/>
  <anchor x="802.25" y="0" name="bottom"/>
  <anchor x="802.25" y="914.0" name="top"/>
  <outline>
    <contour>
      <point x="0.0" y="914.0" type="line"/>
      <point x="324.0" y="914.0" type="line"/>
      <point x="456.5" y="448.5" type="line" smooth="yes"/>
      <point x="466.5" y="414.0"/>
      <point x="479.0" y="363.5"/>
      <point x="485.0" y="337.5" type="qcurve"/>
      <point x="490.0" y="337.5" type="line"/>
      <point x="496.5" y="363.5"/>
      <point x="511.5" y="414.0"/>
      <point x="521.5" y="448.5" type="qcurve" smooth="yes"/>
      <point x="663.5" y="914.0" type="line"/>
      <point x="970.0" y="914.0" type="line"/>
      <point x="1111.0" y="444.0" type="line" smooth="yes"/>
      <point x="1121.0" y="410.5"/>
      <point x="1135.5" y="359.5"/>
      <point x="1141.5" y="336.0" type="qcurve"/>
      <point x="1146.5" y="336.0" type="line"/>
      <point x="1152.5" y="360.0"/>
      <point x="1166.5" y="413.5"/>
      <point x="1175.0" y="444.0" type="qcurve" smooth="yes"/>
      <point x="1304.5" y="914.0" type="line"/>
      <point x="1604.5" y="914.0" type="line"/>
      <point x="1329.5" y="0.0" type="line"/>
      <point x="986.5" y="0.0" type="line"/>
      <point x="828.5" y="485.5" type="line" smooth="yes"/>
      <point x="821.5" y="508.0"/>
      <point x="810.0" y="547.0"/>
      <point x="804.5" y="570.5" type="qcurve"/>
      <point x="800.5" y="570.5" type="line"/>
      <point x="794.5" y="547.0"/>
      <point x="784.5" y="508.5"/>
      <point x="777.0" y="485.5" type="qcurve" smooth="yes"/>
      <point x="624.0" y="0.0" type="line"/>
      <point x="275.5" y="0.0" type="line"/>
    </contour>
  </outline>
</glyph>
<glyph name="y" format="2">
	<unicode hex="0079"/>
	<advance width="1040"/>
	<outline>
		<contour>
			<point x="-13.5" y="-410" type="qcurve"/>
			<point x="17" y="-192.5" type="line"/>
			<point x="50.5" y="-199.5"/>
			<point x="118" y="-206"/>
			<point x="153" y="-206" type="qcurve" smooth="yes"/>
			<point x="233.5" y="-206.5"/>
			<point x="324.5" y="-113"/>
			<point x="361.5" y="-3.5" type="qcurve"/>
			<point x="361.5" y="-3" type="line"/>
			<point x="-5" y="914" type="line"/>
			<point x="327" y="914" type="line"/>
			<point x="497" y="422.5" type="line" smooth="yes"/>
			<point x="506.5" y="396"/>
			<point x="519.5" y="357"/>
			<point x="525.5" y="336" type="qcurve"/>
			<point x="530" y="336" type="line"/>
			<point x="536" y="357"/>
			<point x="549" y="396.5"/>
			<point x="559" y="424" type="qcurve" smooth="yes"/>
			<point x="740.5" y="914" type="line"/>
			<point x="1046" y="914" type="line"/>
			<point x="682.5" y="-22" type="line" smooth="yes"/>
			<point x="589.5" y="-261"/>
			<point x="389.5" y="-436"/>
			<point x="225.5" y="-436" type="qcurve" smooth="yes"/>
			<point x="137" y="-436"/>
			<point x="25.5" y="-421"/>
		</contour>
	</outline>
</glyph>
<glyph name="z" format="2">
  <advance width="886"/>
  <unicode hex="007A"/>
  <outline>
    <contour>
      <point x="12.5" y="0.0" type="line"/>
      <point x="12.5" y="185.0" type="line"/>
      <point x="419.0" y="669.0" type="line"/>
      <point x="26.5" y="669.0" type="line"/>
      <point x="26.5" y="914.0" type="line"/>
      <point x="845.5" y="914.0" type="line"/>
      <point x="845.5" y="719.0" type="line"/>
      <point x="439.5" y="235.0" type="line"/>
      <point x="873.5" y="235.0" type="line"/>
      <point x="873.5" y="0.0" type="line"/>
    </contour>
  </outline>
</glyph>
<glyph name="braceleft" format="2">
	<unicode hex="007B"/>
	<advance width="762"/>
	<outline>
		<contour>
			<point x="728.5" y="-312" type="line"/>
			<point x="387" y="-322"/>
			<point x="149" y="-84.5"/>
			<point x="197.5" y="110" type="qcurve" smooth="yes"/>
			<point x="244.5" y="306.5" type="line" smooth="yes"/>
			<point x="264.8578765252" y="394.5078685817"/>
			<point x="153.5" y="447"/>
			<point x="52" y="447" type="qcurve"/>
			<point x="52" y="701" type="line"/>
			<point x="153.5" y="701"/>
			<point x="264.8578765252" y="753.4921314183"/>
			<point x="244.5" y="841.5" type="qcurve" smooth="yes"/>
			<point x="197.5" y="1038" type="line" smooth="yes"/>
			<point x="150" y="1228"/>
			<point x="387" y="1465"/>
			<point x="728.5" y="1460" type="qcurve"/>
			<point x="728.5" y="1224" type="line"/>
			<point x="600" y="1224"/>
			<point x="480.0915727697" y="1109.5337568688"/>
			<point x="506" y="1000.5" type="qcurve" smooth="yes"/>
			<point x="553" y="814" type="line" smooth="yes"/>
			<point x="575" y="730"/>
			<point x="499" y="603.5"/>
			<point x="400" y="574" type="qcurve"/>
			<point x="499" y="544.5"/>
			<point x="574.5" y="418"/>
			<point x="553" y="334" type="qcurve" smooth="yes"/>
			<point x="506" y="147.5" type="line" smooth="yes"/>
			<point x="480.0915727697" y="38.4662431312"/>
			<point x="600" y="-76"/>
			<point x="728.5" y="-76" type="qcurve"/>
		</contour>
	</outline>
</glyph>
<glyph name="bar" format="2">
  <advance width="644"/>
  <unicode hex="007C"/>
  <outline>
    <contour>
      <point x="147.0" y="-416.0" type="line"/>
      <point x="147.0" y="1456.0" type="line"/>
      <point x="497.0" y="1456.0" type="line"/>
      <point x="497.0" y="-416.0" type="line"/>
    </contour>
  </outline>
</glyph>
<glyph name="braceright" format="2">
	<unicode hex="007D"/>
	<advance width="762"/>
	<outline>
		<contour>
			<point x="32.5" y="-313" type="qcurve"/>
			<point x="32.5" y="-77" type="line"/>
			<point x="160.5" y="-77"/>
			<point x="281.3832792243" y="37.5796766903"/>
			<point x="255.5" y="146.5" type="qcurve" smooth="yes"/>
			<point x="208.5" y="333" type="line" smooth="yes"/>
			<point x="187" y="417"/>
			<point x="262.5" y="543.5"/>
			<point x="361.5" y="573" type="qcurve"/>
			<point x="262.5" y="602.5"/>
			<point x="187" y="729"/>
			<point x="208.5" y="813" type="qcurve" smooth="yes"/>
			<point x="255.5" y="999.5" type="line" smooth="yes"/>
			<point x="281.3832792243" y="1108.4203233097"/>
			<point x="160.5" y="1223"/>
			<point x="32.5" y="1223" type="qcurve"/>
			<point x="32.5" y="1459" type="line"/>
			<point x="375" y="1469"/>
			<point x="611.5" y="1231.5"/>
			<point x="564.5" y="1037" type="qcurve" smooth="yes"/>
			<point x="517" y="840.5" type="line" smooth="yes"/>
			<point x="496.3369574407" y="752.4465620299"/>
			<point x="607.5" y="700"/>
			<point x="709" y="700" type="qcurve"/>
			<point x="709" y="446.5" type="line"/>
			<point x="607.5" y="446.5"/>
			<point x="496.2713925122" y="393.8430164045"/>
			<point x="517" y="305.5" type="qcurve" smooth="yes"/>
			<point x="564.5" y="109" type="line" smooth="yes"/>
			<point x="610.5" y="-81"/>
			<point x="375" y="-318"/>
		</contour>
	</outline>
</glyph>
<glyph name="asciitilde" format="2">
  <advance width="1220"/>
  <unicode hex="007E"/>
  <outline>
    <contour>
      <point x="108.5" y="428.0" type="qcurve"/>
      <point x="108.5" y="759.5" type="line"/>
      <point x="155.49999999999997" y="822.5"/>
      <point x="275.5" y="885.0"/>
      <point x="353.5" y="886.0" type="qcurve" smooth="yes"/>
      <point x="407.0" y="886.5"/>
      <point x="543.5" y="849.0"/>
      <point x="620.5" y="819.0" type="qcurve" smooth="yes"/>
      <point x="700.5" y="787.5"/>
      <point x="834.5" y="743.5"/>
      <point x="886.0" y="743.5" type="qcurve" smooth="yes"/>
      <point x="953.0" y="743.5"/>
      <point x="1057.0" y="808.5"/>
      <point x="1111.5" y="873.0" type="qcurve"/>
      <point x="1111.5" y="516.0" type="line"/>
      <point x="1075.5" y="470.50000000000006"/>
      <point x="966.5" y="414.5"/>
      <point x="888.0" y="414.5" type="qcurve" smooth="yes"/>
      <point x="832.5" y="414.5"/>
      <point x="684.5" y="452.5"/>
      <point x="596.5" y="483.50000000000006" type="qcurve" smooth="yes"/>
      <point x="519.5" y="512.0"/>
      <point x="389.0" y="551.0"/>
      <point x="342.0" y="551.0" type="qcurve" smooth="yes"/>
      <point x="259.5" y="551.0"/>
      <point x="153.5" y="481.49999999999994"/>
    </contour>
  </outline>
</glyph>
<glyph name="exclamdown" format="2">
  <advance width="616"/>
  <unicode hex="00A1"/>
  <outline>
    <contour>
      <point x="501.0" y="993.5" type="qcurve" smooth="yes"/>
      <point x="501.0" y="920.5"/>
      <point x="402.0" y="815.0"/>
      <point x="310.5" y="815.0" type="qcurve" smooth="yes"/>
      <point x="216.0" y="815.0"/>
      <point x="115.0" y="920.5"/>
      <point x="115.0" y="993.5" type="qcurve" smooth="yes"/>
      <point x="115.0" y="1066.5"/>
      <point x="214.0" y="1172.0"/>
      <point x="308.0" y="1172.0" type="qcurve" smooth="yes"/>
      <point x="402.0" y="1172.0"/>
      <point x="501.0" y="1066.5"/>
    </contour>
    <contour>
      <point x="455.5" y="682.0" type="line"/>
      <point x="464.5" y="-306.0" type="line"/>
      <point x="151.0" y="-306.0" type="line"/>
      <point x="161.0" y="682.0" type="line"/>
    </contour>
  </outline>
</glyph>
<glyph name="cent" format="2">
  <advance width="1007"/>
  <unicode hex="00A2"/>
  <outline>
    <contour>
      <point x="545.0" y="395.5" type="qcurve" smooth="yes"/>
      <point x="618.5" y="395.5"/>
      <point x="694.0" y="487.5"/>
      <point x="694.0" y="589.5" type="qcurve"/>
      <point x="989.5" y="589.5" type="line"/>
      <point x="989.5" y="370.5"/>
      <point x="756.0" y="130.5"/>
      <point x="536.0" y="130.5" type="qcurve" smooth="yes"/>
      <point x="305.5" y="130.5"/>
      <point x="33.0" y="421.0"/>
      <point x="33.0" y="672.0" type="qcurve" smooth="yes"/>
      <point x="33.0" y="710.0" type="line" smooth="yes"/>
      <point x="33.0" y="964.5"/>
      <point x="302.5" y="1252.0"/>
      <point x="533.5" y="1252.0" type="qcurve" smooth="yes"/>
      <point x="754.5" y="1252.0"/>
      <point x="988.5" y="1009.0"/>
      <point x="988.5" y="792.5" type="qcurve"/>
      <point x="691.5" y="792.5" type="line"/>
      <point x="691.5" y="889.5"/>
      <point x="617.5" y="980.0"/>
      <point x="546.0" y="980.0" type="qcurve" smooth="yes"/>
      <point x="465.5" y="980.0"/>
      <point x="377.5" y="851.0"/>
      <point x="377.5" y="723.0" type="qcurve" smooth="yes"/>
      <point x="377.5" y="661.0" type="line" smooth="yes"/>
      <point x="377.5" y="537.5"/>
      <point x="463.5" y="395.5"/>
    </contour>
    <contour>
      <point x="421.0" y="0.0" type="line"/>
      <point x="421.0" y="212.0" type="line"/>
      <point x="423.5" y="226.0" type="line"/>
      <point x="423.5" y="708.0" type="line"/>
      <point x="648.5" y="708.0" type="line"/>
      <point x="648.5" y="225.0" type="line"/>
      <point x="651.0" y="215.0" type="line"/>
      <point x="651.0" y="0.0" type="line"/>
    </contour>
    <contour>
      <point x="423.5" y="708.0" type="line"/>
      <point x="423.5" y="1182.0" type="line"/>
      <point x="421.0" y="1192.0" type="line"/>
      <point x="421.0" y="1402.0" type="line"/>
      <point x="651.0" y="1402.0" type="line"/>
      <point x="651.0" y="1192.0" type="line"/>
      <point x="648.5" y="1179.0" type="line"/>
      <point x="648.5" y="708.0" type="line"/>
    </contour>
  </outline>
</glyph>
<glyph name="sterling" format="2">
	<unicode hex="00A3"/>
	<advance width="1089"/>
	<outline>
		<contour>
			<point x="1073" y="0" type="line"/>
			<point x="24" y="0" type="line"/>
			<point x="24" y="223.5" type="line"/>
			<point x="75.5" y="223.5" type="line" smooth="yes"/>
			<point x="131" y="223.5"/>
			<point x="181" y="374.5"/>
			<point x="168.5" y="507" type="qcurve" smooth="yes"/>
			<point x="123.5" y="987.5" type="line" smooth="yes"/>
			<point x="99" y="1235.5"/>
			<point x="315" y="1476"/>
			<point x="566" y="1476" type="qcurve" smooth="yes"/>
			<point x="804" y="1476"/>
			<point x="1032" y="1256"/>
			<point x="1032" y="1028" type="qcurve" smooth="yes"/>
			<point x="1032" y="1012" type="line"/>
			<point x="715.5" y="1012" type="line"/>
			<point x="715.5" y="1028" type="line" smooth="yes"/>
			<point x="715.5" y="1130"/>
			<point x="640.5" y="1233.5"/>
			<point x="568" y="1233.5" type="qcurve" smooth="yes"/>
			<point x="495.5" y="1233.5"/>
			<point x="432.5" y="1109.5"/>
			<point x="444" y="987.5" type="qcurve" smooth="yes"/>
			<point x="485.5" y="566" type="line" smooth="yes"/>
			<point x="498.5" y="434.5"/>
			<point x="441.5" y="263"/>
			<point x="377.5" y="228.5" type="qcurve"/>
			<point x="1073" y="228.5" type="line"/>
		</contour>
		<contour>
			<point x="745.5" y="650" type="line"/>
			<point x="38.5" y="650" type="line"/>
			<point x="38.5" y="776.5" type="line"/>
			<point x="745.5" y="776.5" type="line"/>
		</contour>
	</outline>
</glyph>
<glyph name="currency" format="2">
	<unicode hex="00A4"/>
	<advance width="1324"/>
	<outline>
		<contour>
			<point x="484" y="713.5" type="qcurve"/>
			<point x="484" y="632"/>
			<point x="584" y="525.5"/>
			<point x="659" y="525.5" type="qcurve" smooth="yes"/>
			<point x="734" y="525.5"/>
			<point x="832.5" y="632"/>
			<point x="832.5" y="713.5" type="qcurve" smooth="yes"/>
			<point x="832.5" y="795"/>
			<point x="734" y="901"/>
			<point x="659" y="901" type="qcurve" smooth="yes"/>
			<point x="584" y="901"/>
			<point x="484" y="795"/>
		</contour>
		<contour>
			<point x="155.5" y="719.5" type="qcurve"/>
			<point x="155.5" y="910"/>
			<point x="453" y="1164.5"/>
			<point x="658" y="1164.5" type="qcurve" smooth="yes"/>
			<point x="862.5" y="1164.5"/>
			<point x="1160" y="910"/>
			<point x="1160" y="719.5" type="qcurve" smooth="yes"/>
			<point x="1160" y="530"/>
			<point x="862.5" y="268"/>
			<point x="658" y="268" type="qcurve" smooth="yes"/>
			<point x="453" y="268"/>
			<point x="155.5" y="527.5"/>
		</contour>
		<contour>
			<point x="1215" y="1114" type="line"/>
			<point x="1007" y="929" type="line"/>
			<point x="889" y="1055" type="line"/>
			<point x="1097.5" y="1240" type="line"/>
		</contour>
		<contour>
			<point x="407" y="396.5" type="line"/>
			<point x="198.5" y="211.5" type="line"/>
			<point x="82" y="336.5" type="line"/>
			<point x="290.5" y="520.5" type="line"/>
		</contour>
		<contour>
			<point x="1123" y="218" type="line"/>
			<point x="915" y="402.5" type="line"/>
			<point x="1033.5" y="527.5" type="line"/>
			<point x="1242" y="344" type="line"/>
		</contour>
		<contour>
			<point x="306.5" y="941.5" type="line"/>
			<point x="98.5" y="1126.5" type="line"/>
			<point x="215.5" y="1251" type="line"/>
			<point x="423.5" y="1066" type="line"/>
		</contour>
	</outline>
	<guideline x="0" y="901" angle="0" identifier="bRYxxRaQQf"/>
	<guideline x="0" y="555" angle="0" identifier="917FhrihjR"/>
</glyph>
<glyph name="yen" format="2">
	<unicode hex="00A5"/>
	<advance width="1239"/>
	<outline>
		<contour>
			<point x="44" y="317" type="line"/>
			<point x="44" y="455" type="line"/>
			<point x="1203" y="455" type="line"/>
			<point x="1203" y="317" type="line"/>
		</contour>
		<contour>
			<point x="44" y="601" type="line"/>
			<point x="44" y="736.5" type="line"/>
			<point x="525" y="736.5" type="line"/>
			<point x="578" y="638.5" type="line"/>
			<point x="687" y="638.5" type="line"/>
			<point x="735" y="736.5" type="line"/>
			<point x="1203" y="736.5" type="line"/>
			<point x="1203" y="601" type="line"/>
		</contour>
		<contour>
			<point x="439.5" y="0" type="line"/>
			<point x="439.5" y="548" type="line"/>
			<point x="-15.5" y="1456" type="line"/>
			<point x="363.5" y="1456" type="line"/>
			<point x="566" y="1038" type="line" smooth="yes"/>
			<point x="580.5" y="1008"/>
			<point x="613" y="905"/>
			<point x="620" y="868" type="qcurve"/>
			<point x="640" y="868" type="line"/>
			<point x="649" y="924"/>
			<point x="680" y="1008.5"/>
			<point x="694" y="1038" type="qcurve" smooth="yes"/>
			<point x="899" y="1456" type="line"/>
			<point x="1254.5" y="1456" type="line"/>
			<point x="799.5" y="548" type="line"/>
			<point x="799.5" y="0" type="line"/>
		</contour>
	</outline>
</glyph>
<glyph name="dieresis" format="2">
  <advance width="1024"/>
  <unicode hex="00A8"/>
  <outline>
    <contour>
      <point x="147.0" y="1106.0" type="qcurve" smooth="yes"/>
      <point x="147.0" y="1170.5"/>
      <point x="222.0" y="1253.5"/>
      <point x="297.5" y="1253.5" type="qcurve" smooth="yes"/>
      <point x="370.5" y="1253.5"/>
      <point x="448.5" y="1170.5"/>
      <point x="448.5" y="1106.0" type="qcurve" smooth="yes"/>
      <point x="448.5" y="1047.5"/>
      <point x="370.5" y="964.0"/>
      <point x="297.5" y="964.0" type="qcurve" smooth="yes"/>
      <point x="222.0" y="964.0"/>
      <point x="147.0" y="1047.5"/>
    </contour>
    <contour>
      <point x="575.5" y="1104.0" type="qcurve" smooth="yes"/>
      <point x="575.5" y="1168.5"/>
      <point x="652.5" y="1251.5"/>
      <point x="725.5" y="1251.5" type="qcurve" smooth="yes"/>
      <point x="800.0" y="1251.5"/>
      <point x="876.5" y="1168.5"/>
      <point x="876.5" y="1104.0" type="qcurve" smooth="yes"/>
      <point x="876.5" y="1046.5"/>
      <point x="800.0" y="962.0"/>
      <point x="725.5" y="962.0" type="qcurve" smooth="yes"/>
      <point x="652.5" y="962.0"/>
      <point x="575.5" y="1046.5"/>
    </contour>
  </outline>
</glyph>
<glyph name="copyright" format="2">
  <advance width="1854"/>
  <unicode hex="00A9"/>
  <guideline x="0" y="901.0" angle="0" identifier="0Pjz0qKr8z"/>
  <guideline x="0" y="555.0" angle="0" identifier="sJo8BlDiJ7"/>
  <outline>
    <contour>
      <point x="1090.5" y="594.5" type="qcurve"/>
      <point x="1386.0" y="594.5" type="line"/>
      <point x="1386.0" y="412.5"/>
      <point x="1152.5" y="204.0"/>
      <point x="932.5" y="204.0" type="qcurve" smooth="yes"/>
      <point x="702.0" y="204.0"/>
      <point x="429.5" y="455.5"/>
      <point x="429.5" y="674.0" type="qcurve" smooth="yes"/>
      <point x="429.5" y="707.0" type="line" smooth="yes"/>
      <point x="429.5" y="927.0"/>
      <point x="699.0" y="1176.0"/>
      <point x="930.0" y="1176.0" type="qcurve" smooth="yes"/>
      <point x="1151.0" y="1176.0"/>
      <point x="1385.0" y="965.5"/>
      <point x="1385.0" y="776.0" type="qcurve"/>
      <point x="1088.0" y="776.0" type="line"/>
      <point x="1088.0" y="855.5"/>
      <point x="1014.0" y="933.0"/>
      <point x="942.5" y="933.0" type="qcurve" smooth="yes"/>
      <point x="862.0" y="933.0"/>
      <point x="774.0" y="824.5"/>
      <point x="774.0" y="718.0" type="qcurve" smooth="yes"/>
      <point x="774.0" y="664.0" type="line" smooth="yes"/>
      <point x="774.0" y="560.5"/>
      <point x="860.0" y="441.0"/>
      <point x="941.5" y="441.0" type="qcurve" smooth="yes"/>
      <point x="1015.0" y="441.0"/>
      <point x="1090.5" y="519.5"/>
    </contour>
    <contour>
      <point x="206.0" y="687.0" type="qcurve" smooth="yes"/>
      <point x="206.0" y="378.5"/>
      <point x="602.0" y="8.5"/>
      <point x="909.0" y="8.5" type="qcurve" smooth="yes"/>
      <point x="1224.0" y="8.5"/>
      <point x="1631.0" y="378.5"/>
      <point x="1631.0" y="687.0" type="qcurve" smooth="yes"/>
      <point x="1631.0" y="993.5"/>
      <point x="1224.0" y="1363.0"/>
      <point x="909.0" y="1363.0" type="qcurve" smooth="yes"/>
      <point x="602.0" y="1363.0"/>
      <point x="206.0" y="993.5"/>
    </contour>
    <contour>
      <point x="48.0" y="687.0" type="qcurve" smooth="yes"/>
      <point x="48.0" y="1044.5"/>
      <point x="537.5" y="1509.0"/>
      <point x="908.0" y="1509.0" type="qcurve" smooth="yes"/>
      <point x="1294.5" y="1509.0"/>
      <point x="1788.0" y="1044.5"/>
      <point x="1788.0" y="687.0" type="qcurve" smooth="yes"/>
      <point x="1788.0" y="330.0"/>
      <point x="1294.5" y="-137.0"/>
      <point x="908.0" y="-137.0" type="qcurve" smooth="yes"/>
      <point x="537.5" y="-137.0"/>
      <point x="48.0" y="330.0"/>
    </contour>
  </outline>
</glyph>
<glyph name="ordfeminine" format="2">
  <advance width="996"/>
  <unicode hex="00AA"/>
  <guideline x="0" y="1681.0" angle="0" identifier="3CJlALCfkl"/>
  <guideline x="0" y="909.0" angle="0" identifier="Zdl6NZVQAy"/>
  <outline>
    <contour>
      <point x="592.0" y="861.5" type="line"/>
      <point x="592.0" y="824.5"/>
      <point x="612.0" y="733.0"/>
      <point x="631.5" y="706.0" type="qcurve"/>
      <point x="915.0" y="706.0" type="line"/>
      <point x="899.0" y="746.0"/>
      <point x="884.5" y="826.0"/>
      <point x="884.5" y="871.0" type="qcurve" smooth="yes"/>
      <point x="884.5" y="1186.5" type="line" smooth="yes"/>
      <point x="884.5" y="1331.5"/>
      <point x="702.5" y="1477.0"/>
      <point x="514.0" y="1477.0" type="qcurve" smooth="yes"/>
      <point x="334.0" y="1477.0"/>
      <point x="121.0" y="1344.5"/>
      <point x="123.0" y="1231.0" type="qcurve" smooth="yes"/>
      <point x="123.0" y="1212.0" type="line"/>
      <point x="388.5" y="1211.0" type="line"/>
      <point x="388.5" y="1225.0" type="line" smooth="yes"/>
      <point x="388.5" y="1267.0"/>
      <point x="443.5" y="1313.5"/>
      <point x="494.5" y="1313.5" type="qcurve" smooth="yes"/>
      <point x="542.5" y="1313.5"/>
      <point x="592.0" y="1254.0"/>
      <point x="592.0" y="1198.5" type="qcurve" smooth="yes"/>
    </contour>
    <contour>
      <point x="602.0" y="1163.0" type="line"/>
      <point x="413.5" y="1163.0" type="line" smooth="yes"/>
      <point x="257.5" y="1163.0"/>
      <point x="79.0" y="1033.5"/>
      <point x="79.0" y="921.0" type="qcurve" smooth="yes"/>
      <point x="79.0" y="810.0"/>
      <point x="212.0" y="693.5"/>
      <point x="333.5" y="693.5" type="qcurve" smooth="yes"/>
      <point x="437.0" y="693.5"/>
      <point x="574.5" y="771.5"/>
      <point x="606.5" y="813.5" type="qcurve"/>
      <point x="592.0" y="945.5" type="line"/>
      <point x="591.0" y="915.5"/>
      <point x="506.5" y="854.0"/>
      <point x="465.0" y="854.0" type="qcurve" smooth="yes"/>
      <point x="418.0" y="854.0"/>
      <point x="367.0" y="899.0"/>
      <point x="367.0" y="942.0" type="qcurve" smooth="yes"/>
      <point x="367.0" y="986.5"/>
      <point x="435.0" y="1035.0"/>
      <point x="499.0" y="1034.5" type="qcurve" smooth="yes"/>
      <point x="602.0" y="1034.5" type="line"/>
    </contour>
  </outline>
</glyph>
<glyph name="guillemotleft" format="2">
  <advance width="1156"/>
  <unicode hex="00AB"/>
  <guideline x="0" y="901.0" angle="0" identifier="ZftBQarVKw"/>
  <guideline x="0" y="555.0" angle="0" identifier="MVJpdoVRVd"/>
  <outline>
    <contour>
      <point x="63.0" y="487.5" type="line"/>
      <point x="63.0" y="538.0" type="line"/>
      <point x="343.5" y="918.0" type="line"/>
      <point x="613.5" y="918.0" type="line"/>
      <point x="345.5" y="511.5" type="line"/>
      <point x="613.5" y="105.5" type="line"/>
      <point x="343.5" y="105.5" type="line"/>
    </contour>
    <contour>
      <point x="551.5" y="487.5" type="line"/>
      <point x="551.5" y="538.0" type="line"/>
      <point x="833.0" y="918.0" type="line"/>
      <point x="1086.5" y="918.0" type="line"/>
      <point x="818.5" y="511.5" type="line"/>
      <point x="1086.5" y="105.5" type="line"/>
      <point x="833.0" y="105.5" type="line"/>
    </contour>
  </outline>
</glyph>
<glyph name="logicalnot" format="2">
	<unicode hex="00AC"/>
	<advance width="1097"/>
	<outline>
		<contour>
			<point x="967.5" y="821" type="line"/>
			<point x="967.5" y="326" type="line"/>
			<point x="620.5" y="326" type="line"/>
			<point x="620.5" y="590.5" type="line"/>
			<point x="49" y="590.5" type="line"/>
			<point x="49" y="821" type="line"/>
		</contour>
	</outline>
</glyph>
<glyph name="registered" format="2">
  <advance width="1854"/>
  <unicode hex="00AE"/>
  <outline>
    <contour>
      <point x="48.0" y="687.0" type="qcurve" smooth="yes"/>
      <point x="48.0" y="1044.5"/>
      <point x="537.5" y="1509.0"/>
      <point x="908.0" y="1509.0" type="qcurve" smooth="yes"/>
      <point x="1294.5" y="1509.0"/>
      <point x="1788.0" y="1044.5"/>
      <point x="1788.0" y="687.0" type="qcurve" smooth="yes"/>
      <point x="1788.0" y="330.0"/>
      <point x="1294.5" y="-142.0"/>
      <point x="908.0" y="-142.0" type="qcurve" smooth="yes"/>
      <point x="537.5" y="-142.0"/>
      <point x="48.0" y="330.0"/>
    </contour>
    <contour>
      <point x="206.0" y="687.0" type="qcurve" smooth="yes"/>
      <point x="206.0" y="374.5"/>
      <point x="602.0" y="4.0"/>
      <point x="909.0" y="4.0" type="qcurve" smooth="yes"/>
      <point x="1224.0" y="4.0"/>
      <point x="1631.0" y="374.5"/>
      <point x="1631.0" y="687.0" type="qcurve" smooth="yes"/>
      <point x="1631.0" y="996.0"/>
      <point x="1224.0" y="1362.0"/>
      <point x="909.0" y="1362.0" type="qcurve" smooth="yes"/>
      <point x="602.0" y="1362.0"/>
      <point x="206.0" y="996.0"/>
    </contour>
    <contour>
      <point x="927.5" y="570.0" type="line"/>
      <point x="795.0" y="570.0" type="line"/>
      <point x="795.0" y="225.0" type="line"/>
      <point x="514.0" y="225.0" type="line"/>
      <point x="514.0" y="1158.0" type="line"/>
      <point x="940.5" y="1158.0" type="line" smooth="yes"/>
      <point x="1145.5" y="1158.0"/>
      <point x="1366.0" y="1005.5"/>
      <point x="1366.0" y="863.0" type="qcurve" smooth="yes"/>
      <point x="1366.0" y="751.5"/>
      <point x="1266.0" y="609.0"/>
      <point x="1163.0" y="588.5" type="qcurve"/>
      <point x="1195.5" y="562.5"/>
      <point x="1236.5" y="516.5"/>
      <point x="1255.0" y="487.5" type="qcurve" smooth="yes"/>
      <point x="1394.0" y="262.0" type="line"/>
      <point x="1394.0" y="225.0" type="line"/>
      <point x="1131.0" y="225.0" type="line"/>
    </contour>
    <contour>
      <point x="929.0" y="972.0" type="qcurve" smooth="yes"/>
      <point x="793.0" y="972.0" type="line"/>
      <point x="793.0" y="749.5" type="line"/>
      <point x="945.5" y="749.5" type="line" smooth="yes"/>
      <point x="1008.5" y="749.5"/>
      <point x="1079.0" y="802.5"/>
      <point x="1079.0" y="854.5" type="qcurve" smooth="yes"/>
      <point x="1079.0" y="912.5"/>
      <point x="1005.5" y="971.5"/>
    </contour>
  </outline>
</glyph>
<glyph name="macron" format="2">
	<unicode hex="00AF"/>
	<advance width="1024"/>
	<outline>
		<contour>
			<point x="806" y="1239" type="line"/>
			<point x="806" y="1014" type="line"/>
			<point x="218" y="1014" type="line"/>
			<point x="218" y="1239" type="line"/>
		</contour>
	</outline>
</glyph>
<glyph name="degree" format="2">
  <advance width="765"/>
  <unicode hex="00B0"/>
  <outline>
    <contour>
      <point x="95.0" y="1171.5" type="qcurve"/>
      <point x="95.0" y="1292.0"/>
      <point x="267.0" y="1467.0"/>
      <point x="385.0" y="1467.0" type="qcurve" smooth="yes"/>
      <point x="502.5" y="1467.0"/>
      <point x="671.0" y="1292.0"/>
      <point x="671.0" y="1171.5" type="qcurve" smooth="yes"/>
      <point x="671.0" y="1050.0"/>
      <point x="502.5" y="879.5"/>
      <point x="385.0" y="879.5" type="qcurve" smooth="yes"/>
      <point x="267.0" y="879.5"/>
      <point x="95.0" y="1049.5"/>
    </contour>
    <contour>
      <point x="272.0" y="1172.0" type="qcurve"/>
      <point x="272.0" y="1125.0"/>
      <point x="338.5" y="1061.5"/>
      <point x="384.5" y="1061.5" type="qcurve" smooth="yes"/>
      <point x="431.0" y="1061.5"/>
      <point x="494.0" y="1125.0"/>
      <point x="494.0" y="1172.0" type="qcurve" smooth="yes"/>
      <point x="494.0" y="1219.5"/>
      <point x="431.0" y="1285.0"/>
      <point x="384.5" y="1285.0" type="qcurve" smooth="yes"/>
      <point x="338.5" y="1285.0"/>
      <point x="272.0" y="1219.5"/>
    </contour>
  </outline>
</glyph>
<glyph name="plusminus" format="2">
	<unicode hex="00B1"/>
	<advance width="1080"/>
	<outline>
		<contour>
			<point x="69.5" y="665.5" type="line"/>
			<point x="69.5" y="958.5" type="line"/>
			<point x="1012" y="958.5" type="line"/>
			<point x="1012" y="665.5" type="line"/>
		</contour>
		<contour>
			<point x="388.5" y="326" type="line"/>
			<point x="388.5" y="1298" type="line"/>
			<point x="693.5" y="1298" type="line"/>
			<point x="693.5" y="326" type="line"/>
		</contour>
		<contour>
			<point x="66.5" y="0" type="line"/>
			<point x="66.5" y="293.5" type="line"/>
			<point x="1013" y="293.5" type="line"/>
			<point x="1013" y="0" type="line"/>
		</contour>
	</outline>
</glyph>
<glyph name="twosuperior" format="2">
  <advance width="689"/>
  <unicode hex="00B2"/>
  <outline>
    <contour>
      <point x="49.5" y="683.5" type="line"/>
      <point x="49.5" y="838.5" type="line"/>
      <point x="321.0" y="1095.5" type="line" smooth="yes"/>
      <point x="369.5" y="1143.5"/>
      <point x="403.5" y="1202.5"/>
      <point x="403.5" y="1233.0" type="qcurve" smooth="yes"/>
      <point x="403.5" y="1272.5"/>
      <point x="365.5" y="1310.5"/>
      <point x="331.0" y="1310.5" type="qcurve" smooth="yes"/>
      <point x="289.5" y="1310.5"/>
      <point x="241.5" y="1245.5"/>
      <point x="242.0" y="1180.0" type="qcurve"/>
      <point x="38.5" y="1180.0" type="line"/>
      <point x="37.0" y="1332.5"/>
      <point x="196.0" y="1480.5"/>
      <point x="349.5" y="1480.5" type="qcurve" smooth="yes"/>
      <point x="508.0" y="1480.5"/>
      <point x="642.5" y="1351.5"/>
      <point x="642.5" y="1257.0" type="qcurve" smooth="yes"/>
      <point x="642.5" y="1172.0"/>
      <point x="558.5" y="1051.5"/>
      <point x="494.5" y="989.0" type="qcurve" smooth="yes"/>
      <point x="376.5" y="862.0" type="line"/>
      <point x="657.0" y="862.0" type="line"/>
      <point x="657.0" y="683.5" type="line"/>
    </contour>
  </outline>
</glyph>
<glyph name="acute" format="2">
  <advance width="1024"/>
  <unicode hex="00B4"/>
  <outline>
    <contour>
      <point x="299.5" y="1062.5" type="line"/>
      <point x="522.0" y="1385.5" type="line"/>
      <point x="810.5" y="1294.0" type="line"/>
      <point x="548.5" y="981.0" type="line"/>
    </contour>
  </outline>
</glyph>
<glyph name="paragraph" format="2">
  <advance width="1185"/>
  <unicode hex="00B6"/>
  <guideline x="0" y="901.0" angle="0" identifier="27539Lsr1A"/>
  <guideline x="0" y="555.0" angle="0" identifier="e34wUdCmXR"/>
  <outline>
    <contour>
      <point x="822.5" y="-146.0" type="line"/>
      <point x="524.5" y="-146.0" type="line"/>
      <point x="524.5" y="706.5" type="line"/>
      <point x="438.5" y="706.5" type="line" smooth="yes"/>
      <point x="246.0" y="706.5"/>
      <point x="40.0" y="919.5"/>
      <point x="40.0" y="1081.0" type="qcurve" smooth="yes"/>
      <point x="40.0" y="1241.0"/>
      <point x="246.0" y="1456.0"/>
      <point x="438.5" y="1456.0" type="qcurve" smooth="yes"/>
      <point x="822.5" y="1456.0" type="line"/>
    </contour>
    <contour>
      <point x="964.5" y="1459.0" type="line"/>
      <point x="1111.0" y="1459.0" type="line"/>
      <point x="1111.0" y="-146.0" type="line"/>
      <point x="964.5" y="-146.0" type="line"/>
    </contour>
  </outline>
</glyph>
<glyph name="periodcentered" format="2">
  <advance width="641"/>
  <unicode hex="00B7"/>
  <outline>
    <contour>
      <point x="107.0" y="744.5" type="qcurve" smooth="yes"/>
      <point x="107.0" y="827.5"/>
      <point x="217.5" y="942.0"/>
      <point x="320.5" y="942.0" type="qcurve" smooth="yes"/>
      <point x="423.5" y="942.0"/>
      <point x="534.0" y="827.5"/>
      <point x="534.0" y="744.5" type="qcurve" smooth="yes"/>
      <point x="534.0" y="660.5"/>
      <point x="423.5" y="546.0"/>
      <point x="320.5" y="546.0" type="qcurve" smooth="yes"/>
      <point x="217.5" y="546.0"/>
      <point x="107.0" y="662.0"/>
    </contour>
  </outline>
</glyph>
<glyph name="cedilla" format="2">
  <advance width="1024"/>
  <unicode hex="00B8"/>
  <outline>
    <contour>
      <point x="422.0" y="-3.5" type="line"/>
      <point x="574.5" y="-3.5" type="line"/>
      <point x="545.5" y="-105.5" type="line"/>
      <point x="629.0" y="-116.5"/>
      <point x="730.5" y="-193.0"/>
      <point x="730.5" y="-272.5" type="qcurve" smooth="yes"/>
      <point x="730.5" y="-373.0"/>
      <point x="558.5" y="-489.5"/>
      <point x="332.0" y="-489.5" type="qcurve"/>
      <point x="324.0" y="-371.5" type="line"/>
      <point x="417.5" y="-371.5"/>
      <point x="521.0" y="-325.5"/>
      <point x="521.0" y="-280.5" type="qcurve" smooth="yes"/>
      <point x="521.0" y="-241.5"/>
      <point x="447.5" y="-211.0"/>
      <point x="371.5" y="-206.5" type="qcurve"/>
    </contour>
  </outline>
</glyph>
<glyph name="ordmasculine" format="2">
  <advance width="990"/>
  <unicode hex="00BA"/>
  <guideline x="0" y="1975.0" angle="0" identifier="Jnt0R9CyOf"/>
  <outline>
    <contour>
      <point x="73.0" y="1056.5" type="qcurve"/>
      <point x="73.0" y="1110.0" type="line"/>
      <point x="73.0" y="1272.0"/>
      <point x="299.6417910448" y="1476.5"/>
      <point x="494.5" y="1476.5" type="qcurve" smooth="yes"/>
      <point x="690.60447761195" y="1476.5"/>
      <point x="916.5" y="1272.0"/>
      <point x="916.5" y="1110.0" type="qcurve"/>
      <point x="916.5" y="1056.5" type="line"/>
      <point x="916.5" y="894.5"/>
      <point x="690.8582089552" y="691.0"/>
      <point x="495.5" y="691.0" type="qcurve" smooth="yes"/>
      <point x="299.39552238805004" y="691.0"/>
      <point x="73.0" y="894.5"/>
    </contour>
    <contour>
      <point x="360.0" y="1119.5" type="qcurve"/>
      <point x="360.0" y="1049.0" type="line"/>
      <point x="360.0" y="974.0"/>
      <point x="429.5" y="892.0"/>
      <point x="494.0" y="892.0" type="qcurve" smooth="yes"/>
      <point x="558.0" y="892.0"/>
      <point x="626.0" y="974.0"/>
      <point x="626.0" y="1049.0" type="qcurve"/>
      <point x="626.0" y="1119.5" type="line"/>
      <point x="626.0" y="1192.0"/>
      <point x="557.5" y="1272.5"/>
      <point x="493.0" y="1272.5" type="qcurve" smooth="yes"/>
      <point x="428.5" y="1272.5"/>
      <point x="360.0" y="1192.0"/>
    </contour>
  </outline>
</glyph>
<glyph name="guillemotright" format="2">
	<unicode hex="00BB"/>
	<advance width="1156"/>
	<outline>
		<contour>
			<point x="69.5" y="105.5" type="line"/>
			<point x="337.5" y="512" type="line"/>
			<point x="69.5" y="918" type="line"/>
			<point x="323" y="918" type="line"/>
			<point x="604.5" y="536.5" type="line"/>
			<point x="604.5" y="486" type="line"/>
			<point x="323" y="105.5" type="line"/>
		</contour>
		<contour>
			<point x="543" y="106" type="line"/>
			<point x="811" y="512" type="line"/>
			<point x="543" y="918" type="line"/>
			<point x="813" y="918" type="line"/>
			<point x="1093" y="537" type="line"/>
			<point x="1093" y="486" type="line"/>
			<point x="813" y="106" type="line"/>
		</contour>
	</outline>
	<guideline x="0" y="98" angle="0" identifier="MTEldNnfdj"/>
	<guideline x="0" y="443" angle="0" identifier="G9bQni2n1K"/>
</glyph>
<glyph name="AE" format="2">
  <advance width="1865"/>
  <unicode hex="00C6"/>
  <anchor x="1025.5" y="1456.0" name="top"/>
  <outline>
    <contour>
      <point x="289.0" y="275.5" type="line"/>
      <point x="366.0" y="508.0" type="line"/>
      <point x="985.5" y="508.0" type="line"/>
      <point x="985.5" y="275.5" type="line"/>
    </contour>
    <contour>
      <point x="-14.5" y="0.0" type="line"/>
      <point x="866.5" y="1456.0" type="line"/>
      <point x="1841.5" y="1456.0" type="line"/>
      <point x="1841.5" y="1173.5" type="line"/>
      <point x="1245.5" y="1173.5" type="line"/>
      <point x="1245.5" y="861.5" type="line"/>
      <point x="1753.5" y="861.5" type="line"/>
      <point x="1753.5" y="614.0" type="line"/>
      <point x="1245.5" y="614.0" type="line"/>
      <point x="1245.5" y="272.5" type="line"/>
      <point x="1856.5" y="272.5" type="line"/>
      <point x="1856.5" y="0.0" type="line"/>
      <point x="905.5" y="0.0" type="line"/>
      <point x="905.5" y="1022.0" type="line"/>
      <point x="329.0" y="0.0" type="line"/>
    </contour>
  </outline>
</glyph>
<glyph name="multiply" format="2">
	<unicode hex="00D7"/>
	<advance width="1080"/>
	<outline>
		<contour>
			<point x="298" y="220.5" type="line"/>
			<point x="87.5" y="431.5" type="line"/>
			<point x="778.5" y="1122.5" type="line"/>
			<point x="989.5" y="912" type="line"/>
		</contour>
		<contour>
			<point x="778.5" y="220.5" type="line"/>
			<point x="87.5" y="912" type="line"/>
			<point x="298" y="1123" type="line"/>
			<point x="989" y="431.5" type="line"/>
		</contour>
	</outline>
</glyph>
<glyph name="Thorn" format="2">
	<unicode hex="00DE"/>
	<advance width="1181"/>
	<outline>
		<contour>
			<point x="85" y="1456" type="line"/>
			<point x="440" y="1456" type="line"/>
			<point x="440" y="1234.5" type="line"/>
			<point x="700" y="1234.5" type="line" smooth="yes"/>
			<point x="921" y="1234.5"/>
			<point x="1152" y="957.5"/>
			<point x="1152" y="734.5" type="qcurve" smooth="yes"/>
			<point x="1152" y="511.5"/>
			<point x="926" y="237"/>
			<point x="693.5" y="236.5" type="qcurve" smooth="yes"/>
			<point x="440" y="236.5" type="line"/>
			<point x="440" y="0" type="line"/>
			<point x="85" y="0" type="line"/>
		</contour>
		<contour>
			<point x="608.5" y="977.5" type="qcurve" smooth="yes"/>
			<point x="440" y="977.5" type="line"/>
			<point x="440" y="476.5" type="line"/>
			<point x="608.5" y="476.5" type="line" smooth="yes"/>
			<point x="713.5" y="476.5"/>
			<point x="797.5" y="622"/>
			<point x="797.5" y="726.5" type="qcurve" smooth="yes"/>
			<point x="797.5" y="833.5"/>
			<point x="713.5" y="977"/>
		</contour>
	</outline>
	<guideline x="0" y="901" angle="0" identifier="i9jYwjBDP4"/>
	<guideline x="0" y="555" angle="0" identifier="T8KKW8oxop"/>
</glyph>
<glyph name="ae" format="2">
  <advance width="1693"/>
  <unicode hex="00E6"/>
  <outline>
    <contour>
      <point x="368.5" y="287.0" type="qcurve" smooth="yes"/>
      <point x="368.5" y="229.5"/>
      <point x="434.0" y="172.5"/>
      <point x="494.5" y="172.5" type="qcurve" smooth="yes"/>
      <point x="560.0" y="172.5"/>
      <point x="668.5" y="267.5"/>
      <point x="668.5" y="327.0" type="qcurve"/>
      <point x="668.5" y="418.0" type="line"/>
      <point x="545.5" y="418.0" type="line" smooth="yes"/>
      <point x="455.0" y="418.0"/>
      <point x="368.5" y="348.0"/>
    </contour>
    <contour>
      <point x="30.0" y="262.5" type="qcurve" smooth="yes"/>
      <point x="30.0" y="398.5"/>
      <point x="248.5" y="563.0"/>
      <point x="432.5" y="563.0" type="qcurve" smooth="yes"/>
      <point x="668.5" y="563.0" type="line"/>
      <point x="668.5" y="621.5" type="line" smooth="yes"/>
      <point x="668.5" y="682.5"/>
      <point x="604.0" y="748.0"/>
      <point x="542.0" y="748.0" type="qcurve" smooth="yes"/>
      <point x="476.5" y="748.0"/>
      <point x="406.0" y="692.5"/>
      <point x="406.0" y="640.0" type="qcurve" smooth="yes"/>
      <point x="406.0" y="619.0" type="line"/>
      <point x="93.5" y="620.5" type="line"/>
      <point x="93.5" y="645.5" type="line" smooth="yes"/>
      <point x="93.5" y="778.0"/>
      <point x="346.5" y="938.0"/>
      <point x="567.5" y="938.0" type="qcurve" smooth="yes"/>
      <point x="673.0" y="938.0"/>
      <point x="830.0" y="889.0"/>
      <point x="875.5" y="833.0" type="qcurve"/>
      <point x="933.5" y="890.0"/>
      <point x="1089.5" y="942.0"/>
      <point x="1182.0" y="942.0" type="qcurve" smooth="yes"/>
      <point x="1412.0" y="942.0"/>
      <point x="1659.5" y="698.5"/>
      <point x="1659.5" y="487.0" type="qcurve" smooth="yes"/>
      <point x="1659.5" y="434.5" type="line"/>
      <point x="968.0" y="434.5" type="line"/>
      <point x="968.0" y="522.5" type="line"/>
      <point x="1329.0" y="522.5" type="line"/>
      <point x="1329.0" y="529.5" type="line"/>
      <point x="1329.0" y="601.5"/>
      <point x="1261.5" y="708.0"/>
      <point x="1178.5" y="708.0" type="qcurve" smooth="yes"/>
      <point x="1096.0" y="708.0"/>
      <point x="1011.0" y="591.5"/>
      <point x="1011.0" y="484.0" type="qcurve" smooth="yes"/>
      <point x="1011.0" y="442.5" type="line" smooth="yes"/>
      <point x="1011.0" y="331.5"/>
      <point x="1103.5" y="211.5"/>
      <point x="1190.0" y="211.5" type="qcurve" smooth="yes"/>
      <point x="1255.0" y="211.5"/>
      <point x="1338.5" y="264.0"/>
      <point x="1361.5" y="307.5" type="qcurve"/>
      <point x="1654.0" y="239.0" type="line"/>
      <point x="1608.5" y="114.5"/>
      <point x="1389.0" y="-23.5"/>
      <point x="1192.5" y="-23.5" type="qcurve" smooth="yes"/>
      <point x="1053.0" y="-23.5"/>
      <point x="844.0" y="66.5"/>
      <point x="784.0" y="143.0" type="qcurve"/>
      <point x="710.0" y="66.5"/>
      <point x="509.5" y="-13.0"/>
      <point x="382.5" y="-13.0" type="qcurve" smooth="yes"/>
      <point x="198.5" y="-13.0"/>
      <point x="30.0" y="127.0"/>
    </contour>
  </outline>
</glyph>
<glyph name="eth" format="2">
	<unicode hex="00F0"/>
	<advance width="1116"/>
	<outline>
		<contour>
			<point x="168" y="1313" type="qcurve"/>
			<point x="243.5" y="1522.5" type="line"/>
			<point x="555.5" y="1450.5"/>
			<point x="1081" y="919.5"/>
			<point x="1081" y="579.5" type="qcurve"/>
			<point x="1081" y="489.5" type="line"/>
			<point x="1081" y="255"/>
			<point x="799" y="-20"/>
			<point x="553" y="-20" type="qcurve" smooth="yes"/>
			<point x="312" y="-20"/>
			<point x="33" y="221.5"/>
			<point x="33" y="428" type="qcurve" smooth="yes"/>
			<point x="33" y="624.5"/>
			<point x="309" y="856.5"/>
			<point x="548.5" y="856.5" type="qcurve" smooth="yes"/>
			<point x="665" y="856.5"/>
			<point x="825.5" y="658.5"/>
			<point x="825.5" y="501" type="qcurve"/>
			<point x="794" y="501.5" type="line"/>
			<point x="794" y="552"/>
			<point x="635" y="636.5"/>
			<point x="560" y="636.5" type="qcurve" smooth="yes"/>
			<point x="479" y="636.5"/>
			<point x="377.5" y="515"/>
			<point x="377.5" y="418.5" type="qcurve" smooth="yes"/>
			<point x="377.5" y="332.5"/>
			<point x="479" y="213.5"/>
			<point x="559.5" y="213.5" type="qcurve" smooth="yes"/>
			<point x="636" y="213.5"/>
			<point x="734" y="351"/>
			<point x="734" y="456.5" type="qcurve" smooth="yes"/>
			<point x="734" y="581.5" type="line" smooth="yes"/>
			<point x="734" y="877"/>
			<point x="385" y="1255"/>
		</contour>
		<contour>
			<point x="989.5" y="1384.5" type="line"/>
			<point x="303" y="964" type="line"/>
			<point x="235" y="1065" type="line"/>
			<point x="921.5" y="1484.5" type="line"/>
		</contour>
	</outline>
</glyph>
<glyph name="divide" format="2">
  <advance width="1112"/>
  <unicode hex="00F7"/>
  <outline>
    <contour>
      <point x="410.5" y="1068.0" type="qcurve" smooth="yes"/>
      <point x="410.5" y="1130.0"/>
      <point x="483.5" y="1211.0"/>
      <point x="554.5" y="1211.0" type="qcurve" smooth="yes"/>
      <point x="625.5" y="1211.0"/>
      <point x="700.0" y="1130.0"/>
      <point x="700.0" y="1068.0" type="qcurve" smooth="yes"/>
      <point x="700.0" y="1009.5"/>
      <point x="625.5" y="929.0"/>
      <point x="554.5" y="929.0" type="qcurve" smooth="yes"/>
      <point x="483.5" y="929.0"/>
      <point x="410.5" y="1009.5"/>
    </contour>
    <contour>
      <point x="410.5" y="271.0" type="qcurve" smooth="yes"/>
      <point x="410.5" y="333.0"/>
      <point x="483.5" y="414.0"/>
      <point x="554.5" y="414.0" type="qcurve" smooth="yes"/>
      <point x="625.5" y="414.0"/>
      <point x="700.0" y="333.0"/>
      <point x="700.0" y="271.0" type="qcurve" smooth="yes"/>
      <point x="700.0" y="212.5"/>
      <point x="625.5" y="132.0"/>
      <point x="554.5" y="132.0" type="qcurve" smooth="yes"/>
      <point x="483.5" y="132.0"/>
      <point x="410.5" y="212.5"/>
    </contour>
    <contour>
      <point x="84.0" y="557.5" type="line"/>
      <point x="84.0" y="790.5" type="line"/>
      <point x="1026.5" y="790.5" type="line"/>
      <point x="1026.5" y="557.5" type="line"/>
    </contour>
  </outline>
</glyph>
<glyph name="thorn" format="2">
  <advance width="1113"/>
  <unicode hex="00FE"/>
  <outline>
    <contour>
      <point x="68.0" y="-430.0" type="line"/>
      <point x="68.0" y="1536.0" type="line"/>
      <point x="403.5" y="1536.0" type="line"/>
      <point x="403.5" y="803.0" type="line"/>
      <point x="443.5" y="860.5"/>
      <point x="597.0" y="939.5"/>
      <point x="698.0" y="939.5" type="qcurve" smooth="yes"/>
      <point x="874.0" y="939.5"/>
      <point x="1080.0" y="699.0"/>
      <point x="1080.0" y="479.0" type="qcurve" smooth="yes"/>
      <point x="1080.0" y="447.0" type="line" smooth="yes"/>
      <point x="1080.0" y="233.0"/>
      <point x="868.0" y="-20.0"/>
      <point x="693.0" y="-20.0" type="qcurve" smooth="yes"/>
      <point x="591.0" y="-20.0"/>
      <point x="457.0" y="44.0"/>
      <point x="413.5" y="96.0" type="qcurve"/>
      <point x="410.0" y="96.0" type="line"/>
      <point x="410.0" y="-430.0" type="line"/>
    </contour>
    <contour>
      <point x="410.0" y="323.5" type="line"/>
      <point x="428.5" y="279.0"/>
      <point x="510.5" y="211.0"/>
      <point x="569.5" y="211.0" type="qcurve" smooth="yes"/>
      <point x="656.5" y="211.0"/>
      <point x="740.0" y="337.5"/>
      <point x="740.0" y="435.0" type="qcurve" smooth="yes"/>
      <point x="740.0" y="487.0" type="line" smooth="yes"/>
      <point x="740.0" y="587.0"/>
      <point x="656.0" y="702.5"/>
      <point x="571.5" y="702.5" type="qcurve" smooth="yes"/>
      <point x="510.5" y="702.5"/>
      <point x="427.5" y="635.5"/>
      <point x="410.0" y="591.0" type="qcurve"/>
    </contour>
  </outline>
</glyph>
<glyph name="kgreenlandic" format="2">
  <advance width="1115"/>
  <unicode hex="0138"/>
  <outline>
    <contour>
      <point x="411.5" y="914.0" type="line"/>
      <point x="411.5" y="0.0" type="line"/>
      <point x="68.0" y="0.0" type="line"/>
      <point x="68.0" y="914.0" type="line"/>
    </contour>
    <contour>
      <point x="1096.5" y="914.0" type="line"/>
      <point x="667.5" y="417.0" type="line"/>
      <point x="123.0" y="417.0" type="line"/>
      <point x="123.0" y="514.0" type="line"/>
      <point x="397.0" y="514.0" type="line"/>
      <point x="708.5" y="914.0" type="line"/>
    </contour>
    <contour>
      <point x="745.5" y="0.0" type="line"/>
      <point x="391.0" y="441.0" type="line"/>
      <point x="700.5" y="507.0" type="line"/>
      <point x="1148.5" y="0.0" type="line"/>
    </contour>
  </outline>
</glyph>
<glyph name="oe" format="2">
  <advance width="1758"/>
  <unicode hex="0153"/>
  <outline>
    <contour>
      <point x="378" y="487.0" type="qcurve" smooth="yes"/>
      <point x="378" y="434.0" type="line" smooth="yes"/>
      <point x="378" y="337.0"/>
      <point x="468.0" y="214.0"/>
      <point x="555.0" y="214.0" type="qcurve" smooth="yes"/>
      <point x="643.0" y="214.0"/>
      <point x="734" y="337.0"/>
      <point x="734" y="435" type="qcurve" smooth="yes"/>
      <point x="734" y="487.0" type="line" smooth="yes"/>
      <point x="734" y="583"/>
      <point x="643.0" y="702.0"/>
      <point x="555.0" y="702.0" type="qcurve" smooth="yes"/>
      <point x="468.0" y="702.0"/>
      <point x="378" y="583"/>
    </contour>
    <contour>
      <point x="904" y="798" type="qcurve"/>
      <point x="964" y="871.0"/>
      <point x="1139.0" y="942.0"/>
      <point x="1247" y="942.0" type="qcurve" smooth="yes"/>
      <point x="1477" y="942.0"/>
      <point x="1724.0" y="699"/>
      <point x="1724.0" y="487.0" type="qcurve" smooth="yes"/>
      <point x="1724.0" y="371" type="line"/>
      <point x="933" y="371" type="line"/>
      <point x="933" y="555" type="line"/>
      <point x="1394" y="555" type="line"/>
      <point x="1394" y="562" type="line"/>
      <point x="1394" y="634"/>
      <point x="1326.0" y="708.0"/>
      <point x="1243.0" y="708.0" type="qcurve" smooth="yes"/>
      <point x="1161" y="708.0"/>
      <point x="1076" y="592"/>
      <point x="1076" y="484.0" type="qcurve" smooth="yes"/>
      <point x="1076" y="443" type="line" smooth="yes"/>
      <point x="1076" y="332"/>
      <point x="1168.0" y="212"/>
      <point x="1255" y="212" type="qcurve" smooth="yes"/>
      <point x="1320" y="212"/>
      <point x="1403.0" y="264.0"/>
      <point x="1426.0" y="308" type="qcurve"/>
      <point x="1719" y="239.0" type="line"/>
      <point x="1673.0" y="115"/>
      <point x="1454" y="-23"/>
      <point x="1257.0" y="-23" type="qcurve" smooth="yes"/>
      <point x="1142.0" y="-23"/>
      <point x="962" y="47"/>
      <point x="902" y="120.0" type="qcurve"/>
      <point x="842.0" y="47.0"/>
      <point x="667.0" y="-23"/>
      <point x="558" y="-23" type="qcurve" smooth="yes"/>
      <point x="319" y="-23"/>
      <point x="33.0" y="233.0"/>
      <point x="33.0" y="444" type="qcurve" smooth="yes"/>
      <point x="33.0" y="476.0" type="line" smooth="yes"/>
      <point x="33.0" y="685.0"/>
      <point x="320" y="943.0"/>
      <point x="558" y="943.0" type="qcurve" smooth="yes"/>
      <point x="668" y="943.0"/>
      <point x="845" y="872"/>
    </contour>
  </outline>
</glyph>
<glyph name="Schwa" format="2">
  <advance width="1397"/>
  <unicode hex="018F"/>
  <outline>
    <contour>
      <point x="70.5" y="1125.0" type="line"/>
      <point x="159.0" y="1295.5"/>
      <point x="438.0" y="1459.0"/>
      <point x="607.0" y="1459.0" type="qcurve" smooth="yes"/>
      <point x="926.0" y="1459.0"/>
      <point x="1269.0" y="1096.0"/>
      <point x="1269.0" y="758.0" type="qcurve" smooth="yes"/>
      <point x="1269.0" y="378.0"/>
      <point x="937.0" y="-30.0"/>
      <point x="629.0" y="-30.0" type="qcurve" smooth="yes"/>
      <point x="372.0" y="-30.0"/>
      <point x="96.0" y="273.0"/>
      <point x="96.0" y="555.0" type="qcurve" smooth="yes"/>
      <point x="96.0" y="738.0" type="line"/>
      <point x="1023.0" y="738.0" type="line"/>
      <point x="1023.0" y="542.0" type="line"/>
      <point x="634.5" y="550.0" type="line"/>
      <point x="422.5" y="544.0" type="line"/>
      <point x="422.5" y="441.0" type="line" smooth="yes"/>
      <point x="422.5" y="303.5"/>
      <point x="538.0" y="167.0"/>
      <point x="650.0" y="167.0" type="qcurve" smooth="yes"/>
      <point x="781.0" y="167.0"/>
      <point x="915.5" y="433.0"/>
      <point x="914.0" y="720.0" type="qcurve" smooth="yes"/>
      <point x="913.5" y="1001.0"/>
      <point x="764.0" y="1262.0"/>
      <point x="621.0" y="1262.0" type="qcurve" smooth="yes"/>
      <point x="541.0" y="1262.0"/>
      <point x="416.5" y="1139.5"/>
      <point x="368.5" y="1001.0" type="qcurve"/>
    </contour>
  </outline>
</glyph>
<glyph name="florin" format="2">
  <advance width="931"/>
  <unicode hex="0192"/>
  <outline>
    <contour>
      <point x="767.0" y="861.0" type="line"/>
      <point x="767.0" y="615.0" type="line"/>
      <point x="586.0" y="615.0" type="line"/>
      <point x="586.0" y="111.0" type="line" smooth="yes"/>
      <point x="586.0" y="-163.5"/>
      <point x="344.0" y="-438.0"/>
      <point x="136.5" y="-438.0" type="qcurve" smooth="yes"/>
      <point x="97.0" y="-438.0"/>
      <point x="19.5" y="-430.0"/>
      <point x="-21.5" y="-420.0" type="qcurve"/>
      <point x="-10.5" y="-177.0" type="line"/>
      <point x="9.0" y="-184.0"/>
      <point x="63.5" y="-192.0"/>
      <point x="79.0" y="-192.0" type="qcurve" smooth="yes"/>
      <point x="161.5" y="-192.0"/>
      <point x="246.5" y="-46.5"/>
      <point x="246.5" y="111.0" type="qcurve" smooth="yes"/>
      <point x="246.5" y="615.0" type="line"/>
      <point x="100.5" y="615.0" type="line"/>
      <point x="100.5" y="861.0" type="line"/>
      <point x="246.5" y="861.0" type="line"/>
      <point x="246.5" y="1078.5" type="line" smooth="yes"/>
      <point x="246.5" y="1272.5"/>
      <point x="477.5" y="1478.0"/>
      <point x="661.0" y="1478.0" type="qcurve" smooth="yes"/>
      <point x="740.0" y="1478.0"/>
      <point x="878.0" y="1448.5"/>
      <point x="935.5" y="1418.5" type="qcurve"/>
      <point x="847.0" y="1190.5" type="line"/>
      <point x="817.0" y="1206.5"/>
      <point x="757.5" y="1221.5"/>
      <point x="724.5" y="1221.5" type="qcurve" smooth="yes"/>
      <point x="653.0" y="1221.5"/>
      <point x="581.0" y="1127.0"/>
      <point x="581.0" y="1021.5" type="qcurve" smooth="yes"/>
      <point x="581.0" y="861.0" type="line"/>
    </contour>
  </outline>
</glyph>
<glyph name="schwa" format="2">
  <advance width="1062"/>
  <unicode hex="0259"/>
  <outline>
    <contour>
      <point x="1023.5" y="474.0" type="qcurve" smooth="yes"/>
      <point x="1023.5" y="442.0" type="line" smooth="yes"/>
      <point x="1023.5" y="228.5"/>
      <point x="746.0" y="-23.5"/>
      <point x="510.5" y="-23.5" type="qcurve" smooth="yes"/>
      <point x="280.5" y="-23.5"/>
      <point x="33.0" y="220.0"/>
      <point x="33.0" y="431.5" type="qcurve" smooth="yes"/>
      <point x="33.0" y="484.0" type="line"/>
      <point x="824.5" y="484.0" type="line"/>
      <point x="824.5" y="396.0" type="line"/>
      <point x="363.5" y="396.0" type="line"/>
      <point x="363.5" y="389.0" type="line"/>
      <point x="363.5" y="317.0"/>
      <point x="431.0" y="210.5"/>
      <point x="514.0" y="210.5" type="qcurve" smooth="yes"/>
      <point x="596.5" y="210.5"/>
      <point x="681.5" y="327.0"/>
      <point x="681.5" y="434.5" type="qcurve" smooth="yes"/>
      <point x="681.5" y="476.0" type="line" smooth="yes"/>
      <point x="681.5" y="587.0"/>
      <point x="589.0" y="707.0"/>
      <point x="502.5" y="707.0" type="qcurve" smooth="yes"/>
      <point x="437.5" y="707.0"/>
      <point x="354.0" y="654.5"/>
      <point x="331.0" y="611.0" type="qcurve"/>
      <point x="38.5" y="679.5" type="line"/>
      <point x="84.0" y="804.0"/>
      <point x="303.5" y="942.0"/>
      <point x="500.0" y="942.0" type="qcurve" smooth="yes"/>
      <point x="749.5" y="942.0"/>
      <point x="1023.5" y="692.0"/>
    </contour>
  </outline>
</glyph>
<glyph name="doubleprimemod" format="2">
	<unicode hex="02BA"/>
	<advance width="981"/>
	<outline>
		<contour>
			<point x="156.5" y="1502" type="line"/>
			<point x="469" y="1502" type="line"/>
			<point x="352" y="984" type="line"/>
			<point x="103.5" y="989" type="line"/>
		</contour>
		<contour>
			<point x="576.5" y="1502" type="line"/>
			<point x="889" y="1502" type="line"/>
			<point x="772" y="984" type="line"/>
			<point x="523.5" y="989" type="line"/>
		</contour>
	</outline>
</glyph>
<glyph name="apostrophemod" format="2">
	<unicode hex="02BC"/>
	<advance width="600"/>
	<outline>
		<contour>
			<point x="112.5" y="1089.5" type="line"/>
			<point x="158" y="1117.5"/>
			<point x="236.5" y="1211.5"/>
			<point x="250" y="1265.5" type="qcurve"/>
			<point x="186" y="1265.5"/>
			<point x="107.5" y="1341"/>
			<point x="107.5" y="1400" type="qcurve" smooth="yes"/>
			<point x="107.5" y="1463"/>
			<point x="201.5" y="1546"/>
			<point x="274" y="1546" type="qcurve" smooth="yes"/>
			<point x="356.5" y="1546"/>
			<point x="469.5" y="1437.5"/>
			<point x="469.5" y="1352" type="qcurve" smooth="yes"/>
			<point x="469.5" y="1242"/>
			<point x="307.5" y="1060"/>
			<point x="172" y="1002" type="qcurve"/>
		</contour>
	</outline>
</glyph>
<glyph name="circumflex" format="2">
  <advance width="1024"/>
  <unicode hex="02C6"/>
  <outline>
    <contour>
      <point x="576.0" y="1345.0" type="line"/>
      <point x="866.5" y="979.0" type="line"/>
      <point x="627.0" y="979.0" type="line"/>
      <point x="507.0" y="1115.5" type="line"/>
      <point x="388.0" y="979.0" type="line"/>
      <point x="154.0" y="979.0" type="line"/>
      <point x="440.5" y="1345.0" type="line"/>
    </contour>
  </outline>
</glyph>
<glyph name="caron" format="2">
  <advance width="1024"/>
  <unicode hex="02C7"/>
  <outline>
    <contour>
      <point x="384.5" y="974.0" type="line"/>
      <point x="154.0" y="1311.0" type="line"/>
      <point x="403.5" y="1311.0" type="line"/>
      <point x="513.5" y="1164.5" type="line"/>
      <point x="622.5" y="1311.0" type="line"/>
      <point x="866.5" y="1311.0" type="line"/>
      <point x="640.0" y="974.0" type="line"/>
    </contour>
  </outline>
</glyph>
<glyph name="breve" format="2">
	<unicode hex="02D8"/>
	<advance width="1022"/>
	<outline>
		<contour>
			<point x="716.5" y="1318" type="qcurve"/>
			<point x="872" y="1262.5" type="line"/>
			<point x="831" y="1145.5"/>
			<point x="641" y="964"/>
			<point x="512" y="964" type="qcurve" smooth="yes"/>
			<point x="385" y="964"/>
			<point x="195.5" y="1144"/>
			<point x="152" y="1263" type="qcurve"/>
			<point x="314" y="1318" type="line"/>
			<point x="353.5" y="1258"/>
			<point x="451" y="1189.5"/>
			<point x="513" y="1189.5" type="qcurve" smooth="yes"/>
			<point x="578.5" y="1189.5"/>
			<point x="677" y="1257"/>
		</contour>
	</outline>
</glyph>
<glyph name="dotaccent" format="2">
	<unicode hex="02D9"/>
	<advance width="1024"/>
	<outline>
		<contour>
			<point x="359.5" y="1129.5" type="qcurve" smooth="yes"/>
			<point x="359.5" y="1193"/>
			<point x="438" y="1280.5"/>
			<point x="512.5" y="1280.5" type="qcurve" smooth="yes"/>
			<point x="586.5" y="1280.5"/>
			<point x="665" y="1193.5"/>
			<point x="665" y="1129.5" type="qcurve" smooth="yes"/>
			<point x="665" y="1068"/>
			<point x="586" y="981"/>
			<point x="512" y="981" type="qcurve" smooth="yes"/>
			<point x="437.5" y="981"/>
			<point x="359.5" y="1068"/>
		</contour>
	</outline>
</glyph>
<glyph name="ring" format="2">
  <advance width="1024"/>
  <unicode hex="02DA"/>
  <outline>
    <contour>
      <point x="269.0" y="1164.0" type="qcurve"/>
      <point x="269.0" y="1261.0"/>
      <point x="409.0" y="1399.0"/>
      <point x="512.0" y="1399.0" type="qcurve" smooth="yes"/>
      <point x="613.0" y="1399.0"/>
      <point x="755.0" y="1261.0"/>
      <point x="755.0" y="1164.0" type="qcurve" smooth="yes"/>
      <point x="755.0" y="1065.5"/>
      <point x="613.0" y="933.0"/>
      <point x="512.0" y="933.0" type="qcurve" smooth="yes"/>
      <point x="409.0" y="933.0"/>
      <point x="269.0" y="1065.5"/>
    </contour>
    <contour>
      <point x="413.0" y="1164.5" type="qcurve"/>
      <point x="413.0" y="1123.5"/>
      <point x="469.0" y="1066.5"/>
      <point x="512.0" y="1066.5" type="qcurve" smooth="yes"/>
      <point x="555.0" y="1066.5"/>
      <point x="611.0" y="1123.0"/>
      <point x="611.0" y="1164.5" type="qcurve" smooth="yes"/>
      <point x="611.0" y="1206.0"/>
      <point x="555.0" y="1264.5"/>
      <point x="512.0" y="1264.5" type="qcurve" smooth="yes"/>
      <point x="469.0" y="1264.5"/>
      <point x="413.0" y="1206.0"/>
    </contour>
  </outline>
</glyph>
<glyph name="ogonek" format="2">
	<unicode hex="02DB"/>
	<advance width="1024"/>
	<outline>
		<contour>
			<point x="494" y="50" type="qcurve"/>
			<point x="619.5" y="1.5" type="line"/>
			<point x="562" y="-39.5"/>
			<point x="480" y="-128.5"/>
			<point x="480" y="-170.5" type="qcurve" smooth="yes"/>
			<point x="480" y="-197"/>
			<point x="513" y="-227.5"/>
			<point x="543" y="-227.5" type="qcurve" smooth="yes"/>
			<point x="572" y="-227.5"/>
			<point x="630" y="-212.5"/>
			<point x="651" y="-201" type="qcurve"/>
			<point x="667.5" y="-369" type="line"/>
			<point x="632.5" y="-387.5"/>
			<point x="527" y="-413"/>
			<point x="459" y="-413" type="qcurve" smooth="yes"/>
			<point x="357" y="-413"/>
			<point x="229.5" y="-317.5"/>
			<point x="229.5" y="-237" type="qcurve" smooth="yes"/>
			<point x="229.5" y="-162.5"/>
			<point x="376.5" y="-14"/>
		</contour>
	</outline>
</glyph>
<glyph name="tilde" format="2">
  <advance width="1024"/>
  <unicode hex="02DC"/>
  <outline>
    <contour>
      <point x="120.0" y="1145.5" type="line"/>
      <point x="156.0" y="1227.5"/>
      <point x="302.0" y="1351.0"/>
      <point x="377.0" y="1351.0" type="qcurve" smooth="yes"/>
      <point x="421.5" y="1351.0"/>
      <point x="501.5" y="1325.0"/>
      <point x="541.0" y="1303.5" type="qcurve" smooth="yes"/>
      <point x="578.5" y="1284.0"/>
      <point x="658.0" y="1246.5"/>
      <point x="699.5" y="1246.5" type="qcurve" smooth="yes"/>
      <point x="743.5" y="1246.5"/>
      <point x="821.5" y="1294.5"/>
      <point x="846.0" y="1327.5" type="qcurve"/>
      <point x="930.0" y="1197.5" type="line"/>
      <point x="889.5" y="1107.5"/>
      <point x="755.0" y="1015.5"/>
      <point x="684.5" y="1015.5" type="qcurve" smooth="yes"/>
      <point x="631.0" y="1015.5"/>
      <point x="534.5" y="1057.5"/>
      <point x="501.0" y="1073.5" type="qcurve" smooth="yes"/>
      <point x="464.0" y="1091.5"/>
      <point x="390.5" y="1120.5"/>
      <point x="359.5" y="1120.5" type="qcurve" smooth="yes"/>
      <point x="308.5" y="1120.5"/>
      <point x="216.0" y="1053.0"/>
      <point x="196.5" y="1028.0" type="qcurve"/>
    </contour>
  </outline>
</glyph>
<glyph name="hungarumlaut" format="2">
  <advance width="1024"/>
  <unicode hex="02DD"/>
  <outline>
    <contour>
      <point x="146.5" y="1136.5" type="line"/>
      <point x="365.5" y="1475.5" type="line"/>
      <point x="569.5" y="1331.0" type="line"/>
      <point x="314.0" y="1025.0" type="line"/>
    </contour>
    <contour>
      <point x="520.0" y="1136.5" type="line"/>
      <point x="739.5" y="1475.5" type="line"/>
      <point x="943.5" y="1331.0" type="line"/>
      <point x="688.0" y="1025.0" type="line"/>
    </contour>
  </outline>
</glyph>
<glyph name="hookabovecomb" format="2">
  <advance width="1024"/>
  <unicode hex="0309"/>
  <outline>
    <contour>
      <point x="363.0" y="957.0" type="line"/>
      <point x="363.0" y="998.5" type="line" smooth="yes"/>
      <point x="363.0" y="1064.0"/>
      <point x="428.5" y="1121.5"/>
      <point x="510.0" y="1128.5" type="qcurve" smooth="yes"/>
      <point x="557.5" y="1133.5"/>
      <point x="593.5" y="1165.0"/>
      <point x="593.5" y="1197.5" type="qcurve" smooth="yes"/>
      <point x="593.5" y="1225.0"/>
      <point x="546.5" y="1254.0"/>
      <point x="494.5" y="1254.0" type="qcurve" smooth="yes"/>
      <point x="436.0" y="1254.0"/>
      <point x="323.5" y="1226.0"/>
      <point x="313.5" y="1220.0" type="qcurve"/>
      <point x="255.0" y="1351.0" type="line"/>
      <point x="288.5" y="1369.0"/>
      <point x="444.0" y="1408.0"/>
      <point x="529.0" y="1408.0" type="qcurve" smooth="yes"/>
      <point x="653.0" y="1408.0"/>
      <point x="789.0" y="1299.0"/>
      <point x="789.0" y="1207.0" type="qcurve" smooth="yes"/>
      <point x="789.0" y="1111.0"/>
      <point x="669.0" y="1002.0"/>
      <point x="514.0" y="992.0" type="qcurve"/>
      <point x="514.0" y="957.0" type="line"/>
    </contour>
  </outline>
</glyph>
<glyph name="breveinvertedcomb" format="2">
  <advance width="1024"/>
  <unicode hex="030F"/>
  <outline>
    <contour>
      <point x="308.0" y="969.0" type="qcurve"/>
      <point x="152.0" y="1025.0" type="line"/>
      <point x="191.0" y="1133.5"/>
      <point x="377.0" y="1323.0"/>
      <point x="512.0" y="1323.0" type="qcurve" smooth="yes"/>
      <point x="633.0" y="1323.0"/>
      <point x="826.5" y="1151.0"/>
      <point x="872.0" y="1023.5" type="qcurve"/>
      <point x="710.5" y="969.0" type="line"/>
      <point x="671.5" y="1029.0"/>
      <point x="573.0" y="1097.5"/>
      <point x="510.0" y="1097.5" type="qcurve" smooth="yes"/>
      <point x="445.5" y="1097.5"/>
      <point x="348.0" y="1030.0"/>
    </contour>
  </outline>
</glyph>
<glyph name="horncomb" format="2">
  <advance width="1024"/>
  <unicode hex="031B"/>
  <anchor x="63.5" y="914.0" name="_topright"/>
  <anchor x="64.0" y="1169.0" name="topright"/>
  <outline>
    <contour>
      <point x="0.0" y="914.0" type="line"/>
      <point x="76.0" y="914.0" type="line" smooth="yes"/>
      <point x="136.5" y="914.0"/>
      <point x="196.5" y="953.5"/>
      <point x="196.5" y="1005.0" type="qcurve" smooth="yes"/>
      <point x="196.5" y="1053.0"/>
      <point x="181.0" y="1132.5"/>
      <point x="170.5" y="1169.0" type="qcurve"/>
      <point x="347.0" y="1169.0" type="line"/>
      <point x="368.5" y="1136.0"/>
      <point x="405.5" y="1033.0"/>
      <point x="405.5" y="960.5" type="qcurve" smooth="yes"/>
      <point x="405.5" y="874.5"/>
      <point x="270.5" y="779.0"/>
      <point x="162.5" y="779.0" type="qcurve" smooth="yes"/>
      <point x="110.5" y="779.0"/>
      <point x="29.5" y="790.5"/>
      <point x="0.0" y="799.5" type="qcurve"/>
    </contour>
  </outline>
</glyph>
<glyph name="dotbelowcomb" format="2">
  <advance width="1024"/>
  <unicode hex="0323"/>
  <outline>
    <contour>
      <point x="359.0" y="-315.0" type="qcurve" smooth="yes"/>
      <point x="359.0" y="-251.5"/>
      <point x="437.5" y="-164.0"/>
      <point x="512.0" y="-164.0" type="qcurve" smooth="yes"/>
      <point x="586.0" y="-164.0"/>
      <point x="664.5" y="-251.0"/>
      <point x="664.5" y="-315.0" type="qcurve" smooth="yes"/>
      <point x="664.5" y="-376.5"/>
      <point x="585.5" y="-463.5"/>
      <point x="511.5" y="-463.5" type="qcurve" smooth="yes"/>
      <point x="437.0" y="-463.5"/>
      <point x="359.0" y="-376.5"/>
    </contour>
  </outline>
</glyph>
<glyph name="dieresisbelowcomb" format="2">
  <advance width="1024"/>
  <unicode hex="0324"/>
  <outline>
    <contour>
      <point x="130.5" y="-339.0" type="qcurve" smooth="yes"/>
      <point x="130.5" y="-274.5"/>
      <point x="210.0" y="-186.0"/>
      <point x="286.5" y="-186.0" type="qcurve" smooth="yes"/>
      <point x="363.0" y="-186.0"/>
      <point x="443.0" y="-274.5"/>
      <point x="443.0" y="-339.0" type="qcurve" smooth="yes"/>
      <point x="443.0" y="-399.5"/>
      <point x="363.0" y="-486.5"/>
      <point x="286.5" y="-486.5" type="qcurve" smooth="yes"/>
      <point x="210.0" y="-486.5"/>
      <point x="130.5" y="-399.5"/>
    </contour>
    <contour>
      <point x="581.0" y="-341.0" type="qcurve" smooth="yes"/>
      <point x="581.0" y="-276.5"/>
      <point x="659.5" y="-188.0"/>
      <point x="736.5" y="-188.0" type="qcurve" smooth="yes"/>
      <point x="811.5" y="-188.0"/>
      <point x="893.0" y="-276.5"/>
      <point x="893.0" y="-341.0" type="qcurve" smooth="yes"/>
      <point x="893.0" y="-401.5"/>
      <point x="811.5" y="-488.5"/>
      <point x="736.5" y="-488.5" type="qcurve" smooth="yes"/>
      <point x="659.5" y="-488.5"/>
      <point x="581.0" y="-401.5"/>
    </contour>
  </outline>
</glyph>
<glyph name="commaaccentcomb" format="2">
	<unicode hex="0326"/>
	<advance width="1024"/>
	<outline>
		<contour>
			<point x="315" y="-528" type="line"/>
			<point x="344" y="-424"/>
			<point x="380" y="-284"/>
			<point x="403" y="-156" type="qcurve"/>
			<point x="730" y="-154" type="line"/>
			<point x="608" y="-531" type="line"/>
		</contour>
	</outline>
</glyph>
<glyph name="brevebelowcomb" format="2">
  <advance width="1024"/>
  <unicode hex="032E"/>
  <anchor x="512.0" y="0" name="_bottom"/>
  <anchor x="512.0" y="-447.5" name="bottom"/>
  <outline>
    <contour>
      <point x="714.0" y="-91.5" type="qcurve"/>
      <point x="872.0" y="-149.5" type="line"/>
      <point x="833.0" y="-258.0"/>
      <point x="647.0" y="-447.5"/>
      <point x="512.0" y="-447.5" type="qcurve" smooth="yes"/>
      <point x="391.0" y="-447.5"/>
      <point x="197.5" y="-275.5"/>
      <point x="152.0" y="-148.0" type="qcurve"/>
      <point x="320.0" y="-91.5" type="line"/>
      <point x="348.5" y="-135.5"/>
      <point x="448.5" y="-212.0"/>
      <point x="514.0" y="-212.0" type="qcurve" smooth="yes"/>
      <point x="584.0" y="-212.0"/>
      <point x="683.5" y="-137.5"/>
    </contour>
  </outline>
</glyph>
<glyph name="macronbelowcomb" format="2">
	<unicode hex="0331"/>
	<advance width="1024"/>
	<outline>
		<contour>
			<point x="197" y="-367" type="line"/>
			<point x="197" y="-123" type="line"/>
			<point x="827" y="-123" type="line"/>
			<point x="827" y="-367" type="line"/>
		</contour>
	</outline>
</glyph>
<glyph name="numeralsign" format="2">
  <advance width="726"/>
  <unicode hex="0374"/>
  <outline>
    <contour>
      <point x="332.0" y="1066.5" type="line"/>
      <point x="159.0" y="1104.5" type="line"/>
      <point x="259.5" y="1581.0" type="line"/>
      <point x="520.0" y="1541.0" type="line"/>
    </contour>
  </outline>
</glyph>
<glyph name="tonos" format="2">
  <advance width="889"/>
  <unicode hex="0384"/>
  <outline>
    <contour>
      <point x="469.5" y="1218.0" type="line"/>
      <point x="296.5" y="1256.0" type="line"/>
      <point x="380.0" y="1663.0" type="line"/>
      <point x="640.5" y="1623.0" type="line"/>
    </contour>
  </outline>
</glyph>
<glyph name="dieresistonos" format="2">
	<unicode hex="0385"/>
	<advance width="1140"/>
	<outline>
		<contour>
			<point x="262.5" y="1226.5" type="qcurve" smooth="yes"/>
			<point x="195" y="1226.5"/>
			<point x="123.5" y="1301"/>
			<point x="123.5" y="1354.5" type="qcurve" smooth="yes"/>
			<point x="123.5" y="1409.5"/>
			<point x="195.5" y="1484"/>
			<point x="263" y="1484" type="qcurve" smooth="yes"/>
			<point x="330" y="1484"/>
			<point x="402.5" y="1409.5"/>
			<point x="402.5" y="1354.5" type="qcurve" smooth="yes"/>
			<point x="402.5" y="1301"/>
			<point x="330" y="1226.5"/>
		</contour>
		<contour>
			<point x="623" y="1215.5" type="line"/>
			<point x="466.5" y="1228" type="line"/>
			<point x="487" y="1647" type="line"/>
			<point x="735" y="1647" type="line"/>
		</contour>
		<contour>
			<point x="875.5" y="1225.5" type="qcurve" smooth="yes"/>
			<point x="808" y="1225.5"/>
			<point x="737" y="1300"/>
			<point x="737" y="1353.5" type="qcurve" smooth="yes"/>
			<point x="737" y="1408.5"/>
			<point x="808.5" y="1483"/>
			<point x="876" y="1483" type="qcurve" smooth="yes"/>
			<point x="943.5" y="1483"/>
			<point x="1016" y="1408.5"/>
			<point x="1016" y="1353.5" type="qcurve" smooth="yes"/>
			<point x="1016" y="1300"/>
			<point x="943.5" y="1225.5"/>
		</contour>
	</outline>
</glyph>
<glyph name="Delta" format="2">
  <advance width="1304"/>
  <unicode hex="0394"/>
  <outline>
    <contour>
      <point x="19.5" y="0.0" type="line"/>
      <point x="19.5" y="149.5" type="line"/>
      <point x="492.0" y="1463.0" type="line"/>
      <point x="814.5" y="1463.0" type="line"/>
      <point x="1292.0" y="149.5" type="line"/>
      <point x="1292.0" y="0.0" type="line"/>
    </contour>
    <contour>
      <point x="322.5" y="228.0" type="line"/>
      <point x="945.0" y="228.0" type="line"/>
      <point x="674.5" y="1019.5" type="line" smooth="yes"/>
      <point x="663.0" y="1053.0"/>
      <point x="646.0" y="1115.0"/>
      <point x="640.0" y="1146.5" type="qcurve"/>
      <point x="631.5" y="1146.5" type="line"/>
      <point x="626.0" y="1115.0"/>
      <point x="607.0" y="1053.0"/>
      <point x="596.5" y="1019.5" type="qcurve" smooth="yes"/>
    </contour>
  </outline>
</glyph>
<glyph name="Theta" format="2">
  <advance width="1537"/>
  <unicode hex="0398"/>
  <outline>
    <contour>
      <point x="767.0" y="-29.5" type="qcurve" smooth="yes"/>
      <point x="479.5" y="-29.5"/>
      <point x="115.0" y="334.5"/>
      <point x="115.0" y="682.5" type="qcurve" smooth="yes"/>
      <point x="115.0" y="773.5" type="line" smooth="yes"/>
      <point x="115.0" y="1121.5"/>
      <point x="479.5" y="1485.5"/>
      <point x="767.0" y="1485.5" type="qcurve" smooth="yes"/>
      <point x="1054.0" y="1485.5"/>
      <point x="1422.0" y="1121.5"/>
      <point x="1422.0" y="773.5" type="qcurve" smooth="yes"/>
      <point x="1422.0" y="682.5" type="line" smooth="yes"/>
      <point x="1422.0" y="334.5"/>
      <point x="1054.0" y="-29.5"/>
    </contour>
    <contour>
      <point x="767.0" y="206.0" type="qcurve" smooth="yes"/>
      <point x="932.0" y="206.0"/>
      <point x="1118.0" y="428.0"/>
      <point x="1118.0" y="654.5" type="qcurve" smooth="yes"/>
      <point x="1118.0" y="801.0" type="line" smooth="yes"/>
      <point x="1118.0" y="1028.0"/>
      <point x="932.0" y="1249.5"/>
      <point x="767.0" y="1249.5" type="qcurve" smooth="yes"/>
      <point x="602.5" y="1249.5"/>
      <point x="419.5" y="1028.0"/>
      <point x="419.5" y="801.0" type="qcurve" smooth="yes"/>
      <point x="419.5" y="654.5" type="line" smooth="yes"/>
      <point x="419.5" y="428.0"/>
      <point x="602.5" y="206.0"/>
    </contour>
    <contour>
      <point x="544.0" y="614.0" type="line"/>
      <point x="544.0" y="857.0" type="line"/>
      <point x="993.5" y="857.0" type="line"/>
      <point x="993.5" y="614.0" type="line"/>
    </contour>
  </outline>
</glyph>
<glyph name="Lambda" format="2">
	<unicode hex="039B"/>
	<advance width="1251"/>
	<outline>
		<contour>
			<point x="-17.5" y="0" type="line"/>
			<point x="465.5" y="1463" type="line"/>
			<point x="788" y="1463" type="line"/>
			<point x="1276" y="0" type="line"/>
			<point x="946" y="0" type="line"/>
			<point x="647.5" y="1019.5" type="line" smooth="yes"/>
			<point x="638" y="1053"/>
			<point x="621" y="1115"/>
			<point x="613.5" y="1146.5" type="qcurve"/>
			<point x="605" y="1146.5" type="line"/>
			<point x="598" y="1115"/>
			<point x="581" y="1053"/>
			<point x="571" y="1019.5" type="qcurve" smooth="yes"/>
			<point x="268" y="0" type="line"/>
		</contour>
	</outline>
</glyph>
<glyph name="Xi" format="2">
  <advance width="1092"/>
  <unicode hex="039E"/>
  <outline>
    <contour>
      <point x="54.0" y="0.0" type="line"/>
      <point x="54.0" y="280.5" type="line"/>
      <point x="1048.0" y="280.5" type="line"/>
      <point x="1048.0" y="0.0" type="line"/>
    </contour>
    <contour>
      <point x="137.0" y="609.5" type="line"/>
      <point x="137.0" y="865.0" type="line"/>
      <point x="965.0" y="865.0" type="line"/>
      <point x="965.0" y="609.5" type="line"/>
    </contour>
    <contour>
      <point x="54.0" y="1165.5" type="line"/>
      <point x="54.0" y="1456.0" type="line"/>
      <point x="1048.0" y="1456.0" type="line"/>
      <point x="1048.0" y="1165.5" type="line"/>
    </contour>
  </outline>
</glyph>
<glyph name="Sigma" format="2">
	<unicode hex="03A3"/>
	<advance width="1191"/>
	<outline>
		<contour>
			<point x="49" y="0" type="line"/>
			<point x="49" y="190.5" type="line"/>
			<point x="504.5" y="732.5" type="line"/>
			<point x="503.5" y="676.5" type="line"/>
			<point x="61" y="1229" type="line"/>
			<point x="61" y="1456" type="line"/>
			<point x="1112" y="1456" type="line"/>
			<point x="1112" y="1224" type="line"/>
			<point x="411.5" y="1224" type="line"/>
			<point x="417" y="1268" type="line"/>
			<point x="835" y="750" type="line"/>
			<point x="835" y="710" type="line"/>
			<point x="380.5" y="156" type="line"/>
			<point x="375" y="232.5" type="line"/>
			<point x="1144" y="232.5" type="line"/>
			<point x="1144" y="0" type="line"/>
		</contour>
	</outline>
</glyph>
<glyph name="Psi" format="2">
	<unicode hex="03A8"/>
	<advance width="1718"/>
	<outline>
		<contour>
			<point x="720" y="0" type="line"/>
			<point x="720" y="1456" type="line"/>
			<point x="1003.5" y="1456" type="line"/>
			<point x="1003.5" y="0" type="line"/>
		</contour>
		<contour>
			<point x="812" y="333" type="line"/>
			<point x="764" y="333" type="line" smooth="yes"/>
			<point x="458.5" y="333"/>
			<point x="137.5" y="625.5"/>
			<point x="137.5" y="928" type="qcurve" smooth="yes"/>
			<point x="137.5" y="1456" type="line"/>
			<point x="433.5" y="1456" type="line"/>
			<point x="433.5" y="916" type="line" smooth="yes"/>
			<point x="433.5" y="718.5"/>
			<point x="590.5" y="565.5"/>
			<point x="754" y="565.5" type="qcurve" smooth="yes"/>
			<point x="812" y="565.5" type="line"/>
		</contour>
		<contour>
			<point x="904.5" y="333" type="line"/>
			<point x="904.5" y="565.5" type="line"/>
			<point x="971.5" y="565.5" type="line" smooth="yes"/>
			<point x="1134.5" y="565.5"/>
			<point x="1290.5" y="718.5"/>
			<point x="1290.5" y="916" type="qcurve" smooth="yes"/>
			<point x="1290.5" y="1456" type="line"/>
			<point x="1579.5" y="1456" type="line"/>
			<point x="1579.5" y="928" type="line" smooth="yes"/>
			<point x="1579.5" y="625.5"/>
			<point x="1258" y="333"/>
			<point x="952.5" y="333" type="qcurve" smooth="yes"/>
		</contour>
	</outline>
</glyph>
<glyph name="Omega" format="2">
  <advance width="1518"/>
  <unicode hex="03A9"/>
  <anchor x="100.0" y="1456.0" name="GRK_topleft"/>
  <outline>
    <contour>
      <point x="99.5" y="0.0" type="line"/>
      <point x="99.5" y="234.0" type="line"/>
      <point x="443.0" y="234.0" type="line"/>
      <point x="443.0" y="334.0" type="line"/>
      <point x="287.0" y="391.0"/>
      <point x="99.5" y="641.0"/>
      <point x="99.5" y="850.0" type="qcurve"/>
      <point x="99.5" y="891.0" type="line"/>
      <point x="99.5" y="1171.0"/>
      <point x="458.0" y="1486.0"/>
      <point x="760.0" y="1486.0" type="qcurve"/>
      <point x="1061.5" y="1486.0"/>
      <point x="1418.5" y="1170.5"/>
      <point x="1418.5" y="891.0" type="qcurve"/>
      <point x="1418.5" y="850.0" type="line"/>
      <point x="1418.5" y="641.0"/>
      <point x="1231.0" y="391.0"/>
      <point x="1075.0" y="334.0" type="qcurve"/>
      <point x="1075.0" y="234.0" type="line"/>
      <point x="1418.5" y="234.0" type="line"/>
      <point x="1418.5" y="0.0" type="line"/>
      <point x="853.0" y="0.0" type="line"/>
      <point x="853.0" y="479.5" type="line"/>
      <point x="983.5" y="506.5"/>
      <point x="1107.0" y="697.0"/>
      <point x="1107.0" y="841.0" type="qcurve"/>
      <point x="1107.0" y="884.0" type="line"/>
      <point x="1107.0" y="1064.5"/>
      <point x="924.0" y="1249.5"/>
      <point x="759.0" y="1249.5" type="qcurve"/>
      <point x="594.0" y="1249.5"/>
      <point x="412.0" y="1064.5"/>
      <point x="412.0" y="884.0" type="qcurve"/>
      <point x="412.0" y="841.0" type="line"/>
      <point x="412.0" y="697.0"/>
      <point x="534.5" y="506.5"/>
      <point x="665.0" y="479.5" type="qcurve"/>
      <point x="665.0" y="0.0" type="line"/>
    </contour>
  </outline>
</glyph>
<glyph name="alpha" format="2">
  <advance width="1311"/>
  <unicode hex="03B1"/>
  <anchor x="546.0" y="1052.5" name="GRK_top"/>
  <outline>
    <contour>
      <point x="530.5" y="-20.0" type="qcurve" smooth="yes"/>
      <point x="326.5" y="-20.0"/>
      <point x="73.0" y="267.0"/>
      <point x="73.0" y="511.5" type="qcurve" smooth="yes"/>
      <point x="73.0" y="544.0" type="line" smooth="yes"/>
      <point x="73.0" y="783.0"/>
      <point x="328.0" y="1075.5"/>
      <point x="525.0" y="1075.5" type="qcurve" smooth="yes"/>
      <point x="629.5" y="1075.5"/>
      <point x="779.0" y="998.5"/>
      <point x="817.5" y="935.5" type="qcurve"/>
      <point x="822.0" y="935.5" type="line"/>
      <point x="828.5" y="1055.5" type="line"/>
      <point x="1109.5" y="1055.5" type="line"/>
      <point x="1109.5" y="319.5" type="line" smooth="yes"/>
      <point x="1109.5" y="247.0"/>
      <point x="1157.5" y="194.0"/>
      <point x="1200.0" y="194.0" type="qcurve"/>
      <point x="1216.5" y="194.0"/>
      <point x="1254.0" y="203.0"/>
      <point x="1270.0" y="210.0" type="qcurve"/>
      <point x="1270.0" y="-3.0" type="line"/>
      <point x="1253.5" y="-12.5"/>
      <point x="1177.5" y="-29.5"/>
      <point x="1127.0" y="-29.5" type="qcurve" smooth="yes"/>
      <point x="1011.0" y="-29.5"/>
      <point x="880.0" y="60.5"/>
      <point x="862.0" y="143.5" type="qcurve"/>
      <point x="856.5" y="143.5" type="line"/>
      <point x="802.5" y="57.5"/>
      <point x="641.5" y="-20.0"/>
    </contour>
    <contour>
      <point x="598.0" y="204.5" type="qcurve" smooth="yes"/>
      <point x="675.0" y="204.5"/>
      <point x="788.5" y="287.0"/>
      <point x="813.0" y="351.5" type="qcurve"/>
      <point x="813.0" y="709.0" type="line"/>
      <point x="785.5" y="772.0"/>
      <point x="673.0" y="851.0"/>
      <point x="598.5" y="851.0" type="qcurve" smooth="yes"/>
      <point x="487.0" y="851.0"/>
      <point x="376.5" y="694.0"/>
      <point x="376.5" y="558.0" type="qcurve" smooth="yes"/>
      <point x="376.5" y="495.5" type="line" smooth="yes"/>
      <point x="376.5" y="362.0"/>
      <point x="486.5" y="204.5"/>
    </contour>
  </outline>
</glyph>
<glyph name="beta" format="2">
	<unicode hex="03B2"/>
	<advance width="1256"/>
	<outline>
		<contour>
			<point x="130" y="-416" type="line"/>
			<point x="130" y="1058" type="line" smooth="yes"/>
			<point x="130" y="1313.5"/>
			<point x="403" y="1556"/>
			<point x="629" y="1556" type="qcurve" smooth="yes"/>
			<point x="846" y="1556"/>
			<point x="1094.5" y="1350"/>
			<point x="1094.5" y="1152" type="qcurve" smooth="yes"/>
			<point x="1094.5" y="1036.5"/>
			<point x="956" y="850.5"/>
			<point x="847.5" y="824" type="qcurve"/>
			<point x="847.5" y="850" type="line"/>
			<point x="1013.5" y="820"/>
			<point x="1182.5" y="616"/>
			<point x="1182.5" y="463" type="qcurve" smooth="yes"/>
			<point x="1182.5" y="243"/>
			<point x="917.5" y="-21"/>
			<point x="718.5" y="-21" type="qcurve" smooth="yes"/>
			<point x="619.5" y="-21"/>
			<point x="468.5" y="47.5"/>
			<point x="427" y="105" type="qcurve"/>
			<point x="427" y="-416" type="line"/>
		</contour>
		<contour>
			<point x="652.5" y="205" type="qcurve" smooth="yes"/>
			<point x="764.5" y="205"/>
			<point x="878.5" y="348.5"/>
			<point x="878.5" y="457" type="qcurve" smooth="yes"/>
			<point x="878.5" y="568.5"/>
			<point x="753" y="690.5"/>
			<point x="605" y="690.5" type="qcurve" smooth="yes"/>
			<point x="531.5" y="690.5" type="line"/>
			<point x="531.5" y="917" type="line"/>
			<point x="603" y="917" type="line" smooth="yes"/>
			<point x="707.5" y="917"/>
			<point x="802.5" y="1027.5"/>
			<point x="802.5" y="1121.5" type="qcurve" smooth="yes"/>
			<point x="802.5" y="1227.5"/>
			<point x="709.5" y="1330.5"/>
			<point x="622" y="1330.5" type="qcurve" smooth="yes"/>
			<point x="522.5" y="1330.5"/>
			<point x="427" y="1200.5"/>
			<point x="427" y="1065" type="qcurve" smooth="yes"/>
			<point x="427" y="350" type="line"/>
			<point x="456.5" y="281.5"/>
			<point x="568.5" y="205"/>
		</contour>
	</outline>
</glyph>
<glyph name="gamma" format="2">
  <advance width="993"/>
  <unicode hex="03B3"/>
  <outline>
    <contour>
      <point x="350.0" y="-366.0" type="line"/>
      <point x="350.0" y="22.0" type="line"/>
      <point x="-21.0" y="1055.0" type="line"/>
      <point x="280.0" y="1055.0" type="line"/>
      <point x="471.5" y="435.5" type="line" smooth="yes"/>
      <point x="483.0" y="397.5"/>
      <point x="497.5" y="335.5"/>
      <point x="501.5" y="307.0" type="qcurve"/>
      <point x="508.0" y="307.0" type="line"/>
      <point x="512.0" y="335.5"/>
      <point x="526.0" y="397.0"/>
      <point x="538.0" y="435.5" type="qcurve" smooth="yes"/>
      <point x="739.0" y="1055.0" type="line"/>
      <point x="1006.5" y="1055.0" type="line"/>
      <point x="630.5" y="18.0" type="line"/>
      <point x="630.5" y="-366.0" type="line"/>
    </contour>
  </outline>
</glyph>
<glyph name="epsilon" format="2">
  <advance width="1151"/>
  <unicode hex="03B5"/>
  <anchor x="588.0" y="1055.5" name="GRK_top"/>
  <outline>
    <contour>
      <point x="574.5" y="-30.0" type="qcurve"/>
      <point x="334.5" y="-30.0"/>
      <point x="75.0" y="138.0"/>
      <point x="75.0" y="291.0" type="qcurve" smooth="yes"/>
      <point x="75.0" y="385.0"/>
      <point x="209.0" y="529.0"/>
      <point x="359.0" y="541.0" type="qcurve"/>
      <point x="358.0" y="519.0" type="line"/>
      <point x="241.0" y="536.0"/>
      <point x="108.5" y="658.0"/>
      <point x="108.5" y="756.0" type="qcurve"/>
      <point x="108.5" y="900.5"/>
      <point x="359.0" y="1085.5"/>
      <point x="602.0" y="1085.5" type="qcurve" smooth="yes"/>
      <point x="839.5" y="1085.5"/>
      <point x="1101.0" y="857.0"/>
      <point x="1101.0" y="690.0" type="qcurve"/>
      <point x="812.0" y="690.0" type="line"/>
      <point x="812.0" y="778.5"/>
      <point x="707.5" y="870.0"/>
      <point x="607.0" y="870.0" type="qcurve" smooth="yes"/>
      <point x="513.5" y="870.0"/>
      <point x="423.5" y="806.0"/>
      <point x="423.5" y="746.0" type="qcurve" smooth="yes"/>
      <point x="423.5" y="693.5"/>
      <point x="494.5" y="635.0"/>
      <point x="571.0" y="635.0" type="qcurve"/>
      <point x="724.0" y="635.0" type="line"/>
      <point x="724.0" y="435.0" type="line"/>
      <point x="556.0" y="435.0" type="line" smooth="yes"/>
      <point x="464.0" y="435.0"/>
      <point x="391.0" y="374.0"/>
      <point x="391.0" y="321.0" type="qcurve" smooth="yes"/>
      <point x="391.0" y="265.0"/>
      <point x="481.5" y="192.0"/>
      <point x="584.5" y="192.0" type="qcurve"/>
      <point x="691.0" y="192.0"/>
      <point x="807.5" y="292.5"/>
      <point x="811.0" y="372.0" type="qcurve"/>
      <point x="1101.0" y="372.0" type="line"/>
      <point x="1101.0" y="196.5"/>
      <point x="809.0" y="-30.0"/>
    </contour>
  </outline>
</glyph>
<glyph name="zeta" format="2">
	<unicode hex="03B6"/>
	<advance width="916"/>
	<outline>
		<contour>
			<point x="631.5" y="-348" type="line"/>
			<point x="655" y="-282"/>
			<point x="673.5" y="-174"/>
			<point x="673.5" y="-132" type="qcurve"/>
			<point x="673.5" y="-74.5"/>
			<point x="583.5" y="-30"/>
			<point x="490" y="-11" type="qcurve" smooth="yes"/>
			<point x="409.5" y="6.5" type="line" smooth="yes"/>
			<point x="228" y="44"/>
			<point x="63" y="215"/>
			<point x="63" y="365" type="qcurve" smooth="yes"/>
			<point x="63" y="505"/>
			<point x="249.5" y="810"/>
			<point x="392" y="1008" type="qcurve" smooth="yes"/>
			<point x="642.5" y="1358.5" type="line"/>
			<point x="644" y="1299.5" type="line"/>
			<point x="109.5" y="1299.5" type="line"/>
			<point x="109.5" y="1536" type="line"/>
			<point x="937.5" y="1536" type="line"/>
			<point x="937.5" y="1354" type="line"/>
			<point x="637" y="924" type="line" smooth="yes"/>
			<point x="486.5" y="710"/>
			<point x="369" y="502.5"/>
			<point x="369" y="421" type="qcurve" smooth="yes"/>
			<point x="369" y="354.5"/>
			<point x="453.5" y="275.5"/>
			<point x="557" y="251.5" type="qcurve" smooth="yes"/>
			<point x="651" y="231" type="line" smooth="yes"/>
			<point x="808.5" y="196"/>
			<point x="925.5" y="75.5"/>
			<point x="925.5" y="-37" type="qcurve"/>
			<point x="924.5" y="-93"/>
			<point x="879.5" y="-274.5"/>
			<point x="847" y="-348" type="qcurve"/>
		</contour>
	</outline>
	<guideline x="946.5" y="445.5" angle="90" identifier="Hhem4nGbLg"/>
</glyph>
<glyph name="eta" format="2">
  <advance width="1211"/>
  <unicode hex="03B7"/>
  <anchor x="526.0" y="1055.0" name="GRK_top"/>
  <outline>
    <contour>
      <point x="794.0" y="-485.5" type="line"/>
      <point x="794.0" y="669.5" type="line" smooth="yes"/>
      <point x="794.0" y="768.0"/>
      <point x="709.0" y="847.5"/>
      <point x="630.5" y="847.5" type="qcurve" smooth="yes"/>
      <point x="566.5" y="847.5"/>
      <point x="455.5" y="774.5"/>
      <point x="427.0" y="708.5" type="qcurve"/>
      <point x="427.0" y="0.0" type="line"/>
      <point x="130.0" y="0.0" type="line"/>
      <point x="130.0" y="1055.0" type="line"/>
      <point x="412.0" y="1055.0" type="line"/>
      <point x="418.5" y="936.5" type="line"/>
      <point x="424.0" y="936.5" type="line"/>
      <point x="464.5" y="997.5"/>
      <point x="626.0" y="1076.5"/>
      <point x="723.0" y="1076.5" type="qcurve" smooth="yes"/>
      <point x="885.5" y="1076.5"/>
      <point x="1091.0" y="892.0"/>
      <point x="1091.0" y="660.0" type="qcurve" smooth="yes"/>
      <point x="1091.0" y="-485.5" type="line"/>
    </contour>
  </outline>
</glyph>
<glyph name="theta" format="2">
  <advance width="1206"/>
  <unicode hex="03B8"/>
  <outline>
    <contour>
      <point x="603.5" y="-30.0" type="qcurve" smooth="yes"/>
      <point x="365.5" y="-30.0"/>
      <point x="78.0" y="274.0"/>
      <point x="78.0" y="644.0" type="qcurve"/>
      <point x="78.0" y="892.0" type="line"/>
      <point x="78.0" y="1252.0"/>
      <point x="363.5" y="1556.0"/>
      <point x="603.5" y="1556.0" type="qcurve" smooth="yes"/>
      <point x="843.0" y="1556.0"/>
      <point x="1127.5" y="1252.0"/>
      <point x="1127.5" y="892.0" type="qcurve"/>
      <point x="1127.5" y="644.0" type="line"/>
      <point x="1127.5" y="274.0"/>
      <point x="842.5" y="-30.0"/>
    </contour>
    <contour>
      <point x="604.0" y="197.0" type="qcurve" smooth="yes"/>
      <point x="719.0" y="197.0"/>
      <point x="831.0" y="371.0"/>
      <point x="831.0" y="587.5" type="qcurve"/>
      <point x="831.0" y="942.5" type="line" smooth="yes"/>
      <point x="826.5" y="1158.0"/>
      <point x="713.2462686567164" y="1329.0"/>
      <point x="602.0" y="1329.0" type="qcurve" smooth="yes"/>
      <point x="492.5" y="1329.0"/>
      <point x="374.0" y="1158.0"/>
      <point x="374.0" y="942.5" type="qcurve" smooth="yes"/>
      <point x="374.0" y="587.5" type="line" smooth="yes"/>
      <point x="374.0" y="371.0"/>
      <point x="490.0" y="197.0"/>
    </contour>
    <contour>
      <point x="223.0" y="649.0" type="line"/>
      <point x="223.0" y="871.0" type="line"/>
      <point x="957.5" y="871.0" type="line"/>
      <point x="957.5" y="649.0" type="line"/>
    </contour>
  </outline>
</glyph>
<glyph name="iota" format="2">
	<unicode hex="03B9"/>
	<advance width="649"/>
	<outline>
		<contour>
			<point x="450" y="-29.5" type="qcurve" smooth="yes"/>
			<point x="301" y="-29.5"/>
			<point x="120" y="136.5"/>
			<point x="120" y="314" type="qcurve" smooth="yes"/>
			<point x="121" y="1055" type="line"/>
			<point x="416" y="1055" type="line"/>
			<point x="416" y="320" type="line" smooth="yes"/>
			<point x="416" y="248.5"/>
			<point x="469.5" y="194"/>
			<point x="517" y="194" type="qcurve" smooth="yes"/>
			<point x="540" y="194"/>
			<point x="586" y="205.5"/>
			<point x="607.5" y="214" type="qcurve"/>
			<point x="607.5" y="1" type="line"/>
			<point x="584.5" y="-11"/>
			<point x="499.5" y="-29.5"/>
		</contour>
	</outline>
	<anchor name="GRK_top" x="288" y="1055"/>
</glyph>
<glyph name="kappa" format="2">
  <advance width="1136"/>
  <unicode hex="03BA"/>
  <outline>
    <contour>
      <point x="130.0" y="0.0" type="line"/>
      <point x="130.0" y="1055.0" type="line"/>
      <point x="427.0" y="1055.0" type="line"/>
      <point x="427.0" y="0.0" type="line"/>
    </contour>
    <contour>
      <point x="278.5" y="426.5" type="line"/>
      <point x="278.5" y="651.5" type="line"/>
      <point x="503.0" y="651.5" type="line"/>
      <point x="803.0" y="1055.0" type="line"/>
      <point x="1121.0" y="1055.0" type="line"/>
      <point x="651.0" y="426.5" type="line"/>
    </contour>
    <contour>
      <point x="828.0" y="0.0" type="line"/>
      <point x="476.5" y="478.0" type="line"/>
      <point x="696.0" y="604.0" type="line"/>
      <point x="1156.0" y="0.0" type="line"/>
    </contour>
  </outline>
</glyph>
<glyph name="lambda" format="2">
	<unicode hex="03BB"/>
	<advance width="993"/>
	<outline>
		<contour>
			<point x="-21" y="0" type="line"/>
			<point x="373.5" y="1032" type="line"/>
			<point x="358" y="1077" type="line" smooth="yes"/>
			<point x="309" y="1223"/>
			<point x="225" y="1314"/>
			<point x="153" y="1314" type="qcurve" smooth="yes"/>
			<point x="130.5" y="1314"/>
			<point x="70" y="1304"/>
			<point x="44.5" y="1296" type="qcurve"/>
			<point x="41" y="1529" type="line"/>
			<point x="69.5" y="1539.5"/>
			<point x="158.5" y="1556"/>
			<point x="212" y="1556" type="qcurve"/>
			<point x="368.5" y="1556"/>
			<point x="530.5" y="1404.5"/>
			<point x="594" y="1217" type="qcurve" smooth="yes"/>
			<point x="1006.5" y="0" type="line"/>
			<point x="699.5" y="0" type="line"/>
			<point x="543.5" y="504" type="line" smooth="yes"/>
			<point x="528.5" y="551.5"/>
			<point x="511" y="609"/>
			<point x="492" y="674.5" type="qcurve"/>
			<point x="486.5" y="674.5" type="line"/>
			<point x="469" y="612"/>
			<point x="447" y="546"/>
			<point x="433" y="504.5" type="qcurve" smooth="yes"/>
			<point x="259.5" y="0" type="line"/>
		</contour>
	</outline>
</glyph>
<glyph name="mu" format="2">
  <advance width="1289"/>
  <unicode hex="03BC"/>
  <outline>
    <contour>
      <point x="130.0" y="-416.0" type="line"/>
      <point x="130.0" y="1054.5" type="line"/>
      <point x="427.5" y="1054.5" type="line"/>
      <point x="427.5" y="327.5" type="line"/>
      <point x="456.0" y="269.5"/>
      <point x="552.5" y="206.0"/>
      <point x="612.5" y="206.0" type="qcurve" smooth="yes"/>
      <point x="689.5" y="206.0"/>
      <point x="794.5" y="314.0"/>
      <point x="794.5" y="411.5" type="qcurve" smooth="yes"/>
      <point x="794.5" y="1055.5" type="line"/>
      <point x="1091.0" y="1055.5" type="line"/>
      <point x="1091.0" y="318.0" type="line" smooth="yes"/>
      <point x="1091.0" y="246.0"/>
      <point x="1140.5" y="194.0"/>
      <point x="1177.5" y="194.0" type="qcurve" smooth="yes"/>
      <point x="1198.5" y="194.0"/>
      <point x="1234.0" y="202.5"/>
      <point x="1251.5" y="210.0" type="qcurve"/>
      <point x="1251.5" y="-3.0" type="line"/>
      <point x="1228.5" y="-15.0"/>
      <point x="1153.5" y="-29.5"/>
      <point x="1105.0" y="-29.5" type="qcurve" smooth="yes"/>
      <point x="992.5" y="-29.5"/>
      <point x="863.5" y="59.0"/>
      <point x="844.5" y="138.5" type="qcurve"/>
      <point x="839.0" y="138.5" type="line"/>
      <point x="811.0" y="68.0"/>
      <point x="692.0" y="-20.0"/>
      <point x="619.5" y="-20.0" type="qcurve" smooth="yes"/>
      <point x="546.0" y="-20.0"/>
      <point x="451.0" y="25.0"/>
      <point x="427.5" y="60.0" type="qcurve"/>
      <point x="427.5" y="-416.0" type="line"/>
    </contour>
  </outline>
</glyph>
<glyph name="xi" format="2">
  <advance width="993"/>
  <unicode hex="03BE"/>
  <outline>
    <contour>
      <point x="651.5" y="-348.0" type="line"/>
      <point x="675.5" y="-279.5"/>
      <point x="693.5" y="-172.5"/>
      <point x="693.5" y="-130.5" type="qcurve"/>
      <point x="693.5" y="-76.5"/>
      <point x="609.0" y="-29.0"/>
      <point x="524.0" y="-13.0" type="qcurve" smooth="yes"/>
      <point x="443.5" y="2.0" type="line" smooth="yes"/>
      <point x="249.5" y="37.5"/>
      <point x="74.0" y="224.5"/>
      <point x="73.0" y="386.0" type="qcurve"/>
      <point x="73.0" y="533.5"/>
      <point x="231.0" y="726.5"/>
      <point x="361.0" y="755.0" type="qcurve"/>
      <point x="360.5" y="737.0" type="line"/>
      <point x="254.5" y="768.0"/>
      <point x="121.0" y="923.0"/>
      <point x="121.0" y="1041.0" type="qcurve" smooth="yes"/>
      <point x="121.0" y="1151.0"/>
      <point x="285.0" y="1312.0"/>
      <point x="423.0" y="1333.0" type="qcurve"/>
      <point x="423.0" y="1299.0" type="line"/>
      <point x="79.0" y="1299.0" type="line"/>
      <point x="79.0" y="1536.0" type="line"/>
      <point x="939.0" y="1536.0" type="line"/>
      <point x="939.0" y="1306.0" type="line"/>
      <point x="653.0" y="1298.0"/>
      <point x="416.5" y="1199.5"/>
      <point x="416.5" y="1082.0" type="qcurve"/>
      <point x="416.5" y="995.0"/>
      <point x="537.0" y="896.0"/>
      <point x="697.0" y="896.0" type="qcurve" smooth="yes"/>
      <point x="867.0" y="896.0" type="line"/>
      <point x="867.0" y="659.0" type="line"/>
      <point x="697.0" y="659.0" type="line" smooth="yes"/>
      <point x="507.0" y="659.0"/>
      <point x="379.5" y="545.5"/>
      <point x="379.5" y="454.0" type="qcurve" smooth="yes"/>
      <point x="379.5" y="367.5"/>
      <point x="472.5" y="269.5"/>
      <point x="592.5" y="246.0" type="qcurve" smooth="yes"/>
      <point x="671.0" y="231.0" type="line" smooth="yes"/>
      <point x="831.5" y="200.5"/>
      <point x="945.5" y="73.5"/>
      <point x="945.5" y="-34.5" type="qcurve"/>
      <point x="945.0" y="-93.0"/>
      <point x="901.0" y="-269.0"/>
      <point x="867.0" y="-348.0" type="qcurve"/>
    </contour>
  </outline>
</glyph>
<glyph name="pi" format="2">
  <advance width="1110"/>
  <unicode hex="03C0"/>
  <outline>
    <contour>
      <point x="-23.0" y="670.0" type="line"/>
      <point x="-23.0" y="917.0" type="line"/>
      <point x="1077.0" y="917.0" type="line"/>
      <point x="1077.0" y="670.0" type="line"/>
    </contour>
    <contour>
      <point x="76.5" y="0.0" type="line"/>
      <point x="76.5" y="826.0" type="line"/>
      <point x="419.0" y="826.0" type="line"/>
      <point x="419.0" y="0.0" type="line"/>
    </contour>
    <contour>
      <point x="887.0" y="-23.5" type="qcurve" smooth="yes"/>
      <point x="758.5" y="-23.5"/>
      <point x="633.0" y="117.0"/>
      <point x="633.0" y="274.5" type="qcurve"/>
      <point x="633.0" y="889.5" type="line"/>
      <point x="978.0" y="889.5" type="line"/>
      <point x="978.0" y="283.0" type="line"/>
      <point x="978.0" y="241.5"/>
      <point x="1015.5" y="205.5"/>
      <point x="1046.5" y="205.5" type="qcurve"/>
      <point x="1060.0" y="205.5"/>
      <point x="1089.5" y="212.5"/>
      <point x="1103.0" y="220.0" type="qcurve"/>
      <point x="1103.0" y="2.5" type="line"/>
      <point x="1069.5" y="-8.0"/>
      <point x="956.0" y="-23.5"/>
    </contour>
  </outline>
</glyph>
<glyph name="finalsigma" format="2">
	<unicode hex="03C2"/>
	<advance width="1127"/>
	<outline>
		<contour>
			<point x="682" y="-348" type="line"/>
			<point x="706.5" y="-281.5"/>
			<point x="725" y="-174"/>
			<point x="725" y="-134" type="qcurve"/>
			<point x="725" y="-79"/>
			<point x="651" y="-32.5"/>
			<point x="576.5" y="-17.5" type="qcurve" smooth="yes"/>
			<point x="500.5" y="-3" type="line" smooth="yes"/>
			<point x="300" y="35.5"/>
			<point x="73" y="273.5"/>
			<point x="73" y="492" type="qcurve" smooth="yes"/>
			<point x="73" y="544" type="line" smooth="yes"/>
			<point x="73" y="791.5"/>
			<point x="358" y="1085.5"/>
			<point x="609.5" y="1085.5" type="qcurve" smooth="yes"/>
			<point x="845.5" y="1085.5"/>
			<point x="1080" y="851"/>
			<point x="1080" y="686" type="qcurve" smooth="yes"/>
			<point x="1080" y="681" type="line"/>
			<point x="790.5" y="681" type="line"/>
			<point x="790.5" y="694" type="line" smooth="yes"/>
			<point x="790.5" y="768"/>
			<point x="699" y="865"/>
			<point x="604.5" y="865" type="qcurve" smooth="yes"/>
			<point x="495" y="865"/>
			<point x="377.5" y="706.5"/>
			<point x="377.5" y="561" type="qcurve" smooth="yes"/>
			<point x="377.5" y="511" type="line" smooth="yes"/>
			<point x="377.5" y="395.5"/>
			<point x="473.5" y="276"/>
			<point x="618.5" y="246.5" type="qcurve" smooth="yes"/>
			<point x="700" y="231.5" type="line" smooth="yes"/>
			<point x="863.5" y="200"/>
			<point x="977" y="74.5"/>
			<point x="977" y="-33.5" type="qcurve"/>
			<point x="976.5" y="-87.5"/>
			<point x="937.5" y="-253"/>
			<point x="899" y="-348" type="qcurve"/>
		</contour>
	</outline>
</glyph>
<glyph name="sigma" format="2">
	<unicode hex="03C3"/>
	<advance width="1310"/>
	<outline>
		<contour>
			<point x="616" y="-30" type="qcurve" smooth="yes"/>
			<point x="368.5" y="-30"/>
			<point x="73" y="260.5"/>
			<point x="73" y="492" type="qcurve" smooth="yes"/>
			<point x="73" y="523" type="line" smooth="yes"/>
			<point x="73" y="755.5"/>
			<point x="379.5" y="1055"/>
			<point x="636" y="1055" type="qcurve" smooth="yes"/>
			<point x="1269" y="1055" type="line"/>
			<point x="1269" y="828.5" type="line"/>
			<point x="950" y="828.5" type="line"/>
			<point x="950" y="915" type="line"/>
			<point x="1041" y="868"/>
			<point x="1159" y="676.5"/>
			<point x="1159" y="527" type="qcurve" smooth="yes"/>
			<point x="1159" y="496" type="line" smooth="yes"/>
			<point x="1159" y="264.5"/>
			<point x="863.5" y="-30"/>
		</contour>
		<contour>
			<point x="616.5" y="195.5" type="qcurve" smooth="yes"/>
			<point x="731" y="195.5"/>
			<point x="855" y="343"/>
			<point x="855" y="488" type="qcurve" smooth="yes"/>
			<point x="855" y="541" type="line" smooth="yes"/>
			<point x="855" y="682.5"/>
			<point x="727.5" y="833.5"/>
			<point x="621.5" y="833.5" type="qcurve"/>
			<point x="510" y="833.5"/>
			<point x="377.5" y="682"/>
			<point x="377.5" y="539" type="qcurve" smooth="yes"/>
			<point x="377.5" y="486" type="line" smooth="yes"/>
			<point x="377.5" y="341"/>
			<point x="502" y="195.5"/>
		</contour>
	</outline>
</glyph>
<glyph name="tau" format="2">
	<unicode hex="03C4"/>
	<advance width="870"/>
	<outline>
		<contour>
			<point x="0" y="818.5" type="line"/>
			<point x="0" y="1055" type="line"/>
			<point x="829" y="1055" type="line"/>
			<point x="829" y="818.5" type="line"/>
		</contour>
		<contour>
			<point x="557" y="-29.5" type="qcurve" smooth="yes"/>
			<point x="408" y="-29.5"/>
			<point x="252" y="121.5"/>
			<point x="252" y="299" type="qcurve" smooth="yes"/>
			<point x="253" y="933" type="line"/>
			<point x="548" y="933" type="line"/>
			<point x="548" y="320" type="line" smooth="yes"/>
			<point x="548" y="248.5"/>
			<point x="601.5" y="194"/>
			<point x="649" y="194" type="qcurve" smooth="yes"/>
			<point x="672" y="194"/>
			<point x="718" y="205.5"/>
			<point x="739.5" y="214" type="qcurve"/>
			<point x="739.5" y="1" type="line"/>
			<point x="716.5" y="-11"/>
			<point x="606.5" y="-29.5"/>
		</contour>
	</outline>
</glyph>
<glyph name="upsilon" format="2">
  <advance width="1110"/>
  <unicode hex="03C5"/>
  <anchor x="485.5" y="917.0" name="GRK_top"/>
  <outline>
    <contour>
      <point x="555.0" y="-20.0" type="qcurve" smooth="yes"/>
      <point x="299.5" y="-20.0"/>
      <point x="74.0" y="178.5"/>
      <point x="74.0" y="373.5" type="qcurve" smooth="yes"/>
      <point x="74.0" y="914.0" type="line"/>
      <point x="417.0" y="914.0" type="line"/>
      <point x="417.0" y="383.5" type="line" smooth="yes"/>
      <point x="417.0" y="304.0"/>
      <point x="481.0" y="223.0"/>
      <point x="554.5" y="223.0" type="qcurve" smooth="yes"/>
      <point x="630.0" y="223.0"/>
      <point x="692.0" y="304.5"/>
      <point x="692.0" y="383.5" type="qcurve" smooth="yes"/>
      <point x="692.0" y="914.0" type="line"/>
      <point x="1036.0" y="914.0" type="line"/>
      <point x="1036.0" y="373.5" type="line" smooth="yes"/>
      <point x="1036.0" y="179.0"/>
      <point x="810.5" y="-20.0"/>
    </contour>
  </outline>
</glyph>
<glyph name="phi" format="2">
	<unicode hex="03C6"/>
	<advance width="1652"/>
	<outline>
		<contour>
			<point x="677.5" y="-416" type="line"/>
			<point x="677.5" y="-30" type="line"/>
			<point x="369.5" y="-18"/>
			<point x="73" y="267"/>
			<point x="73" y="510" type="qcurve" smooth="yes"/>
			<point x="73" y="542" type="line" smooth="yes"/>
			<point x="73" y="785"/>
			<point x="369.5" y="1073"/>
			<point x="677.5" y="1085" type="qcurve"/>
			<point x="677.5" y="1531" type="line"/>
			<point x="974.5" y="1531" type="line"/>
			<point x="974.5" y="1085" type="line"/>
			<point x="1289.5" y="1073"/>
			<point x="1579" y="785"/>
			<point x="1579" y="542" type="qcurve" smooth="yes"/>
			<point x="1579" y="510" type="line" smooth="yes"/>
			<point x="1579" y="267"/>
			<point x="1289.5" y="-18"/>
			<point x="974.5" y="-30" type="qcurve"/>
			<point x="974.5" y="-416" type="line"/>
		</contour>
		<contour>
			<point x="677.5" y="195.5" type="qcurve"/>
			<point x="677.5" y="860" type="line"/>
			<point x="520.5" y="855"/>
			<point x="376.5" y="690"/>
			<point x="376.5" y="542" type="qcurve" smooth="yes"/>
			<point x="376.5" y="510" type="line" smooth="yes"/>
			<point x="376.5" y="362"/>
			<point x="520.5" y="200.5"/>
		</contour>
		<contour>
			<point x="974.5" y="195.5" type="line"/>
			<point x="1136.5" y="200.5"/>
			<point x="1275.5" y="362"/>
			<point x="1275.5" y="510" type="qcurve" smooth="yes"/>
			<point x="1275.5" y="542" type="line" smooth="yes"/>
			<point x="1275.5" y="690"/>
			<point x="1136.5" y="855"/>
			<point x="974.5" y="860" type="qcurve"/>
		</contour>
	</outline>
</glyph>
<glyph name="chi" format="2">
	<unicode hex="03C7"/>
	<advance width="1139"/>
	<outline>
		<contour>
			<point x="785" y="-416" type="line"/>
			<point x="465" y="271.5" type="line"/>
			<point x="454.5" y="271.5" type="line"/>
			<point x="27" y="1055" type="line"/>
			<point x="363.5" y="1055" type="line"/>
			<point x="678.5" y="420" type="line"/>
			<point x="689" y="420" type="line"/>
			<point x="1122" y="-416" type="line"/>
		</contour>
		<contour>
			<point x="27" y="-416" type="line"/>
			<point x="493" y="440" type="line"/>
			<point x="517.5" y="440" type="line"/>
			<point x="815" y="1055" type="line"/>
			<point x="1105.5" y="1055" type="line"/>
			<point x="693" y="284.5" type="line"/>
			<point x="658" y="285" type="line"/>
			<point x="322.5" y="-416" type="line"/>
		</contour>
	</outline>
</glyph>
<glyph name="psi" format="2">
	<unicode hex="03C8"/>
	<advance width="1571"/>
	<outline>
		<contour>
			<point x="644" y="-412.5" type="line"/>
			<point x="644" y="-20.5" type="line"/>
			<point x="387" y="-15.5"/>
			<point x="120" y="217.5"/>
			<point x="120" y="483.5" type="qcurve" smooth="yes"/>
			<point x="120" y="1055" type="line"/>
			<point x="417" y="1055" type="line"/>
			<point x="417" y="493.5" type="line" smooth="yes"/>
			<point x="417" y="344"/>
			<point x="530.5" y="215"/>
			<point x="644" y="206.5" type="qcurve"/>
			<point x="644" y="1540" type="line"/>
			<point x="927" y="1539.5" type="line"/>
			<point x="927" y="206" type="line"/>
			<point x="1037.5" y="214"/>
			<point x="1154" y="342"/>
			<point x="1154" y="493.5" type="qcurve" smooth="yes"/>
			<point x="1154" y="1055" type="line"/>
			<point x="1451" y="1055" type="line"/>
			<point x="1451" y="483.5" type="line" smooth="yes"/>
			<point x="1451" y="217.5"/>
			<point x="1184" y="-15.5"/>
			<point x="927" y="-20.5" type="qcurve"/>
			<point x="927" y="-412.5" type="line"/>
		</contour>
	</outline>
</glyph>
<glyph name="omega" format="2">
  <advance width="1587"/>
  <unicode hex="03C9"/>
  <anchor x="793.5" y="1052.0" name="GRK_top"/>
  <outline>
    <contour>
      <point x="487.0" y="-30.0" type="qcurve" smooth="yes"/>
      <point x="301.0" y="-30.0"/>
      <point x="83.0" y="205.0"/>
      <point x="83.0" y="459.5" type="qcurve"/>
      <point x="83.0" y="655.5"/>
      <point x="215.5" y="967.5"/>
      <point x="311.0" y="1055.5" type="qcurve"/>
      <point x="551.0" y="990.0" type="line"/>
      <point x="463.0" y="886.5"/>
      <point x="377.5" y="611.0"/>
      <point x="377.5" y="447.0" type="qcurve"/>
      <point x="377.5" y="315.5"/>
      <point x="442.0" y="197.5"/>
      <point x="513.0" y="197.5" type="qcurve"/>
      <point x="584.5" y="197.5"/>
      <point x="655.0" y="315.0"/>
      <point x="655.0" y="417.0" type="qcurve"/>
      <point x="655.0" y="709.5" type="line"/>
      <point x="932.0" y="709.5" type="line"/>
      <point x="932.0" y="417.0" type="line"/>
      <point x="932.0" y="315.0"/>
      <point x="1002.0" y="197.5"/>
      <point x="1074.0" y="197.5" type="qcurve"/>
      <point x="1145.0" y="197.5"/>
      <point x="1209.5" y="315.5"/>
      <point x="1209.5" y="447.0" type="qcurve"/>
      <point x="1209.5" y="611.0"/>
      <point x="1123.5" y="886.5"/>
      <point x="1035.5" y="990.0" type="qcurve"/>
      <point x="1276.0" y="1055.5" type="line"/>
      <point x="1371.5" y="967.5"/>
      <point x="1504.0" y="655.5"/>
      <point x="1504.0" y="459.5" type="qcurve"/>
      <point x="1504.0" y="205.0"/>
      <point x="1286.0" y="-30.0"/>
      <point x="1100.0" y="-30.0" type="qcurve" smooth="yes"/>
      <point x="988.5" y="-30.0"/>
      <point x="822.5" y="85.5"/>
      <point x="782.0" y="208.0" type="qcurve"/>
      <point x="805.0" y="208.0" type="line"/>
      <point x="766.0" y="88.5"/>
      <point x="603.5" y="-30.0"/>
    </contour>
  </outline>
</glyph>
<glyph name="Kaisymbol" format="2">
  <advance width="1188"/>
  <unicode hex="03CF"/>
  <outline>
    <contour>
      <point x="529.5" y="-597.5" type="line"/>
      <point x="355.0" y="-393.0" type="line"/>
      <point x="837.5" y="1.0" type="line"/>
      <point x="506.0" y="555.0" type="line"/>
      <point x="440.0" y="471.0" type="line"/>
      <point x="440.0" y="0.0" type="line"/>
      <point x="85.0" y="0.0" type="line"/>
      <point x="85.0" y="1456.0" type="line"/>
      <point x="440.0" y="1456.0" type="line"/>
      <point x="440.0" y="910.0" type="line"/>
      <point x="829.0" y="1456.0" type="line"/>
      <point x="1195.0" y="1456.0" type="line"/>
      <point x="722.0" y="841.5" type="line"/>
      <point x="1238.0" y="-4.5" type="line"/>
    </contour>
  </outline>
</glyph>
<glyph name="kaisymbol" format="2">
  <advance width="1126"/>
  <unicode hex="03D7"/>
  <outline>
    <contour>
      <point x="444.0" y="-633.5" type="line"/>
      <point x="281.5" y="-439.0" type="line"/>
      <point x="809.5" y="28.5" type="line"/>
      <point x="509.0" y="426.5" type="line"/>
      <point x="427.0" y="426.5" type="line"/>
      <point x="427.0" y="0.0" type="line"/>
      <point x="130.0" y="0.0" type="line"/>
      <point x="130.0" y="1055.0" type="line"/>
      <point x="427.0" y="1055.0" type="line"/>
      <point x="427.0" y="651.5" type="line"/>
      <point x="503.0" y="651.5" type="line"/>
      <point x="803.0" y="1055.0" type="line"/>
      <point x="1121.0" y="1055.0" type="line"/>
      <point x="738.5" y="549.5" type="line"/>
      <point x="1156.5" y="6.5" type="line"/>
    </contour>
  </outline>
</glyph>
<glyph name="Dje" format="2">
  <advance width="1380"/>
  <unicode hex="0402"/>
  <guideline x="599.5" y="1028.0" angle="90.0" identifier="YDADns81zF"/>
  <outline>
    <contour>
      <point x="381.0" y="0.0" type="line"/>
      <point x="381.0" y="1282.0" type="line"/>
      <point x="11.0" y="1282.0" type="line"/>
      <point x="11.0" y="1456.0" type="line"/>
      <point x="995.0" y="1456.0" type="line"/>
      <point x="995.0" y="1282.0" type="line"/>
      <point x="606.0" y="1282.0" type="line"/>
      <point x="606.0" y="0.0" type="line"/>
    </contour>
    <contour>
      <point x="880.0" y="2.0" type="line"/>
      <point x="880.0" y="160.0" type="line"/>
      <point x="888.0" y="160.0" type="line" smooth="yes"/>
      <point x="988.5" y="160.0"/>
      <point x="1097.0" y="307.5"/>
      <point x="1097.0" y="429.5" type="qcurve" smooth="yes"/>
      <point x="1097.0" y="445.5" type="line" smooth="yes"/>
      <point x="1097.0" y="588.0"/>
      <point x="953.0" y="702.5"/>
      <point x="832.0" y="702.5" type="qcurve" smooth="yes"/>
      <point x="729.1006289308" y="702.5"/>
      <point x="576.5" y="686.0"/>
      <point x="494.5" y="667.0" type="qcurve"/>
      <point x="494.5" y="837.0" type="line"/>
      <point x="577.5" y="855.5"/>
      <point x="730.9592145015" y="872.5"/>
      <point x="858.0" y="872.5" type="qcurve" smooth="yes"/>
      <point x="1084.0" y="872.5"/>
      <point x="1312.0" y="661.0"/>
      <point x="1312.0" y="444.5" type="qcurve" smooth="yes"/>
      <point x="1312.0" y="429.5" type="line" smooth="yes"/>
      <point x="1312.0" y="246.5"/>
      <point x="1104.0" y="2.0"/>
      <point x="888.0" y="2.0" type="qcurve" smooth="yes"/>
    </contour>
  </outline>
</glyph>
